<?xml version="1.0" encoding="utf-8"?>
<!-- Generator: Adobe Illustrator 19.0.0, SVG Export Plug-In . SVG Version: 6.00 Build 0)  -->
<svg version="1.1" id="Background" opacity="0.5" xmlns="http://www.w3.org/2000/svg" xmlns:xlink="http://www.w3.org/1999/xlink"
	 x="0px" y="0px" viewBox="0 0 400 400" style="enable-background:new 0 0 400 400;" xml:space="preserve">
<style type="text/css">
	.st0{opacity:0.2;}
	.st1{fill:#BB763E;}
	.st2{fill:#FFC9CF;}
	.st3{fill:#FD92A3;}
	.st4{fill:#FBE7D8;}
	.st5{fill:#BE3A4A;}
	.st6{fill:#F5CFB2;}
	.st7{fill:none;}
	.st8{fill:#E69F9E;}
	.st9{fill:#DF8797;}
</style>
<g id="XMLID_101_" class="st0">
	<path id="XMLID_104_" class="st1" d="M64.9,182.6c-0.6-0.9-1-1.7-0.2-2.5c15.6-15.2,32.6-31,49.1-46.2c9.2-8.5,18.7-17.2,27.6-25.6
		c0.8-0.7,1.9-0.6,2.6,0.3l0,0c0.6,0.9,0.5,2.2-0.3,3c-8.9,8.4-18.4,17.1-27.6,25.6c-16.5,15.2-33.5,30.9-49,46.1
		C66.2,184.1,65.6,183.5,64.9,182.6L64.9,182.6z"/>
	<path id="XMLID_103_" class="st2" d="M156,140.1c-18.8-1.2-34.9-23.3-35.9-44.2c-0.7-13.2,4-27.2,12.7-35.8
		c1.4-1.4,2.9-2.7,4.6-3.7c16-10.7,34.1-6.3,46,6.5c6.6,7.1,11.4,16.8,12.8,27.9c0.3,2.5,0.5,5.1,0.5,7.8
		C196.4,121.4,176.6,141.5,156,140.1z"/>
	<path id="XMLID_102_" class="st3" d="M156.9,135.2c-9-0.7-17.7-5.6-23.8-13.5c-0.4-0.5-0.7-0.9-1.1-1.4c-1.7-2.4-3.2-5.1-4.7-8.3
		c-6.8-14.4-5.6-30.7,3.1-42.3c5.6-7.5,14.1-12.7,23.2-14.3c10.3-1.7,20.7,1,29.7,7.6c6.6,7.1,11.4,16.8,12.8,27.9
		c-2.1-4.6-5.3-9.9-7-12.1c-9.5-12-22.1-17.7-34.5-15.6c-7.5,1.3-14.5,5.5-19,11.6c-6.8,9.2-7.7,22-2.3,33.5
		c1.5,3.3,3.1,5.9,4.9,8.2c4.9,6.4,11.9,10.4,19.2,10.9c7.3,0.6,14.7-2.4,20-8.1c3.3-3.5,5.4-7.8,6.1-12.1
		c0.8-5.1-0.5-10.9-3.5-15.5c-2.8-4.4-7-7.8-12.1-9.9c-3.5-1.4-8.7-2.8-14.2-1.2c-4.6,1.3-8.5,4.7-10.4,9.1
		c-1.6,3.7-1.9,8.4-0.7,12.6c1.2,4.1,3.7,7.8,7.1,10.2c3.2,2.3,6.8,3.4,10.1,2.9c3.4-0.5,6.5-2.8,8-5.9c1.6-3.1,1.5-7.2-0.2-9.9
		c-0.8-1.3-2.1-2.5-3.9-3.5c-1.9-1.1-3.6-1.6-5-1.4c-1.4,0.1-2.7,0.9-3.3,2c-0.4,0.8-0.4,2.1,0.1,2.6c0.2,0.2,0.8,0.2,1,0.1
		c1-1.8,3.1-2.4,4.7-1.2c1.6,1.1,2.1,3.6,1.1,5.4c-1.1,2-3,3.4-5.1,3.7c-2.3,0.3-4.6-0.5-6.3-2.2c-2.8-3-3.4-8.4-1.2-12.4
		c1.7-3.3,5-5.4,8.6-5.7c2.7-0.2,5.6,0.5,8.6,2.3c2.7,1.6,4.8,3.6,6.3,5.9c3.3,5.2,3.5,12.6,0.6,18.4c-2.6,5.3-7.5,8.9-13.1,9.8
		c-4.9,0.7-10.1-0.7-14.7-4c-4.7-3.4-8.2-8.5-9.9-14.4c-1.8-6.2-1.4-12.9,1.1-18.6c2.8-6.4,8.3-11.3,14.9-13.2
		c5.6-1.6,11.9-1.1,18.1,1.4c6.4,2.6,11.7,7,15.3,12.6c4.1,6.4,5.8,14.3,4.7,21.5c-0.9,5.9-3.8,11.7-8.2,16.4
		C175.4,132.1,166,135.9,156.9,135.2z"/>
</g>
<g id="XMLID_97_" class="st0">
	<path id="XMLID_100_" class="st1" d="M287.6,391.7c-0.9,0.4-1.8,0.6-2.1-0.5c-7.8-21.9-15.6-45.7-23.1-68.6
		c-4.2-12.8-8.5-26-12.7-38.4c-0.4-1.1,0.1-2.3,1.1-2.7l0,0c0.9-0.4,2,0.1,2.4,1.2c4.2,12.5,8.5,25.7,12.7,38.5
		c7.5,22.9,15.2,46.6,23,68.5C289.2,390.7,288.5,391.2,287.6,391.7L287.6,391.7z"/>
	<path id="XMLID_99_" class="st3" d="M280.7,277.9c-6.9,20.4-30.3,31.1-48.1,25.7c-11.2-3.4-21.4-12.9-25.8-25.2
		c-0.7-2-1.3-4.1-1.7-6.2c-3.9-21,5.5-39.5,19.8-48.7c8-5.1,17.6-7.3,27.3-5.4c2.2,0.4,4.4,1.1,6.6,1.9
		C277.8,227.5,288.3,255.7,280.7,277.9z"/>
	<path id="XMLID_98_" class="st4" d="M276.9,275.4c-3.4,9.7-10.2,17.7-18.7,22c-0.5,0.2-1,0.5-1.5,0.7c-2.5,1.1-5.3,2-8.4,2.6
		c-14.2,3-27.3-3.4-34.3-16.7c-4.5-8.5-6.2-19.5-4.6-30.1c1.8-11.9,7.3-22.5,15.6-30.4c8-5.1,17.6-7.3,27.3-5.4
		c-4.5,0.9-9.9,2.7-12.3,4c-13,6.7-21.6,18.8-23.8,33.2c-1.3,8.7,0,17.7,3.7,24.6c5.5,10.4,15.9,15.4,27.2,13
		c3.2-0.7,5.9-1.6,8.4-2.8c6.9-3.4,12.4-9.9,15.1-17.7c2.8-7.8,2.6-17-0.5-24.6c-1.9-4.7-4.8-8.4-8.1-10.5c-4-2.5-9.2-2.9-14-1
		c-4.5,1.7-8.7,5.3-12.1,10.2c-2.3,3.4-5.1,8.7-5.5,15.2c-0.3,5.5,1.3,10.9,4.3,14.4c2.6,3,6.4,4.7,10.3,4.7c3.8,0,7.7-1.7,10.8-4.6
		c2.9-2.8,4.9-6.5,5.6-10.2c0.6-3.9-0.3-8-2.4-10.7c-2.1-2.7-5.6-3.9-8.3-2.8c-1.4,0.5-2.8,1.6-4.1,3.1c-1.5,1.7-2.4,3.4-2.8,5.1
		c-0.3,1.6-0.1,3.3,0.6,4.3c0.6,0.7,1.6,1.1,2.2,0.7c0.3-0.2,0.4-0.8,0.4-1.1c-1.2-1.7-1-4.1,0.4-5.5c1.4-1.4,3.6-1.2,4.9,0.5
		c1.3,1.8,1.9,4.3,1.5,6.8c-0.4,2.6-1.9,5-3.8,6.2c-3.4,2.2-8,1.1-10.7-2.5c-2.2-2.9-3-7.2-2.1-11.3c0.7-3.1,2.2-6,4.6-8.8
		c2.2-2.5,4.5-4.2,6.9-5.1c5.3-2,11.6,0.1,15.5,5.1c3.6,4.5,5.1,11.1,4.1,17.5c-0.9,5.6-3.7,10.9-8,14.9c-4.3,4.1-9.7,6.3-15.1,6.4
		c-5.7,0-11.2-2.5-15.1-7c-4.4-5.1-6.8-12.7-6.3-20.5c0.4-6.7,2.8-13.5,6.9-19.5c4.2-6.2,9.5-10.7,15.3-12.9
		c6.6-2.5,13.7-1.9,19.4,1.6c4.6,2.9,8.6,7.9,11.1,14.1C280.1,254,280.4,265.6,276.9,275.4z"/>
</g>
<g id="XMLID_94_" class="st0">
	<path id="XMLID_96_" class="st5" d="M321,342.5c-17-10.1-23.8-38.2-17.2-58.1c4.1-12.5,13.5-23.2,24.7-27c1.8-0.6,3.7-1,5.6-1.3
		c18.7-2.3,33.8,10.5,40.2,28c3.6,9.8,4.4,21,1.8,32c-0.6,2.5-1.4,5-2.4,7.4C365.1,344.5,339.5,353.5,321,342.5z"/>
	<path id="XMLID_95_" class="st4" d="M323.6,338.3c-8.1-5-14.3-13.7-17.1-23.9c-0.2-0.6-0.3-1.2-0.5-1.8c-0.7-3-1.2-6.3-1.4-9.9
		c-1.1-16.6,5.9-31.1,18.2-37.7c7.9-4.3,17.6-5,26.6-2.1c10.2,3.3,18.8,10.8,24.8,21.2c3.6,9.8,4.4,21,1.8,32
		c-0.3-5.2-1.3-11.7-2.1-14.6c-4.5-15.6-14.1-26.9-26.3-30.9c-7.4-2.4-15.4-1.8-21.8,1.6c-9.6,5.2-15.1,16.7-14.2,29.9
		c0.2,3.7,0.8,7,1.6,9.9c2.2,8.3,7.3,15.3,13.8,19.3c6.5,4,14.5,4.8,21.4,2.1c4.3-1.7,7.9-4.6,10-8.3c2.6-4.3,3.5-10.3,2.4-16
		c-1-5.4-3.6-10.6-7.6-15c-2.7-3-7-6.8-12.7-7.9c-4.8-1-9.6,0.3-13,3.4c-2.8,2.7-4.8,6.9-5.2,11.3c-0.4,4.3,0.7,9,2.8,12.9
		c2.1,3.7,5.1,6.4,8.3,7.5c3.3,1.1,7,0.5,9.6-1.6c2.6-2.2,4-6,3.4-9.3c-0.3-1.6-1.1-3.4-2.3-5.1c-1.3-1.9-2.7-3.2-4.1-3.7
		c-1.4-0.6-2.8-0.5-3.8,0.3c-0.7,0.6-1.1,1.8-0.9,2.5c0.1,0.3,0.7,0.6,0.9,0.5c1.6-1.2,3.7-0.7,4.8,1.1c1.1,1.8,0.6,4.3-1,5.5
		c-1.7,1.3-4,1.7-6.1,1c-2.3-0.8-4.1-2.7-5-5.1c-1.5-4.2-0.1-9.4,3.3-12.1c2.8-2.2,6.6-2.7,10.1-1.2c2.6,1.1,5,3.2,7.2,6.2
		c1.9,2.7,3.2,5.6,3.7,8.5c1.1,6.4-1.3,13.3-6.1,17.3c-4.3,3.6-10.2,4.7-15.6,2.8c-4.8-1.7-9.1-5.5-12.1-10.7
		c-3.1-5.4-4.5-11.8-3.9-18c0.6-6.6,3.4-12.6,7.7-16.7c4.9-4.5,11.8-6.4,18.5-5.1c5.8,1.2,11.4,4.6,16.3,10c5,5.5,8.3,12.1,9.6,19
		c1.5,7.9,0.2,16-3.5,22.2c-3,5-7.8,9-13.5,11.3C341.8,344.3,331.8,343.4,323.6,338.3z"/>
</g>
<g id="XMLID_91_" class="st0">
	<path id="XMLID_93_" class="st5" d="M227.1,77c-13.8-10.5-17.5-35.4-10.3-51.7c4.5-10.3,13.4-18.6,23.4-20.7
		c1.6-0.3,3.2-0.5,4.9-0.5c16.3,0,28.3,12.5,32.4,28.3c2.3,8.8,2.2,18.5-1,27.7c-0.7,2.1-1.6,4.1-2.6,6.1
		C265,83.2,242.2,88.4,227.1,77z"/>
	<path id="XMLID_92_" class="st4" d="M229.7,73.7c-6.6-5.1-11.3-13.3-12.9-22.3c-0.1-0.5-0.2-1.1-0.3-1.6c-0.4-2.7-0.5-5.5-0.4-8.7
		c0.4-14.4,7.5-26.1,18.6-30.6c7.1-2.9,15.6-2.5,23.1,1c8.5,3.9,15.3,11.2,19.7,20.8c2.3,8.8,2.2,18.5-1,27.7
		c0.1-4.5-0.2-10.2-0.7-12.8c-2.6-13.9-10-24.6-20.3-29.3c-6.2-2.9-13.1-3.2-18.9-0.9c-8.7,3.5-14.3,12.8-14.6,24.3
		c-0.1,3.3,0.1,6.1,0.6,8.7c1.3,7.3,5.1,13.9,10.4,18c5.3,4.1,12.1,5.6,18.3,4c3.8-1,7.1-3.2,9.3-6.1c2.6-3.5,3.8-8.5,3.3-13.5
		c-0.5-4.7-2.3-9.5-5.4-13.7c-2.1-2.8-5.5-6.5-10.3-8.1c-4-1.3-8.3-0.7-11.4,1.6c-2.7,2-4.7,5.4-5.3,9.2c-0.7,3.7-0.1,7.8,1.4,11.4
		c1.5,3.4,3.9,6,6.6,7.3c2.8,1.3,6,1.2,8.4-0.4c2.4-1.6,3.9-4.7,3.6-7.7c-0.1-1.4-0.7-3-1.6-4.6c-1-1.8-2.1-3-3.3-3.7
		c-1.1-0.6-2.4-0.7-3.3-0.2c-0.7,0.4-1.1,1.4-0.9,2c0.1,0.3,0.5,0.6,0.7,0.6c1.5-0.9,3.2-0.3,4,1.4c0.8,1.7,0.2,3.8-1.2,4.7
		c-1.6,1-3.5,1.1-5.3,0.2c-1.9-0.9-3.3-2.7-3.9-4.9c-1-3.7,0.7-8.1,3.8-10c2.6-1.6,5.8-1.6,8.7,0c2.2,1.2,4.1,3.3,5.7,6.1
		c1.4,2.6,2.3,5.1,2.5,7.7c0.5,5.6-2.2,11.3-6.6,14.3c-4,2.7-9.1,3-13.7,0.8c-4-1.9-7.4-5.6-9.6-10.5c-2.2-5-2.9-10.6-2-15.9
		c1-5.6,3.9-10.5,7.9-13.5c4.5-3.4,10.6-4.3,16.3-2.5c4.9,1.6,9.5,5.2,13.2,10.3c3.8,5.2,6.2,11.2,6.7,17.3c0.7,7-1,13.8-4.7,18.7
		c-3,4-7.4,7-12.5,8.3C244.9,80.8,236.3,78.9,229.7,73.7z"/>
</g>
<g id="XMLID_77_" class="st0">
	<path id="XMLID_90_" class="st3" d="M227.6,132.6l-9.3-1.7c-6.2-0.7-4.6-5.4-1.9-6.1c0.6-0.1,1.1-0.3,1.6-0.3
		c-6.8-9.6,0.8-11.4,2.8-9.8c1.7,1.4,3.2,5.5,3.9,5c2.9-2.1,0.9-4.4,3-8.2c2.9-5.1,9.6-1.5,8,4.3C233.3,124,227.6,132.6,227.6,132.6
		z"/>
	<path id="XMLID_89_" class="st3" d="M285.5,179.5l6.3-1.8c1.1-0.3,4.8-0.6,6-0.4c6.3,1.6-3.3,9.5-3.7,9.7
		c8.4,7.8,3.4,10.3,0.9,10.5c-4.1,0.2-5.3-5.7-7-3.7c-0.8,0.9,2.1,2.3,1.2,6.6c-1.2,5.8-9.1,3.3-8.5-2.6
		C281.5,189.3,285.5,179.5,285.5,179.5z"/>
	<path id="XMLID_88_" class="st3" d="M258.3,124.9c-4.9,0.5-9.9,1.9-14.8,4c-8.4,3.7-15.6,9.3-21.1,16c-1.6-6.9,3.3-13.9,7.5-19.8
		c3.5-4.9,7.5-8,12.6-8.6c5.1-0.6,7.5,0.7,11.8,4.7L258.3,124.9z"/>
	<path id="XMLID_87_" class="st6" d="M252.3,149.3c0.7-0.5,1.5-1,2.3-1.4C253.8,148.3,253.1,148.8,252.3,149.3z"/>
	<path id="XMLID_86_" class="st6" d="M253.4,161.1c0.1-0.1,0.1-0.1,0.2-0.2c-0.2,0.1-0.3,0.3-0.4,0.4
		C253.2,161.3,253.3,161.2,253.4,161.1z"/>
	<path id="XMLID_85_" class="st3" d="M287.5,182.4c-3.5,4.9-7.1,10.8-12.2,11.4c-5.1,0.6-8.1-1.1-12.3-5.1l-1.5-1.4
		c5.7-8.2,13.8-15.1,23.6-19.3c3.3-1.4,6.6-2.5,9.9-3.2C296.5,171.6,291.7,176.4,287.5,182.4z"/>
	<path id="XMLID_84_" class="st4" d="M265.7,131.8c-4.9,0.5-9.9,1.9-14.8,4c-9.7,4.2-17.7,11.1-23.5,19.2c-2.5-2.9-4.2-6.4-5-10.2
		c5.5-6.7,12.7-12.3,21.1-16c4.9-2.1,9.9-3.5,14.8-4L265.7,131.8z"/>
	<path id="XMLID_83_" class="st7" d="M253.6,161c-0.2,0.1-0.3,0.3-0.4,0.4c0.1-0.1,0.2-0.2,0.3-0.2C253.4,161.1,253.5,161,253.6,161
		z"/>
	<path id="XMLID_82_" class="st3" d="M275.3,140.9c-0.6,0.1-1.2,0.1-1.8,0.2c-0.7,0.1-1.4,0.2-2.1,0.4c-0.6,0.1-1.1,0.2-1.6,0.3
		c-0.6,0.1-1.2,0.3-1.9,0.5c-0.6,0.2-1.2,0.3-1.9,0.5c-0.6,0.2-1.1,0.4-1.7,0.6c-0.5,0.2-0.9,0.3-1.4,0.5c-0.4,0.1-0.8,0.3-1.2,0.5
		c-0.4,0.2-0.9,0.4-1.3,0.5c-1.2,0.5-2.4,1.1-3.5,1.7c-0.8,0.4-1.6,0.9-2.4,1.3c-0.8,0.4-1.5,0.9-2.3,1.4c-4,2.6-7.6,5.7-10.8,9.2
		c-0.3,0.3-0.6,0.7-0.9,1c-0.4,0.4-0.8,0.9-1.2,1.4c-0.4,0.5-0.8,1-1.2,1.5c-0.5,0.6-0.9,1.2-1.4,1.9l-7.9-7.4
		c-0.6-0.5-1.1-1.1-1.6-1.7c5.7-8.2,13.8-15,23.5-19.2c4.9-2.1,9.9-3.5,14.8-4L275.3,140.9z"/>
	<path id="XMLID_81_" class="st4" d="M282.8,147.8c-0.1,0-0.2,0-0.2,0c-0.1,0-0.2,0-0.3,0c-0.4,0-0.9,0.1-1.3,0.2
		c-1.7,0.3-3.4,0.6-5.1,1.1c-0.2,0-0.4,0.1-0.6,0.1c0,0-0.1,0-0.1,0c-0.4,0.1-0.8,0.2-1.2,0.3c0,0-0.1,0-0.1,0
		c-0.3,0.1-0.7,0.2-1,0.3c-0.3,0.1-0.6,0.2-0.9,0.3c-0.6,0.2-1.3,0.4-1.9,0.7c-0.7,0.3-1.5,0.6-2.2,0.9c-0.5,0.2-0.9,0.4-1.3,0.6
		c-0.4,0.2-0.9,0.4-1.3,0.6c-1.5,0.7-2.9,1.5-4.3,2.4c-0.4,0.3-0.8,0.5-1.2,0.8c-1.7,1.1-3.3,2.3-4.9,3.6c-0.4,0.4-0.9,0.7-1.3,1.1
		c-0.1,0-0.1,0.1-0.2,0.2c-0.1,0.1-0.2,0.1-0.3,0.2c-0.2,0.1-0.3,0.3-0.4,0.4c-0.5,0.5-1.1,1-1.6,1.5c-0.3,0.3-0.6,0.6-0.9,1
		c-0.7,0.7-1.4,1.4-2,2.2c-0.2,0.2-0.4,0.4-0.5,0.6c-0.2,0.2-0.4,0.5-0.6,0.7c-0.1,0.2-0.3,0.3-0.4,0.5c-0.2,0.3-0.4,0.5-0.6,0.8
		l-0.5,0.6c-0.4,0.5-0.7,1-1.1,1.5l-7.4-7c0.4-0.6,0.9-1.2,1.4-1.9c0.4-0.5,0.8-1,1.2-1.5c0.4-0.5,0.8-0.9,1.2-1.4
		c0.3-0.3,0.6-0.7,0.9-1c3.2-3.5,6.8-6.6,10.8-9.2c0.7-0.5,1.5-1,2.3-1.4c0.8-0.5,1.6-0.9,2.4-1.3c1.1-0.6,2.3-1.2,3.5-1.7
		c0.4-0.2,0.9-0.4,1.3-0.5c0.4-0.2,0.8-0.3,1.2-0.5c0.5-0.2,0.9-0.4,1.4-0.5c0.6-0.2,1.1-0.4,1.7-0.6c0.6-0.2,1.2-0.4,1.9-0.5
		c0.6-0.2,1.2-0.3,1.9-0.5c0.5-0.1,1.1-0.2,1.6-0.3c0.7-0.1,1.4-0.3,2.1-0.4c0.6-0.1,1.2-0.2,1.8-0.2L282.8,147.8z"/>
	<path id="XMLID_80_" class="st7" d="M253.6,161c-0.2,0.1-0.3,0.3-0.4,0.4c0.1-0.1,0.2-0.2,0.3-0.2C253.4,161.1,253.5,161,253.6,161
		z"/>
	<path id="XMLID_79_" class="st3" d="M291.6,157c-0.5,0.1-1.1,0.1-1.6,0.2c-0.1,0-0.2,0-0.3,0c-0.5,0.1-1.1,0.2-1.6,0.3
		c-0.6,0.1-1.1,0.2-1.7,0.4c-0.5,0.1-0.9,0.2-1.4,0.3c-1.9,0.5-3.8,1.1-5.8,1.9c-0.3,0.1-0.6,0.2-0.9,0.4c-0.3,0.1-0.6,0.2-0.9,0.4
		c-9.8,4.3-17.8,11.1-23.6,19.3l-9.6-9c0.4-0.5,0.7-1,1.1-1.5l0.5-0.6c0.2-0.3,0.4-0.5,0.6-0.8c0.1-0.2,0.3-0.3,0.4-0.5
		c0.2-0.2,0.4-0.5,0.6-0.7c0.2-0.2,0.3-0.4,0.5-0.6c0.6-0.7,1.3-1.5,2-2.2c0.3-0.3,0.6-0.6,0.9-1c0.5-0.5,1-1,1.6-1.5
		c0.1-0.1,0.3-0.3,0.4-0.4c0.1-0.1,0.3-0.3,0.4-0.4c0.4-0.4,0.8-0.7,1.3-1.1c1.6-1.3,3.2-2.5,4.9-3.6c0.4-0.3,0.8-0.5,1.2-0.8
		c1.4-0.9,2.8-1.7,4.3-2.4c0.4-0.2,0.9-0.4,1.3-0.6c0.4-0.2,0.9-0.4,1.3-0.6c0.7-0.3,1.5-0.6,2.2-0.9c0.6-0.2,1.3-0.5,1.9-0.7
		c0.3-0.1,0.6-0.2,0.9-0.3c0.3-0.1,0.6-0.2,1-0.3c0,0,0.1,0,0.1,0c0.4-0.1,0.8-0.2,1.2-0.3c0,0,0,0,0.1,0c0.2-0.1,0.4-0.1,0.6-0.1
		c1.7-0.5,3.4-0.8,5.1-1.1c0.4-0.1,0.9-0.1,1.3-0.2c0.1,0,0.2,0,0.3,0c0.1,0,0.1,0,0.2,0l5.5,5.2C289.5,154.2,290.6,155.5,291.6,157
		z"/>
	<path id="XMLID_78_" class="st4" d="M294.8,164.7c-3.3,0.7-6.6,1.8-9.9,3.2c-9.7,4.2-17.8,11.1-23.6,19.3l-7.4-7
		c5.8-8.2,13.8-15.1,23.6-19.3c0.3-0.1,0.6-0.2,0.9-0.4c0.3-0.1,0.6-0.2,0.9-0.4c1.9-0.8,3.8-1.4,5.8-1.9c0.4-0.1,0.9-0.2,1.4-0.3
		c0.6-0.1,1.1-0.3,1.7-0.4c0.5-0.1,1.1-0.2,1.6-0.3c0.1,0,0.2,0,0.3,0c0.5-0.1,1.1-0.2,1.6-0.2C293.1,159.3,294.2,161.9,294.8,164.7
		z"/>
</g>
<g id="XMLID_63_" class="st0">
	<path id="XMLID_76_" class="st5" d="M191.6,317.5l8.5,0.1c5.6-0.3,4.7,4.1,2.3,5.1c-0.5,0.2-1,0.4-1.4,0.5
		c7.1,7.6,0.6,10.3-1.4,9.1c-1.7-1-3.5-4.5-4-3.9c-2.3,2.3-0.3,4.1-1.7,7.7c-2,5-8.4,2.7-7.5-2.7C187.4,326,191.6,317.5,191.6,317.5
		z"/>
	<path id="XMLID_75_" class="st5" d="M135,284.3l-5.4,2.5c-1,0.4-4.2,1.3-5.2,1.2c-5.7-0.5,1.9-8.9,2.2-9.1c-8.3-5.7-4.2-8.7-2-9.2
		c3.6-0.8,5.3,4.3,6.6,2.3c0.6-1-2.1-1.8-1.8-5.6c0.4-5.3,7.7-4.2,7.8,1C137.5,275,135,284.3,135,284.3z"/>
	<path id="XMLID_74_" class="st4" d="M165.2,328.9c4.3-1.2,8.6-3.1,12.7-5.7c7.1-4.5,12.8-10.5,16.9-17.3c2.2,5.9-1.4,12.8-4.5,18.7
		c-2.5,4.9-5.8,8.2-10.3,9.5c-4.5,1.3-6.8,0.5-11-2.4L165.2,328.9z"/>
	<path id="XMLID_73_" class="st6" d="M167.8,306.3c-0.6,0.6-1.2,1.1-1.9,1.6C166.5,307.4,167.2,306.8,167.8,306.3z"/>
	<path id="XMLID_72_" class="st6" d="M165.5,295.9c0,0.1-0.1,0.1-0.1,0.2c0.1-0.1,0.2-0.3,0.3-0.4
		C165.7,295.8,165.6,295.8,165.5,295.9z"/>
	<path id="XMLID_71_" class="st4" d="M132.9,282c2.5-4.9,5.1-10.6,9.6-11.9c4.5-1.3,7.3-0.2,11.5,2.8l1.5,1.1
		c-4.2,8.1-10.6,15.4-18.8,20.6c-2.8,1.7-5.6,3.2-8.4,4.3C126.1,292.9,129.8,288,132.9,282z"/>
	<path id="XMLID_70_" class="st5" d="M157.8,323.7c4.3-1.2,8.6-3.1,12.7-5.7c8.1-5.2,14.5-12.4,18.7-20.5c2.5,2.2,4.4,5.1,5.6,8.3
		c-4.1,6.8-9.9,12.8-16.9,17.3c-4.1,2.6-8.4,4.5-12.7,5.7L157.8,323.7z"/>
	<path id="XMLID_69_" class="st7" d="M165.4,296.1c0.1-0.1,0.2-0.3,0.3-0.4c-0.1,0.1-0.1,0.2-0.2,0.2
		C165.5,296,165.5,296,165.4,296.1z"/>
	<path id="XMLID_68_" class="st4" d="M148.3,317.1c0.5-0.1,1.1-0.3,1.6-0.5c0.6-0.2,1.2-0.4,1.8-0.6c0.5-0.2,1-0.4,1.4-0.5
		c0.5-0.2,1.1-0.4,1.6-0.7c0.5-0.2,1.1-0.5,1.6-0.8c0.5-0.2,1-0.5,1.4-0.7c0.4-0.2,0.8-0.4,1.2-0.7c0.3-0.2,0.7-0.4,1-0.6
		c0.4-0.2,0.7-0.4,1.1-0.7c1-0.6,2-1.3,2.9-2c0.7-0.5,1.3-1,2-1.5c0.7-0.5,1.3-1,1.9-1.6c3.3-2.9,6.2-6.2,8.6-9.7
		c0.2-0.3,0.5-0.7,0.7-1c0.3-0.5,0.6-0.9,0.9-1.4c0.3-0.5,0.6-1,0.9-1.5c0.3-0.6,0.7-1.2,1-1.8l7.8,5.4c0.6,0.4,1.1,0.8,1.6,1.3
		c-4.2,8.1-10.6,15.3-18.7,20.5c-4.1,2.6-8.4,4.5-12.7,5.7L148.3,317.1z"/>
	<path id="XMLID_67_" class="st5" d="M140.9,312c0.1,0,0.1,0,0.2-0.1c0.1,0,0.2,0,0.2-0.1c0.4-0.1,0.8-0.2,1.2-0.3
		c1.5-0.5,3-1,4.4-1.7c0.2-0.1,0.3-0.1,0.5-0.2c0,0,0,0,0.1,0c0.3-0.1,0.7-0.3,1-0.5c0,0,0.1,0,0.1,0c0.3-0.1,0.6-0.3,0.8-0.4
		c0.3-0.1,0.5-0.3,0.8-0.4c0.5-0.3,1.1-0.6,1.6-0.9c0.6-0.4,1.2-0.7,1.9-1.1c0.4-0.2,0.8-0.5,1.1-0.7c0.4-0.2,0.7-0.5,1.1-0.8
		c1.2-0.9,2.4-1.8,3.6-2.8c0.4-0.3,0.7-0.6,1-0.9c1.4-1.2,2.7-2.5,4-3.9c0.3-0.4,0.7-0.8,1-1.1c0.1-0.1,0.1-0.1,0.1-0.2
		c0.1-0.1,0.1-0.2,0.2-0.2c0.1-0.1,0.2-0.3,0.3-0.4c0.4-0.5,0.8-1,1.2-1.5c0.3-0.3,0.5-0.7,0.7-1c0.5-0.7,1-1.5,1.5-2.2
		c0.1-0.2,0.3-0.4,0.4-0.6c0.2-0.2,0.3-0.5,0.5-0.7c0.1-0.2,0.2-0.3,0.3-0.5c0.2-0.3,0.3-0.5,0.5-0.8l0.4-0.6c0.3-0.5,0.6-1,0.8-1.5
		l7.4,5.1c-0.3,0.6-0.6,1.2-1,1.8c-0.3,0.5-0.6,1-0.9,1.5c-0.3,0.5-0.6,0.9-0.9,1.4c-0.2,0.3-0.5,0.7-0.7,1
		c-2.4,3.5-5.3,6.8-8.6,9.7c-0.6,0.6-1.2,1.1-1.9,1.6c-0.6,0.5-1.3,1-2,1.5c-1,0.7-1.9,1.4-2.9,2c-0.4,0.2-0.7,0.5-1.1,0.7
		c-0.3,0.2-0.7,0.4-1,0.6c-0.4,0.2-0.8,0.5-1.2,0.7c-0.5,0.2-1,0.5-1.4,0.7c-0.5,0.3-1.1,0.5-1.6,0.8c-0.5,0.2-1.1,0.5-1.6,0.7
		c-0.5,0.2-1,0.4-1.4,0.5c-0.6,0.2-1.2,0.4-1.8,0.6c-0.5,0.2-1.1,0.3-1.6,0.5L140.9,312z"/>
	<path id="XMLID_66_" class="st7" d="M165.4,296.1c0.1-0.1,0.2-0.3,0.3-0.4c-0.1,0.1-0.1,0.2-0.2,0.2
		C165.5,296,165.5,296,165.4,296.1z"/>
	<path id="XMLID_65_" class="st4" d="M132.1,305.2c0.5-0.1,0.9-0.3,1.4-0.4c0.1,0,0.2-0.1,0.2-0.1c0.5-0.2,0.9-0.3,1.4-0.5
		c0.5-0.2,1-0.4,1.4-0.6c0.4-0.2,0.8-0.3,1.2-0.5c1.6-0.7,3.3-1.6,4.9-2.5c0.3-0.1,0.5-0.3,0.7-0.4c0.2-0.2,0.5-0.3,0.7-0.5
		c8.2-5.2,14.6-12.5,18.8-20.6l9.5,6.6c-0.3,0.5-0.5,1-0.8,1.5l-0.4,0.6c-0.2,0.3-0.3,0.5-0.5,0.8c-0.1,0.2-0.2,0.3-0.3,0.5
		c-0.2,0.3-0.3,0.5-0.5,0.7c-0.1,0.2-0.3,0.4-0.4,0.6c-0.5,0.7-1,1.5-1.5,2.2c-0.2,0.3-0.5,0.7-0.7,1c-0.4,0.5-0.8,1-1.2,1.5
		c-0.1,0.1-0.2,0.3-0.3,0.4c-0.1,0.1-0.2,0.3-0.3,0.4c-0.3,0.4-0.7,0.8-1,1.1c-1.2,1.4-2.5,2.7-4,3.9c-0.3,0.3-0.7,0.6-1,0.9
		c-1.1,1-2.3,1.9-3.6,2.8c-0.4,0.3-0.7,0.5-1.1,0.8c-0.4,0.3-0.7,0.5-1.1,0.7c-0.6,0.4-1.2,0.8-1.9,1.1c-0.5,0.3-1.1,0.6-1.6,0.9
		c-0.2,0.1-0.5,0.3-0.8,0.4c-0.3,0.1-0.5,0.3-0.8,0.4c0,0-0.1,0-0.1,0c-0.3,0.2-0.7,0.3-1,0.5c0,0,0,0-0.1,0
		c-0.2,0.1-0.3,0.1-0.5,0.2c-1.5,0.7-2.9,1.2-4.4,1.7c-0.4,0.1-0.8,0.2-1.2,0.3c-0.1,0-0.1,0.1-0.2,0.1c-0.1,0-0.1,0-0.2,0.1
		l-5.4-3.8C134.2,307.4,133.1,306.4,132.1,305.2z"/>
	<path id="XMLID_64_" class="st5" d="M128.3,298.9c2.8-1.1,5.7-2.5,8.4-4.3c8.2-5.2,14.6-12.5,18.8-20.6l7.4,5.1
		c-4.2,8.1-10.6,15.4-18.8,20.6c-0.2,0.2-0.5,0.3-0.7,0.5c-0.2,0.2-0.5,0.3-0.7,0.4c-1.6,0.9-3.2,1.8-4.9,2.5
		c-0.4,0.2-0.8,0.3-1.2,0.5c-0.5,0.2-1,0.4-1.4,0.6c-0.5,0.2-0.9,0.3-1.4,0.5c-0.1,0-0.1,0.1-0.2,0.1c-0.5,0.2-0.9,0.3-1.4,0.4
		C130.5,303.4,129.2,301.2,128.3,298.9z"/>
</g>
<g id="XMLID_60_" class="st0">
	<path id="XMLID_62_" class="st8" d="M191.1,218.1c-5.8,15.1-23.7,22.3-36.9,17.5c-8.3-3-15.7-10.5-18.7-20
		c-0.5-1.5-0.9-3.1-1.1-4.7c-2.3-16,5.3-29.5,16.4-35.9c6.2-3.5,13.4-4.8,20.7-3c1.6,0.4,3.3,1,4.9,1.7
		C190.3,180.1,197.4,201.7,191.1,218.1z"/>
	<path id="XMLID_61_" class="st5" d="M188.3,216.1c-2.9,7.2-8.2,13-14.7,15.8c-0.4,0.2-0.8,0.3-1.2,0.5c-1.9,0.7-4,1.3-6.4,1.7
		c-10.8,1.7-20.5-3.6-25.4-13.9c-3.1-6.6-4.1-14.9-2.6-22.8c1.7-8.9,6.1-16.6,12.6-22.3c6.2-3.5,13.4-4.8,20.7-3
		c-3.4,0.5-7.5,1.7-9.4,2.5c-10,4.6-16.8,13.3-18.9,24.1c-1.2,6.5-0.5,13.3,2.1,18.7c3.8,8,11.5,12.2,20.1,10.8
		c2.4-0.4,4.5-1,6.4-1.8c5.3-2.3,9.6-7,11.9-12.7c2.3-5.8,2.4-12.7,0.4-18.5c-1.3-3.6-3.4-6.5-5.8-8.2c-2.9-2-6.9-2.5-10.5-1.3
		c-3.5,1.1-6.7,3.6-9.4,7.2c-1.8,2.4-4.1,6.4-4.5,11.3c-0.4,4.1,0.6,8.2,2.8,11c1.9,2.3,4.7,3.8,7.6,3.9c2.8,0.1,5.8-1,8.2-3
		c2.3-2,3.9-4.7,4.5-7.5c0.6-2.9,0-6.1-1.5-8.1c-1.5-2.1-4.1-3.1-6.2-2.5c-1,0.3-2.1,1.1-3.2,2.2c-1.2,1.2-1.9,2.5-2.2,3.7
		c-0.3,1.2-0.2,2.5,0.4,3.2c0.4,0.6,1.2,0.9,1.7,0.6c0.2-0.1,0.4-0.6,0.3-0.8c-0.9-1.3-0.6-3.2,0.5-4.2c1.1-1,2.8-0.7,3.6,0.6
		c1,1.4,1.3,3.3,0.9,5.2c-0.4,2-1.5,3.7-3.1,4.5c-2.6,1.5-6.1,0.5-8-2.3c-1.6-2.3-2-5.5-1.2-8.6c0.6-2.3,1.8-4.5,3.7-6.4
		c1.7-1.8,3.5-3,5.3-3.6c4.1-1.3,8.7,0.5,11.5,4.4c2.6,3.6,3.5,8.5,2.5,13.3c-0.9,4.2-3.1,8.1-6.4,10.9c-3.4,2.9-7.5,4.4-11.5,4.2
		c-4.3-0.2-8.4-2.3-11.2-5.8c-3.2-4-4.7-9.8-4.2-15.7c0.5-5,2.5-10,5.7-14.4c3.3-4.5,7.5-7.7,11.9-9.1c5.1-1.6,10.4-0.9,14.6,1.9
		c3.4,2.3,6.2,6.3,8,11.1C191.4,200.1,191.2,208.8,188.3,216.1z"/>
</g>
<g id="XMLID_57_" class="st0">
	<path id="XMLID_59_" class="st2" d="M81.8,281.7C74,301.8,50,311.4,32.4,305.1c-11.1-4-21-14.1-25-26.7c-0.6-2-1.1-4.2-1.5-6.3
		c-3.1-21.3,7-39.5,21.9-47.9c8.3-4.7,18-6.4,27.6-4c2.2,0.5,4.4,1.3,6.6,2.3C80.8,230.8,90.2,259.7,81.8,281.7z"/>
	<path id="XMLID_58_" class="st3" d="M78,278.9c-3.8,9.6-11,17.3-19.7,21.1c-0.5,0.2-1,0.4-1.6,0.6c-2.6,1-5.4,1.7-8.5,2.2
		c-14.4,2.3-27.4-4.8-33.9-18.5c-4.2-8.8-5.5-19.9-3.5-30.5c2.3-11.9,8.2-22.2,16.9-29.8c8.3-4.7,18-6.4,27.6-4
		c-4.5,0.7-10.1,2.2-12.6,3.3c-13.3,6.1-22.5,17.8-25.2,32.2c-1.7,8.7-0.6,17.8,2.8,25c5.1,10.7,15.4,16.3,26.9,14.5
		c3.2-0.5,6-1.3,8.5-2.4c7-3.1,12.8-9.3,15.9-17c3.1-7.7,3.3-17,0.5-24.7c-1.7-4.8-4.5-8.7-7.8-11c-3.9-2.7-9.2-3.4-14.1-1.8
		c-4.6,1.5-8.9,4.8-12.5,9.7c-2.4,3.3-5.4,8.5-6.1,15c-0.6,5.5,0.9,11,3.8,14.7c2.5,3.1,6.3,5.1,10.1,5.3c3.8,0.2,7.8-1.3,11-4.1
		c3-2.6,5.2-6.3,6-10c0.8-3.9,0-8.1-2-10.9c-2-2.8-5.4-4.2-8.3-3.3c-1.4,0.4-2.8,1.4-4.3,2.9c-1.6,1.6-2.6,3.3-3,5
		c-0.4,1.6-0.2,3.3,0.5,4.3c0.5,0.8,1.6,1.2,2.2,0.9c0.3-0.2,0.5-0.8,0.4-1.1c-1.2-1.7-0.9-4.2,0.6-5.5c1.5-1.3,3.7-1,4.9,0.7
		c1.3,1.9,1.7,4.4,1.2,6.9c-0.5,2.6-2.1,4.9-4.1,6c-3.5,2-8.1,0.7-10.7-3.1c-2.1-3.1-2.7-7.4-1.7-11.5c0.8-3.1,2.5-6,5-8.6
		c2.3-2.4,4.7-4,7.1-4.7c5.4-1.7,11.6,0.7,15.4,5.9c3.4,4.7,4.7,11.4,3.4,17.8c-1.1,5.6-4.2,10.8-8.6,14.6c-4.5,3.9-10,5.9-15.4,5.6
		c-5.7-0.3-11.2-3.1-14.9-7.8c-4.3-5.3-6.3-13.1-5.5-20.9c0.7-6.7,3.3-13.4,7.7-19.3c4.5-6,10-10.2,15.9-12.2
		c6.8-2.2,13.9-1.2,19.5,2.6c4.6,3.1,8.3,8.4,10.6,14.8C82.1,257.6,81.9,269.2,78,278.9z"/>
</g>
<g id="XMLID_51_" class="st0">
	<path id="XMLID_56_" class="st2" d="M118.1,21.8c14.7,5.3,34.6-2.7,41.1-19.5c0.3-0.7,0.5-1.5,0.8-2.3l-3.9,0
		c-3.2,8-9.1,14.4-16.4,17.6c-0.4,0.2-0.9,0.4-1.3,0.5c-2.1,0.8-4.5,1.4-7.1,1.8c-12,1.9-22.8-4-28.2-15.4c-0.7-1.4-1.3-3-1.8-4.5
		l-3.9,0C100.9,10.3,109,18.5,118.1,21.8z"/>
	<path id="XMLID_55_" class="st2" d="M130.5,13.4c2.7-0.4,5-1.1,7.1-2c5-2.2,9.2-6.3,11.9-11.4l-3.5,0c-1.2,1.9-2.6,3.6-4.3,5.1
		c-3.8,3.2-8.3,4.9-12.8,4.7c-4.8-0.2-9.3-2.6-12.4-6.5c-0.8-1-1.5-2.1-2.1-3.3l-6.8,0c0.2,0.5,0.4,0.9,0.6,1.4
		C112.4,10.3,121,14.9,130.5,13.4z"/>
	<path id="XMLID_54_" class="st2" d="M138.1,0l-16.2,0c2,1.9,4.6,3.1,7.3,3.2C132.2,3.3,135.4,2.2,138.1,0z"/>
	<path id="XMLID_53_" class="st3" d="M128.9,9.8c4.5,0.2,9.1-1.5,12.8-4.7c1.7-1.5,3.2-3.2,4.3-5.1l-8,0c-2.6,2.2-5.9,3.3-8.9,3.2
		c-2.7-0.1-5.3-1.3-7.3-3.2l-7.4,0c0.6,1.2,1.3,2.3,2.1,3.3C119.6,7.2,124.2,9.6,128.9,9.8z"/>
	<path id="XMLID_52_" class="st3" d="M131.3,20c2.6-0.4,4.9-1,7.1-1.8c0.4-0.2,0.9-0.3,1.3-0.5c7.2-3.2,13.2-9.6,16.4-17.6l-6.5,0
		c-2.7,5.1-6.9,9.2-11.9,11.4c-2.1,0.9-4.4,1.6-7.1,2c-9.5,1.5-18.1-3.1-22.4-12c-0.2-0.4-0.4-0.9-0.6-1.4l-6.2,0
		c0.5,1.6,1.1,3.1,1.8,4.5C108.5,15.9,119.3,21.8,131.3,20z"/>
</g>
<g id="XMLID_44_" class="st0">
	<path id="XMLID_50_" class="st2" d="M100.2,379.2c1.9-9.9,6.8-18.5,14.1-24.8c-12.3,7-20.8,22.1-18.2,39.9c0.3,1.8,0.7,3.6,1.2,5.3
		c0.1,0.2,0.1,0.3,0.2,0.5h3.9C99.3,393.6,98.8,386.2,100.2,379.2z"/>
	<path id="XMLID_49_" class="st2" d="M151.2,376.7c-1.4-4-3.7-7.3-6.5-9.1c-3.3-2.2-7.6-2.8-11.7-1.5c-3.8,1.2-7.4,4-10.4,8
		c-2,2.7-4.5,7.1-5.1,12.5c-0.5,4.6,0.7,9.2,3.1,12.2c0.3,0.4,0.7,0.8,1.1,1.2H138c0.1-0.1,0.2-0.1,0.2-0.2c2.5-2.2,4.3-5.2,5-8.3
		c0.7-3.3,0-6.7-1.7-9.1c-1.7-2.4-4.5-3.5-6.9-2.7c-1.2,0.4-2.4,1.2-3.6,2.5c-1.3,1.4-2.1,2.8-2.5,4.1c-0.3,1.3-0.2,2.7,0.4,3.6
		c0.4,0.6,1.3,1,1.8,0.7c0.2-0.1,0.4-0.7,0.3-0.9c-1-1.4-0.7-3.5,0.5-4.6c1.3-1.1,3.1-0.8,4,0.6c1.1,1.6,1.4,3.7,1,5.8
		c-0.4,2.2-1.7,4.1-3.4,5c-2.9,1.7-6.8,0.6-8.9-2.6c-1.7-2.6-2.3-6.1-1.4-9.5c0.7-2.6,2-5,4.1-7.2c1.9-2,3.9-3.3,5.9-4
		c4.5-1.4,9.7,0.6,12.8,4.9c2.8,3.9,3.9,9.5,2.8,14.8c-0.5,2.5-1.5,4.9-2.8,7h3.5c0.5-0.9,0.9-1.8,1.3-2.8
		C153.3,390.8,153.5,383.1,151.2,376.7z"/>
	<path id="XMLID_48_" class="st2" d="M142.7,353c-1.8-0.8-3.6-1.4-5.5-1.9c-3.8,0.6-8.4,1.8-10.4,2.8c-11.1,5.1-18.7,14.8-21,26.8
		c-1.3,6.7-0.6,13.7,1.7,19.4h6.8c-2.1-4.1-3-9.1-2.5-14.1c0.6-5.6,2.8-11.2,6.4-16c3.7-5,8.3-8.5,13.2-10.1
		c5.6-1.8,11.5-1,16.2,2.2c3.8,2.6,6.9,7,8.9,12.3c2.9,8.1,2.7,17.7-0.5,25.8c0,0,0,0,0,0h3.9C165.5,382,157.6,359.7,142.7,353z"/>
	<path id="XMLID_47_" class="st3" d="M156.5,374.2c-1.9-5.3-5.1-9.7-8.9-12.3c-4.7-3.2-10.6-4-16.2-2.2c-4.9,1.6-9.5,5.1-13.2,10.1
		c-3.6,4.9-5.8,10.4-6.4,16c-0.5,5,0.4,10.1,2.5,14.1h7.4c-0.4-0.4-0.8-0.8-1.1-1.2c-2.4-3-3.6-7.6-3.1-12.2c0.5-5.4,3-9.8,5.1-12.5
		c3-4,6.6-6.8,10.4-8c4.1-1.3,8.4-0.8,11.7,1.5c2.7,1.9,5,5.1,6.5,9.1c2.3,6.4,2.2,14.1-0.4,20.6c-0.4,0.9-0.8,1.9-1.3,2.8h6.5
		c0,0,0,0,0,0C159.2,391.9,159.4,382.3,156.5,374.2z"/>
	<path id="XMLID_46_" class="st3" d="M146,378.2c-3.1-4.3-8.3-6.3-12.8-4.9c-2.1,0.6-4.1,2-5.9,4c-2.1,2.2-3.5,4.6-4.1,7.2
		c-0.9,3.4-0.4,7,1.4,9.5c2.1,3.1,5.9,4.2,8.9,2.6c1.7-0.9,3-2.8,3.4-5c0.4-2.1,0.1-4.2-1-5.8c-1-1.4-2.8-1.7-4-0.6
		c-1.3,1.1-1.5,3.2-0.5,4.6c0.1,0.2-0.1,0.8-0.3,0.9c-0.5,0.3-1.4-0.1-1.8-0.7c-0.6-0.8-0.7-2.3-0.4-3.6c0.4-1.4,1.2-2.8,2.5-4.1
		c1.2-1.3,2.4-2.1,3.6-2.5c2.4-0.7,5.2,0.4,6.9,2.7c1.7,2.3,2.3,5.8,1.7,9.1c-0.6,3.1-2.5,6.2-5,8.3c-0.1,0.1-0.2,0.1-0.2,0.2h8
		c1.3-2.2,2.3-4.5,2.8-7C149.9,387.7,148.8,382.1,146,378.2z"/>
	<path id="XMLID_45_" class="st3" d="M105.8,380.6c2.3-11.9,9.9-21.7,21-26.8c2.1-0.9,6.7-2.2,10.4-2.8c-8-2-16.1-0.6-23,3.3
		c-7.2,6.3-12.2,14.9-14.1,24.8c-1.3,7-0.9,14.4,1.1,20.8h6.2C105.2,394.3,104.5,387.3,105.8,380.6z"/>
</g>
<g id="XMLID_40_" class="st0">
	<path id="XMLID_43_" class="st5" d="M20.6,394.7c0.9-2.9,1.8-6,2.3-9.1c1-6.5-7.7-10-9.4-3.6c-1.2,4.7,1.9,6.5,0.9,7.5
		c-2.1,2.1-3-4.7-7.6-4.8c-2.8-0.1-8.5,2.4,0.3,11.8c-0.2,0.1-2.4,1.6-4.2,3.4H16C17.4,398.1,19,396.3,20.6,394.7z"/>
	<path id="XMLID_42_" class="st9" d="M42.1,397.3c-4.5-4.9-7.7-7.1-13.5-6.8c-3,0.1-5.6,1.9-8,4.3c-1.6,1.6-3.1,3.4-4.6,5.2h27
		c0.3-0.3,0.5-0.6,0.8-0.9L42.1,397.3z"/>
	<path id="XMLID_41_" class="st5" d="M42.9,399.9h1.6l-0.8-0.9C43.5,399.3,43.2,399.6,42.9,399.9z"/>
</g>
<g id="XMLID_27_" class="st0">
	<path id="XMLID_39_" class="st5" d="M70.1,76.3c-0.8,1.6-1.5,3.3-2.1,5c-2.2,6.3,5.1,11,8.6,5.5c2.6-4,0.5-6.8,3.8-8.9
		c0.8-0.5,2.2,4.3,4.1,6c2.2,2,10.8,0.6,3.8-10.7c0.6,0,1.2-0.1,1.8-0.3c3.1-0.6,5.2-5.6-1.7-7l-7.8-2c-1.7,2.7-3.8,5.2-5.7,7.6
		C73.4,73.3,71.8,75,70.1,76.3z"/>
	<path id="XMLID_38_" class="st5" d="M16,0C11.4,0.2,6.9,0.5,2.4,0.5C0.1,3-1.4,5.9,2.3,7.1C3.6,7.5,7.8,7.4,9,7.2L10.2,7
		c1.3-1.5,2.6-3.1,4-4.7C14.8,1.5,15.4,0.8,16,0z"/>
	<path id="XMLID_37_" class="st5" d="M16,0L16,0L2.9,0C2.7,0.2,2.6,0.4,2.4,0.5C6.9,0.5,11.4,0.2,16,0z"/>
	<path id="XMLID_36_" class="st9" d="M43.2,69.3l4.2,4.5c4.5,4.9,7.2,6.5,12.9,6.2c3.7-0.1,6.9-1.5,9.9-3.7c1.7-1.3,3.3-2.9,4.9-4.8
		c1.9-2.4,4-4.9,5.7-7.6c2.9-4.4,4.9-9.1,4-14c-6.6,7.1-15,12.8-24.7,16.2C54.4,68,48.7,69.1,43.2,69.3z"/>
	<path id="XMLID_35_" class="st6" d="M51.4,28.8c-0.2,0.1-0.3,0.3-0.5,0.4c0.1,0,0.2-0.1,0.2-0.2C51.2,28.9,51.3,28.9,51.4,28.8z"/>
	<path id="XMLID_34_" class="st9" d="M14.2,2.3c-1.3,1.6-2.7,3.2-4,4.7c-3.7,4.4-6.5,8.7-5.5,14.6c3.7-0.5,7.5-1.4,11.3-2.7
		C26.8,15,36,8.3,42.9,0H16l0,0C15.4,0.8,14.8,1.5,14.2,2.3z"/>
	<path id="XMLID_33_" class="st5" d="M52.2,57.6c-5.7,2-11.4,3-16.9,3.2l7.9,8.5c5.5-0.2,11.2-1.2,16.9-3.2
		c9.7-3.4,18.1-9.1,24.7-16.2c-0.7-4.3-2.4-8.4-5-11.9C72.8,46.7,63.3,53.7,52.2,57.6z"/>
	<path id="XMLID_32_" class="st9" d="M66.6,30.5c-0.4,0.5-0.9,1-1.4,1.4c-0.4,0.4-0.7,0.7-1.1,1.1c-3.8,3.6-8,6.8-12.7,9.4
		c-0.9,0.5-1.8,1-2.7,1.4c-0.9,0.5-1.8,0.9-2.7,1.3c-1.3,0.6-2.7,1.1-4.1,1.6c-0.5,0.2-1,0.3-1.5,0.5c-0.4,0.2-0.9,0.3-1.3,0.4
		c-0.5,0.2-1.1,0.3-1.6,0.5c-0.6,0.2-1.3,0.3-1.9,0.5c-0.7,0.2-1.4,0.3-2.1,0.4c-0.7,0.1-1.4,0.3-2.1,0.4c-0.6,0.1-1.2,0.2-1.9,0.2
		c-0.8,0.1-1.6,0.2-2.3,0.2c-0.7,0.1-1.4,0.1-2.1,0.1l10.2,10.9c5.5-0.2,11.2-1.2,16.9-3.2C63.3,53.7,72.8,46.7,79.8,38
		c-0.5-0.7-1.1-1.4-1.7-2.1l-8.4-9c-0.5,0.7-1.1,1.3-1.6,2C67.6,29.5,67.1,30,66.6,30.5z"/>
	<path id="XMLID_31_" class="st5" d="M59.9,20.8c-0.3,0.3-0.5,0.6-0.8,0.9c-0.2,0.2-0.3,0.3-0.5,0.5c-0.2,0.3-0.5,0.5-0.7,0.8
		c-0.2,0.2-0.4,0.4-0.6,0.6c-0.8,0.8-1.6,1.5-2.4,2.3c-0.4,0.3-0.7,0.7-1.1,1c-0.6,0.5-1.2,1-1.9,1.5c-0.2,0.1-0.3,0.3-0.5,0.4
		c-0.1,0.1-0.2,0.2-0.3,0.2c-0.1,0.1-0.1,0.1-0.2,0.2c-0.5,0.4-1,0.7-1.5,1.1c-1.8,1.3-3.7,2.5-5.7,3.6c-0.5,0.3-1,0.5-1.5,0.8
		c-1.6,0.8-3.3,1.6-5,2.3c-0.5,0.2-1,0.4-1.5,0.6c-0.5,0.2-1,0.4-1.5,0.6c-0.8,0.3-1.7,0.6-2.5,0.8c-0.7,0.2-1.4,0.4-2.2,0.6
		c-0.3,0.1-0.7,0.2-1,0.2C28,40,27.6,40,27.3,40.1c0,0-0.1,0-0.1,0c-0.4,0.1-0.9,0.2-1.3,0.3c0,0-0.1,0-0.1,0
		c-0.2,0.1-0.4,0.1-0.7,0.1c-1.9,0.4-3.9,0.6-5.8,0.8c-0.5,0-1,0.1-1.5,0.1c-0.1,0-0.2,0-0.3,0c-0.1,0-0.2,0-0.3,0l7.9,8.5
		c0.7,0,1.4-0.1,2.1-0.1c0.8-0.1,1.6-0.1,2.3-0.2c0.6-0.1,1.2-0.1,1.9-0.2c0.7-0.1,1.4-0.2,2.1-0.4c0.7-0.1,1.4-0.3,2.1-0.4
		c0.6-0.2,1.3-0.3,1.9-0.5c0.5-0.1,1.1-0.3,1.6-0.5c0.5-0.1,0.9-0.3,1.3-0.4c0.5-0.2,1-0.3,1.5-0.5c1.4-0.5,2.7-1,4.1-1.6
		c0.9-0.4,1.8-0.8,2.7-1.3c0.9-0.4,1.8-0.9,2.7-1.4c4.7-2.6,9-5.8,12.7-9.4c0.4-0.3,0.7-0.7,1.1-1.1c0.5-0.5,0.9-0.9,1.4-1.4
		c0.5-0.5,1-1,1.4-1.6c0.6-0.6,1.1-1.3,1.6-2l-7.9-8.5c-0.4,0.5-0.9,1.1-1.3,1.6L59.9,20.8z"/>
	<path id="XMLID_30_" class="st9" d="M23.9,27.2c-0.3,0.1-0.7,0.2-1,0.3c-0.3,0.1-0.7,0.2-1,0.3c-2.2,0.7-4.4,1.2-6.6,1.6
		c-0.5,0.1-1,0.2-1.5,0.3c-0.6,0.1-1.3,0.2-1.9,0.3c-0.6,0.1-1.2,0.1-1.8,0.2c-0.1,0-0.2,0-0.3,0c-0.6,0.1-1.2,0.1-1.8,0.1
		c1,1.7,2.1,3.3,3.5,4.7l5.8,6.3c0.1,0,0.2,0,0.3,0c0.1,0,0.2,0,0.3,0c0.5,0,1,0,1.5-0.1c1.9-0.1,3.9-0.4,5.8-0.8
		c0.2,0,0.4-0.1,0.7-0.1c0,0,0.1,0,0.1,0c0.4-0.1,0.9-0.2,1.3-0.3c0,0,0.1,0,0.1,0c0.4-0.1,0.7-0.2,1.1-0.3c0.4-0.1,0.7-0.2,1-0.2
		c0.7-0.2,1.4-0.4,2.2-0.6c0.8-0.3,1.7-0.5,2.5-0.8c0.5-0.2,1-0.4,1.5-0.6c0.5-0.2,1-0.4,1.5-0.6c1.7-0.7,3.4-1.5,5-2.3
		c0.5-0.3,1-0.5,1.5-0.8c2-1.1,3.9-2.3,5.7-3.6c0.5-0.4,1-0.7,1.5-1.1c0.2-0.1,0.3-0.3,0.5-0.4c0.2-0.1,0.4-0.3,0.5-0.4
		c0.6-0.5,1.3-1,1.9-1.5c0.4-0.3,0.8-0.7,1.1-1c0.8-0.7,1.6-1.5,2.4-2.3c0.2-0.2,0.4-0.4,0.6-0.6c0.3-0.3,0.5-0.5,0.7-0.8
		c0.2-0.2,0.3-0.3,0.5-0.5c0.3-0.3,0.5-0.6,0.8-0.9l0.6-0.7c0.5-0.5,0.9-1.1,1.3-1.6L51.6,7.6C44.6,16.3,35.1,23.3,23.9,27.2z"/>
	<path id="XMLID_29_" class="st5" d="M44.6,0h-0.4C44.3,0,44.4,0,44.6,0L44.6,0z"/>
	<path id="XMLID_28_" class="st5" d="M4.8,21.5c0.5,3.1,1.6,6.2,3.2,8.9c0.6,0,1.2-0.1,1.8-0.1c0.1,0,0.2,0,0.3,0
		c0.6-0.1,1.2-0.1,1.8-0.2c0.6-0.1,1.3-0.2,1.9-0.3c0.5-0.1,1-0.2,1.5-0.3c2.2-0.4,4.4-1,6.6-1.6c0.3-0.1,0.7-0.2,1-0.3
		c0.3-0.1,0.7-0.2,1-0.3c11.2-3.9,20.7-10.9,27.7-19.7l-7-7.5c-0.2,0-0.3,0-0.5,0h-1.2C36,8.3,26.8,15,16,18.8
		C12.3,20.1,8.5,21,4.8,21.5z"/>
</g>
<g id="XMLID_7_" class="st0">
	<path id="XMLID_107_" class="st8" d="M388.4,155.3c-3.5,1.1-6.7,3.6-9.4,7.2c-1.8,2.4-4.1,6.4-4.5,11.3c-0.4,4.1,0.6,8.2,2.8,11
		c1.9,2.3,4.7,3.8,7.6,3.9c2.8,0.1,5.8-1,8.2-3c2.3-2,3.9-4.7,4.5-7.5c0.6-2.9,0-6.1-1.5-8.1c-1.5-2.1-4.1-3.1-6.2-2.5
		c-1,0.3-2.1,1.1-3.2,2.2c-1.2,1.2-1.9,2.5-2.2,3.7c-0.3,1.2-0.2,2.5,0.4,3.2c0.4,0.6,1.2,0.9,1.7,0.6c0.2-0.1,0.4-0.6,0.3-0.8
		c-0.9-1.3-0.6-3.2,0.5-4.2c1.1-1,2.8-0.7,3.6,0.6c1,1.4,1.3,3.3,0.9,5.2c-0.4,2-1.5,3.7-3.1,4.5c-2.6,1.5-6.1,0.5-8-2.3
		c-1.6-2.3-2-5.5-1.2-8.6c0.6-2.3,1.8-4.5,3.7-6.4c1.7-1.8,3.5-3,5.3-3.6c4-1.3,8.6,0.5,11.4,4.2v-8.6c-0.3-0.3-0.7-0.6-1-0.8
		C396,154.6,392.1,154.1,388.4,155.3z"/>
	<path id="XMLID_108_" class="st8" d="M392.2,141.8c-3.4,0.5-7.5,1.7-9.4,2.5c-10,4.6-16.8,13.3-18.9,24.1
		c-1.2,6.5-0.5,13.3,2.1,18.7c3.8,8,11.5,12.2,20.1,10.8c2.4-0.4,4.5-1,6.4-1.8c2.8-1.2,5.4-3.2,7.5-5.6V186c-1,1.6-2.3,3.1-3.8,4.4
		c-3.4,2.9-7.5,4.4-11.5,4.2c-4.3-0.2-8.4-2.3-11.2-5.8c-3.2-4-4.7-9.8-4.2-15.7c0.5-5,2.5-10,5.7-14.4c3.3-4.5,7.5-7.7,11.9-9.1
		c4.4-1.4,9.1-1.1,13,1V145c-0.9-0.6-1.9-1.1-2.8-1.6C395.5,142.7,393.9,142.2,392.2,141.8z"/>
	<path id="XMLID_109_" class="st8" d="M393.2,202.1c-1.9,0.7-4,1.3-6.4,1.7c-10.8,1.7-20.5-3.6-25.4-13.9
		c-3.1-6.6-4.1-14.9-2.6-22.8c1.7-8.9,6.1-16.6,12.6-22.3c-11.1,6.3-18.7,19.9-16.4,35.9c0.2,1.6,0.6,3.2,1.1,4.7
		c3,9.5,10.4,17,18.7,20c7.8,2.8,17.4,1.4,25-3.4v-3.8c-1.7,1.4-3.6,2.5-5.6,3.4C394,201.8,393.6,201.9,393.2,202.1z"/>
	<path id="XMLID_110_" class="st5" d="M387,149.6c-4.4,1.4-8.6,4.6-11.9,9.1c-3.3,4.4-5.2,9.4-5.7,14.4c-0.6,5.8,1,11.7,4.2,15.7
		c2.8,3.5,6.9,5.6,11.2,5.8c4,0.2,8.1-1.3,11.5-4.2c1.5-1.3,2.7-2.7,3.8-4.4v-20c-2.8-3.8-7.4-5.5-11.4-4.2
		c-1.9,0.6-3.6,1.8-5.3,3.6c-1.9,2-3.1,4.1-3.7,6.4c-0.8,3.1-0.3,6.3,1.2,8.6c1.9,2.8,5.4,3.8,8,2.3c1.5-0.9,2.7-2.5,3.1-4.5
		c0.4-1.9,0-3.8-0.9-5.2c-0.9-1.3-2.5-1.6-3.6-0.6c-1.1,1-1.4,2.8-0.5,4.2c0.1,0.2-0.1,0.7-0.3,0.8c-0.4,0.3-1.3-0.1-1.7-0.6
		c-0.5-0.8-0.7-2-0.4-3.2c0.3-1.3,1.1-2.5,2.2-3.7c1.1-1.1,2.2-1.9,3.2-2.2c2.1-0.7,4.7,0.4,6.2,2.5c1.5,2.1,2.1,5.2,1.5,8.1
		c-0.6,2.8-2.2,5.5-4.5,7.5c-2.4,2.1-5.4,3.2-8.2,3c-2.9-0.1-5.7-1.6-7.6-3.9c-2.2-2.7-3.2-6.8-2.8-11c0.5-4.9,2.7-8.8,4.5-11.3
		c2.7-3.6,5.9-6.1,9.4-7.2c3.6-1.2,7.6-0.7,10.5,1.3c0.4,0.2,0.7,0.5,1,0.8v-6.9C396.1,148.5,391.5,148.1,387,149.6z"/>
	<path id="XMLID_111_" class="st5" d="M392.5,196.1c-1.9,0.8-4,1.4-6.4,1.8c-8.6,1.4-16.3-2.8-20.1-10.8c-2.5-5.4-3.3-12.2-2.1-18.7
		c2-10.7,8.9-19.5,18.9-24.1c1.9-0.8,6-2,9.4-2.5c-7.2-1.8-14.5-0.5-20.7,3c-6.5,5.7-11,13.4-12.6,22.3c-1.5,7.9-0.6,16.2,2.6,22.8
		c4.9,10.3,14.6,15.6,25.4,13.9c2.3-0.4,4.4-0.9,6.4-1.7c0.4-0.2,0.8-0.3,1.2-0.5c2-0.9,3.9-2,5.6-3.4v-7.7
		C397.9,192.9,395.3,194.8,392.5,196.1z"/>
</g>
<g id="XMLID_6_" class="st0">
	<path id="XMLID_8_" class="st8" d="M11.9,187.8c5.9-15.3,0.2-35-11.9-42.8v5.5c0.6,0.3,1.1,0.6,1.6,1c3.4,2.3,6.2,6.3,8,11.1
		c2.6,7.3,2.4,16-0.4,23.2c-2,5-5.2,9.3-9.1,12.4v3.8C5.2,198.8,9.6,193.9,11.9,187.8z"/>
	<path id="XMLID_9_" class="st8" d="M4.8,164.8c-1.1-3.1-2.8-5.7-4.8-7.4v8.6c0,0.1,0.1,0.1,0.1,0.2c2.6,3.6,3.5,8.5,2.5,13.3
		C2.2,181.8,1.3,184,0,186v4.5c1.8-2.1,3.4-4.5,4.4-7.2C6.7,177.5,6.9,170.6,4.8,164.8z"/>
	<path id="XMLID_10_" class="st5" d="M0.1,166.2c0-0.1-0.1-0.1-0.1-0.2v20c1.3-2,2.2-4.2,2.7-6.6C3.6,174.7,2.7,169.7,0.1,166.2z"/>
	<path id="XMLID_105_" class="st5" d="M9.1,185.8c2.9-7.3,3.1-16,0.4-23.2c-1.7-4.8-4.6-8.7-8-11.1c-0.5-0.4-1.1-0.7-1.6-1v6.9
		c2,1.7,3.7,4.3,4.8,7.4c2.1,5.8,1.9,12.7-0.4,18.5c-1.1,2.7-2.6,5.1-4.4,7.2v7.7C3.9,195.1,7.1,190.8,9.1,185.8z"/>
</g>
<g id="XMLID_1_" class="st0">
	<path id="XMLID_120_" class="st5" d="M361.2,51.6l1.3-8.9c0.5-5.9,4.9-4.4,5.7-1.8c0.2,0.5,0.3,1.1,0.4,1.5
		c8.9-6.4,10.9,0.7,9.4,2.7c-1.2,1.6-5.1,3.1-4.6,3.7c2.1,2.7,4.2,0.8,7.8,2.8c5,2.7,1.8,9.1-3.8,7.6
		C369.6,57.1,361.2,51.6,361.2,51.6z"/>
	<path id="XMLID_119_" class="st5" d="M319,106.7l2,6c0.3,1.1,0.8,4.6,0.6,5.7c-1.2,6-9.1-3.1-9.3-3.5c-7.1,8-9.7,3.2-9.9,0.9
		c-0.3-3.9,5.2-5,3.3-6.7c-0.9-0.8-2.1,2-6.2,1.2c-5.5-1.1-3.5-8.6,2.1-8.1C309.5,102.9,319,106.7,319,106.7z"/>
	<path id="XMLID_118_" class="st4" d="M369.7,80.9c-0.7-4.7-2.1-9.4-4.4-14.1c-3.8-8-9.4-14.8-15.9-20c6.5-1.5,13.3,3.2,19,7.2
		c4.8,3.3,7.9,7.2,8.6,12c0.8,4.9-0.3,7.2-4,11.2L369.7,80.9z"/>
	<path id="XMLID_117_" class="st6" d="M346.3,75.2c0.5,0.7,1,1.4,1.4,2.2C347.3,76.6,346.8,75.9,346.3,75.2z"/>
	<path id="XMLID_116_" class="st6" d="M335.1,76.2c0.1,0,0.1,0.1,0.1,0.2c-0.1-0.1-0.2-0.3-0.4-0.4C335,76,335,76.1,335.1,76.2z"/>
	<path id="XMLID_115_" class="st4" d="M316.3,108.6c-4.8-3.3-10.5-6.8-11.2-11.6c-0.8-4.9,0.8-7.7,4.4-11.7l1.3-1.5
		c8,5.5,14.8,13.1,19.2,22.4c1.5,3.1,2.6,6.3,3.4,9.4C326.8,117.2,322.1,112.7,316.3,108.6z"/>
	<path id="XMLID_114_" class="st5" d="M363.3,87.9c-0.7-4.7-2.1-9.4-4.4-14.1c-4.4-9.2-11.1-16.9-19.1-22.3c2.7-2.4,5.9-4,9.5-4.8
		c6.6,5.2,12.2,12,15.9,20c2.2,4.7,3.7,9.4,4.4,14.1L363.3,87.9z"/>
	<path id="XMLID_113_" class="st7" d="M335.3,76.3c-0.1-0.1-0.2-0.3-0.4-0.4c0.1,0.1,0.2,0.2,0.2,0.2
		C335.2,76.2,335.2,76.3,335.3,76.3z"/>
	<path id="XMLID_112_" class="st4" d="M355.1,97.1c-0.1-0.6-0.2-1.2-0.3-1.8c-0.1-0.7-0.3-1.3-0.4-2c-0.1-0.5-0.2-1-0.4-1.6
		c-0.2-0.6-0.3-1.2-0.5-1.8c-0.2-0.6-0.4-1.2-0.6-1.8c-0.2-0.5-0.4-1.1-0.6-1.6c-0.2-0.4-0.4-0.9-0.5-1.3c-0.1-0.4-0.3-0.7-0.5-1.1
		c-0.2-0.4-0.4-0.8-0.6-1.2c-0.5-1.1-1.1-2.3-1.7-3.4c-0.4-0.8-0.9-1.5-1.3-2.2c-0.5-0.8-0.9-1.5-1.4-2.2c-2.6-3.8-5.7-7.3-9.1-10.3
		c-0.3-0.3-0.7-0.6-1-0.9c-0.4-0.4-0.9-0.7-1.3-1.1c-0.5-0.4-0.9-0.8-1.4-1.1c-0.6-0.4-1.2-0.9-1.8-1.3l6.7-7.5
		c0.5-0.6,1-1.1,1.6-1.6c7.9,5.5,14.7,13.1,19.1,22.3c2.2,4.7,3.7,9.4,4.4,14.1L355.1,97.1z"/>
	<path id="XMLID_106_" class="st5" d="M348.8,104.1c0-0.1,0-0.2,0-0.2c0-0.1,0-0.2,0-0.3c-0.1-0.4-0.1-0.8-0.2-1.3
		c-0.3-1.6-0.7-3.2-1.2-4.9c0-0.2-0.1-0.4-0.2-0.5c0,0,0-0.1,0-0.1c-0.1-0.4-0.2-0.7-0.4-1.1c0,0,0-0.1,0-0.1
		c-0.1-0.3-0.2-0.6-0.3-0.9c-0.1-0.3-0.2-0.6-0.3-0.9c-0.2-0.6-0.5-1.2-0.7-1.8c-0.3-0.7-0.6-1.4-0.9-2.1c-0.2-0.4-0.4-0.9-0.6-1.3
		c-0.2-0.4-0.4-0.8-0.7-1.3c-0.8-1.4-1.6-2.8-2.4-4.1c-0.3-0.4-0.5-0.8-0.8-1.2c-1.1-1.6-2.3-3.2-3.6-4.7c-0.4-0.4-0.7-0.8-1.1-1.2
		c0-0.1-0.1-0.1-0.1-0.2c-0.1-0.1-0.1-0.2-0.2-0.2c-0.1-0.1-0.3-0.3-0.4-0.4c-0.5-0.5-1-1-1.5-1.5c-0.3-0.3-0.6-0.6-0.9-0.9
		c-0.7-0.7-1.4-1.3-2.1-1.9c-0.2-0.2-0.4-0.3-0.6-0.5c-0.2-0.2-0.5-0.4-0.7-0.6c-0.2-0.1-0.3-0.3-0.5-0.4c-0.3-0.2-0.5-0.4-0.8-0.6
		l-0.6-0.5c-0.5-0.4-1-0.7-1.5-1.1l6.3-7.1c0.6,0.4,1.2,0.8,1.8,1.3c0.5,0.4,1,0.7,1.4,1.1c0.5,0.4,0.9,0.7,1.3,1.1
		c0.3,0.3,0.7,0.6,1,0.9c3.4,3,6.5,6.4,9.1,10.3c0.5,0.7,1,1.4,1.4,2.2c0.5,0.7,0.9,1.5,1.3,2.2c0.6,1.1,1.2,2.2,1.7,3.4
		c0.2,0.4,0.4,0.8,0.6,1.2c0.2,0.4,0.3,0.7,0.5,1.1c0.2,0.5,0.4,0.9,0.5,1.3c0.2,0.5,0.4,1.1,0.6,1.6c0.2,0.6,0.4,1.2,0.6,1.8
		c0.2,0.6,0.4,1.2,0.5,1.8c0.1,0.5,0.3,1,0.4,1.6c0.2,0.6,0.3,1.3,0.4,2c0.1,0.6,0.2,1.2,0.3,1.8L348.8,104.1z"/>
	<path id="XMLID_5_" class="st7" d="M335.3,76.3c-0.1-0.1-0.2-0.3-0.4-0.4c0.1,0.1,0.2,0.2,0.2,0.2
		C335.2,76.2,335.2,76.3,335.3,76.3z"/>
	<path id="XMLID_3_" class="st4" d="M340.5,112.5c-0.1-0.5-0.2-1-0.3-1.5c0-0.1,0-0.2,0-0.2c-0.1-0.5-0.2-1-0.3-1.5
		c-0.1-0.5-0.3-1.1-0.4-1.6c-0.1-0.4-0.2-0.9-0.4-1.3c-0.6-1.8-1.2-3.7-2-5.5c-0.1-0.3-0.2-0.6-0.4-0.8c-0.1-0.3-0.3-0.6-0.4-0.8
		c-4.4-9.3-11.2-17-19.2-22.4l8.2-9.1c0.5,0.3,1,0.7,1.5,1.1l0.6,0.5c0.3,0.2,0.5,0.4,0.8,0.6c0.2,0.1,0.3,0.2,0.5,0.4
		c0.2,0.2,0.5,0.4,0.7,0.6c0.2,0.2,0.4,0.3,0.6,0.5c0.7,0.6,1.4,1.2,2.1,1.9c0.3,0.3,0.6,0.6,0.9,0.9c0.5,0.5,1,1,1.5,1.5
		c0.1,0.1,0.3,0.3,0.4,0.4c0.1,0.1,0.3,0.3,0.4,0.4c0.4,0.4,0.7,0.8,1.1,1.2c1.3,1.5,2.5,3,3.6,4.7c0.3,0.4,0.5,0.8,0.8,1.2
		c0.9,1.3,1.7,2.7,2.4,4.1c0.2,0.4,0.4,0.8,0.7,1.3c0.2,0.4,0.4,0.8,0.6,1.3c0.3,0.7,0.6,1.4,0.9,2.1c0.3,0.6,0.5,1.2,0.7,1.8
		c0.1,0.3,0.2,0.6,0.3,0.9c0.1,0.3,0.2,0.6,0.3,0.9c0,0,0,0.1,0,0.1c0.1,0.4,0.3,0.7,0.4,1.1c0,0,0,0,0,0.1c0.1,0.2,0.1,0.4,0.2,0.5
		c0.5,1.6,0.9,3.2,1.2,4.9c0.1,0.4,0.2,0.8,0.2,1.3c0,0.1,0,0.2,0,0.3c0,0.1,0,0.1,0,0.2l-4.7,5.2
		C343.1,110.6,341.8,111.6,340.5,112.5z"/>
	<path id="XMLID_2_" class="st5" d="M333.3,115.6c-0.8-3.1-1.9-6.3-3.4-9.4c-4.4-9.3-11.2-17-19.2-22.4l6.3-7.1
		c8,5.5,14.8,13.1,19.2,22.4c0.1,0.3,0.3,0.6,0.4,0.8c0.1,0.3,0.3,0.6,0.4,0.8c0.8,1.8,1.5,3.6,2,5.5c0.1,0.4,0.3,0.9,0.4,1.3
		c0.2,0.5,0.3,1.1,0.4,1.6c0.1,0.5,0.2,1,0.3,1.5c0,0.1,0,0.2,0,0.2c0.1,0.5,0.2,1,0.3,1.5C338.4,114,335.9,115,333.3,115.6z"/>
</g>
</svg>
