<?xml version="1.0" encoding="utf-8"?>
<!-- Generator: Adobe Illustrator 19.0.0, SVG Export Plug-In . SVG Version: 6.00 Build 0)  -->
<svg version="1.1" id="Layer_1" xmlns="http://www.w3.org/2000/svg" xmlns:xlink="http://www.w3.org/1999/xlink" x="0px" y="0px"
	 viewBox="0 0 250 70.4" style="enable-background:new 0 0 250 70.4;" xml:space="preserve">
<style type="text/css">
	.st0{fill:#BE3A4A;}
</style>
<g id="XMLID_52_">
	<g id="XMLID_220_">
		<g id="XMLID_221_">
			<path id="XMLID_242_" class="st0" d="M52,64.4c0-0.7,0.1-1.4,0.4-2.1c0.2-0.7,0.6-1.3,1.1-1.9c0.5-0.6,1.1-1,1.8-1.4
				c0.7-0.3,1.5-0.5,2.4-0.5c1,0,1.9,0.2,2.7,0.7c0.7,0.5,1.3,1.1,1.6,1.8L61,61.7c-0.3-0.5-0.6-0.9-1-1.2c-0.4-0.3-0.8-0.5-1.2-0.7
				c-0.4-0.1-0.9-0.2-1.3-0.2c-0.7,0-1.3,0.1-1.9,0.4c-0.5,0.3-1,0.7-1.4,1.1c-0.4,0.5-0.6,1-0.8,1.6c-0.2,0.6-0.3,1.2-0.3,1.8
				c0,0.7,0.1,1.3,0.3,1.9c0.2,0.6,0.5,1.1,0.9,1.6c0.4,0.5,0.9,0.8,1.4,1.1c0.5,0.3,1.1,0.4,1.7,0.4c0.4,0,0.9-0.1,1.4-0.2
				c0.5-0.2,0.9-0.4,1.3-0.7c0.4-0.3,0.7-0.7,1-1.2l1,0.5c-0.2,0.6-0.6,1.1-1.1,1.5c-0.5,0.4-1.1,0.7-1.7,0.9
				c-0.6,0.2-1.2,0.3-1.8,0.3c-0.8,0-1.5-0.2-2.2-0.5c-0.7-0.3-1.3-0.8-1.7-1.4c-0.5-0.6-0.9-1.2-1.1-2C52.1,65.9,52,65.1,52,64.4z"
				/>
			<path id="XMLID_239_" class="st0" d="M74.5,70.4c-0.8,0-1.6-0.2-2.2-0.5c-0.7-0.3-1.3-0.8-1.7-1.3c-0.5-0.6-0.9-1.2-1.1-1.9
				C69.1,66,69,65.2,69,64.5c0-0.8,0.1-1.5,0.4-2.2c0.3-0.7,0.7-1.3,1.2-1.9c0.5-0.6,1.1-1,1.8-1.3c0.7-0.3,1.4-0.5,2.2-0.5
				c0.8,0,1.6,0.2,2.2,0.5c0.7,0.3,1.2,0.8,1.7,1.4c0.5,0.6,0.9,1.2,1.1,1.9c0.3,0.7,0.4,1.4,0.4,2.2c0,0.8-0.1,1.5-0.4,2.2
				c-0.3,0.7-0.7,1.3-1.2,1.9c-0.5,0.6-1.1,1-1.8,1.3C76,70.3,75.3,70.4,74.5,70.4z M70.1,64.5c0,0.6,0.1,1.3,0.3,1.8
				c0.2,0.6,0.5,1.1,0.9,1.6c0.4,0.5,0.8,0.8,1.4,1.1c0.5,0.3,1.1,0.4,1.8,0.4c0.7,0,1.3-0.1,1.8-0.4c0.5-0.3,1-0.7,1.4-1.1
				c0.4-0.5,0.7-1,0.9-1.6c0.2-0.6,0.3-1.2,0.3-1.8c0-0.6-0.1-1.3-0.3-1.8c-0.2-0.6-0.5-1.1-0.9-1.6c-0.4-0.5-0.9-0.8-1.4-1.1
				c-0.5-0.3-1.1-0.4-1.8-0.4c-0.7,0-1.3,0.1-1.8,0.4c-0.5,0.3-1,0.6-1.4,1.1c-0.4,0.5-0.7,1-0.9,1.6C70.2,63.3,70.1,63.9,70.1,64.5
				z"/>
			<path id="XMLID_237_" class="st0" d="M89.1,60.8v9.6H88V58.6h1l7.7,9.8v-9.8h1.2v11.7h-1.1L89.1,60.8z"/>
			<path id="XMLID_235_" class="st0" d="M106.5,70.4V58.6h7.7v1h-6.6V64h5.5v1h-5.5v5.4H106.5z"/>
			<path id="XMLID_233_" class="st0" d="M122.1,70.4V58.6h1.2v11.7H122.1z"/>
			<path id="XMLID_231_" class="st0" d="M138.8,60.8c-0.2-0.2-0.4-0.4-0.6-0.5c-0.2-0.1-0.5-0.3-0.7-0.4c-0.3-0.1-0.6-0.2-0.9-0.3
				c-0.3-0.1-0.6-0.1-1-0.1c-1,0-1.8,0.2-2.3,0.6c-0.5,0.4-0.7,0.9-0.7,1.6c0,0.5,0.1,0.8,0.3,1.1c0.2,0.3,0.6,0.5,1.1,0.6
				c0.5,0.2,1.1,0.3,1.9,0.5c0.8,0.2,1.6,0.4,2.2,0.6c0.6,0.2,1.1,0.6,1.4,1c0.3,0.4,0.5,1,0.5,1.7c0,0.5-0.1,1-0.3,1.4
				c-0.2,0.4-0.5,0.7-0.9,1c-0.4,0.3-0.8,0.5-1.3,0.6c-0.5,0.1-1.1,0.2-1.7,0.2c-0.6,0-1.2-0.1-1.7-0.2c-0.6-0.1-1.1-0.3-1.6-0.6
				c-0.5-0.2-1-0.6-1.4-1l0.6-0.9c0.2,0.2,0.5,0.4,0.8,0.6c0.3,0.2,0.6,0.4,1,0.5c0.4,0.2,0.7,0.3,1.2,0.4c0.4,0.1,0.8,0.1,1.3,0.1
				c0.9,0,1.7-0.2,2.2-0.5c0.5-0.3,0.8-0.8,0.8-1.5c0-0.5-0.1-0.9-0.4-1.2c-0.3-0.3-0.7-0.5-1.2-0.7s-1.2-0.4-2-0.5
				c-0.8-0.2-1.5-0.4-2.1-0.6c-0.6-0.2-1-0.5-1.3-0.9c-0.3-0.4-0.4-0.9-0.4-1.5c0-0.7,0.2-1.3,0.5-1.8c0.4-0.5,0.9-0.9,1.5-1.1
				c0.6-0.3,1.4-0.4,2.2-0.4c0.5,0,1,0.1,1.4,0.2c0.4,0.1,0.9,0.3,1.2,0.5c0.4,0.2,0.7,0.4,1.1,0.7L138.8,60.8z"/>
			<path id="XMLID_229_" class="st0" d="M155.7,69.3v1h-7.9V58.6h7.7v1h-6.6v4.2h5.7v1h-5.7v4.5H155.7z"/>
			<path id="XMLID_226_" class="st0" d="M163.6,70.4V58.6h5c0.5,0,1,0.1,1.4,0.3c0.4,0.2,0.8,0.5,1.1,0.9s0.6,0.8,0.7,1.2
				c0.2,0.4,0.3,0.9,0.3,1.3c0,0.6-0.1,1.1-0.3,1.6c-0.2,0.5-0.5,0.9-0.9,1.3c-0.4,0.3-0.9,0.6-1.4,0.7l2.9,4.5H171l-2.8-4.3h-3.5
				v4.3H163.6z M164.8,65h3.8c0.5,0,0.9-0.1,1.2-0.4c0.3-0.3,0.6-0.6,0.8-1c0.2-0.4,0.3-0.9,0.3-1.3c0-0.5-0.1-0.9-0.3-1.3
				c-0.2-0.4-0.5-0.7-0.9-1c-0.4-0.2-0.8-0.4-1.2-0.4h-3.7V65z"/>
			<path id="XMLID_224_" class="st0" d="M180.2,70.4V58.6h1.2v11.7H180.2z"/>
			<path id="XMLID_222_" class="st0" d="M198,69.3v1h-7.9V58.6h7.7v1h-6.6v4.2h5.7v1h-5.7v4.5H198z"/>
		</g>
	</g>
</g>
<g id="XMLID_28_">
	<path id="XMLID_50_" class="st0" d="M51.3,13.9c-0.1,0.3-0.2,0.5-0.4,0.7c-0.2,0.2-0.4,0.2-0.7,0.2c-0.4,0-0.6-0.1-0.9-0.3
		c-0.2-0.2-0.3-0.5-0.3-0.8c0-0.3,0-0.6,0.1-0.9c0.1-0.3,0.1-0.6,0.1-0.9c0-1.5-0.4-2.8-1.3-3.9c-0.9-1.2-2.2-2.1-3.8-2.9
		c-1.6-0.8-3.6-1.4-6-1.8c-2.4-0.4-5-0.6-7.9-0.6c-2.2,0-4.4,0.1-6.7,0.4c-2.2,0.3-4.4,0.7-6.5,1.3c-2.1,0.5-4,1.2-5.8,2.1
		C9.5,7.2,7.9,8.2,6.6,9.3c-1.3,1.1-2.4,2.3-3.1,3.6c-0.8,1.3-1.1,2.8-1.1,4.4c0,1.2,0.3,2.3,0.8,3.2c0.5,0.9,1.3,1.7,2.2,2.4
		c0.9,0.7,2,1.3,3.2,1.8c1.2,0.5,2.6,0.9,4.1,1.2c1.5,0.3,3,0.6,4.6,0.8c1.6,0.2,3.2,0.4,4.8,0.5l4.6,0.4c2.3,0.2,4.4,0.4,6.2,0.6
		c1.8,0.2,3.4,0.5,4.8,0.8c2.3,0.6,4,1.4,5.1,2.5c1.1,1.1,1.6,2.5,1.6,4.3c0,1.7-0.5,3.3-1.4,4.6c-1,1.3-2.3,2.4-3.9,3.3
		c-1.7,0.9-3.6,1.6-5.8,2c-2.2,0.5-4.6,0.7-7.1,0.7c-2.8,0-5.2-0.2-7.3-0.6c-2.1-0.4-3.8-0.8-5.2-1.2c-1.4-0.4-2.5-0.9-3.2-1.2
		C9.4,43.1,9,42.9,9,42.9c-0.4-0.2-0.5-0.5-0.5-1c0-0.3,0.1-0.6,0.4-0.8c0.2-0.2,0.5-0.3,0.8-0.3c0.2,0,0.4,0.1,0.6,0.2
		c0,0,0.4,0.2,1,0.5c0.7,0.3,1.7,0.7,3,1.2c1.3,0.4,3,0.8,4.9,1.1c2,0.3,4.2,0.5,6.8,0.5c2.6,0,4.8-0.2,6.8-0.6c2-0.4,3.6-1,5-1.8
		c1.3-0.7,2.4-1.6,3.1-2.6c0.7-1,1-2.1,1-3.3c0-0.7-0.1-1.3-0.4-1.8c-0.2-0.5-0.6-0.9-1-1.3c-0.4-0.4-1-0.7-1.6-0.9
		c-0.6-0.3-1.3-0.5-2-0.7c-0.8-0.2-1.6-0.4-2.4-0.5c-0.9-0.1-1.8-0.3-2.7-0.4c-0.9-0.1-1.8-0.2-2.8-0.3c-0.9-0.1-1.8-0.2-2.7-0.2
		l-4.6-0.4c-3.6-0.3-6.8-0.8-9.5-1.4c-2.7-0.6-5-1.4-6.8-2.4c-1.8-1-3.1-2.2-4-3.5c-0.9-1.4-1.3-3-1.3-4.8c0-1.9,0.4-3.6,1.3-5.2
		c0.8-1.6,2-3,3.5-4.2c1.5-1.3,3.2-2.3,5.1-3.3c2-0.9,4.1-1.7,6.3-2.3c2.2-0.6,4.6-1.1,6.9-1.4c2.4-0.3,4.7-0.5,7.1-0.5
		c2.9,0,5.4,0.2,7.6,0.5c2.1,0.3,4,0.8,5.5,1.3c1.5,0.5,2.8,1.2,3.8,1.9c1,0.7,1.8,1.4,2.4,2.1c1.4,1.7,2.1,3.5,2.1,5.7
		C51.5,12.6,51.5,13.3,51.3,13.9z"/>
	<path id="XMLID_48_" class="st0" d="M58.4,42c-0.7,1.1-1.5,2-2.4,2.7c-0.9,0.7-1.9,1-2.8,1c-0.8,0-1.4-0.1-2-0.4
		c-0.6-0.3-1.1-0.7-1.6-1.2c-0.4-0.5-0.8-1.1-1-1.8c-0.2-0.7-0.3-1.5-0.3-2.4c0-1.4,0.1-2.6,0.4-3.7c0.3-1.1,0.6-2,0.9-2.7
		c0.3-0.7,0.8-1.5,1.3-2.2c0.1-0.1,0.2-0.2,0.4-0.3c0.1-0.1,0.3-0.1,0.5-0.1c0.3,0,0.6,0.1,0.8,0.3c0.2,0.2,0.3,0.5,0.3,0.8
		c0,0.1,0,0.2-0.1,0.4c-0.1,0.1-0.1,0.2-0.2,0.4c-0.1,0.2-0.3,0.5-0.5,0.8c-0.2,0.4-0.4,0.9-0.7,1.5c-0.2,0.6-0.4,1.3-0.6,2.1
		c-0.2,0.8-0.3,1.7-0.3,2.8c0,1.2,0.2,2.1,0.7,2.7c0.5,0.6,1.1,0.9,2,0.9c0.4,0,0.8-0.1,1.2-0.3c0.5-0.2,0.9-0.6,1.4-1.1
		c0.4-0.5,0.8-1.1,1.2-1.8c0.3-0.7,0.6-1.6,0.7-2.6l0.4-5.1c0-0.3,0.2-0.5,0.4-0.7c0.2-0.2,0.5-0.3,0.8-0.3c0.3,0,0.6,0.1,0.8,0.4
		c0.2,0.2,0.3,0.5,0.3,0.9l-0.4,5c0,0.4,0,1,0,1.6c0.1,0.7,0.2,1.3,0.4,2c0.2,0.7,0.5,1.2,1,1.7c0.4,0.5,1,0.7,1.7,0.7
		c0.5,0,1-0.1,1.5-0.4c0.5-0.3,1-0.6,1.4-1.1c0.5-0.4,0.9-0.9,1.3-1.5c0.4-0.5,0.7-1.1,1.1-1.7c0.3-0.6,0.6-1.1,0.9-1.6
		c0.2-0.5,0.4-0.9,0.6-1.3c0.1-0.2,0.2-0.4,0.4-0.5c0.2-0.1,0.4-0.2,0.6-0.2c0.4,0,0.6,0.1,0.8,0.4c0.2,0.2,0.3,0.5,0.3,0.8
		c0,0.2,0,0.3-0.1,0.4c-0.1,0.2-0.2,0.5-0.5,1c-0.2,0.5-0.5,1.1-0.9,1.7c-0.4,0.6-0.8,1.3-1.3,2.1c-0.5,0.7-1.1,1.4-1.7,2
		c-0.6,0.6-1.3,1.1-2.1,1.5c-0.7,0.4-1.6,0.6-2.4,0.6c-1.2,0-2.2-0.3-2.9-1C59.4,44.2,58.8,43.2,58.4,42z"/>
	<path id="XMLID_46_" class="st0" d="M89.5,37.1c-0.1,0.2-0.3,0.6-0.6,1.2c-0.3,0.6-0.7,1.2-1.2,2c-0.5,0.7-1.1,1.5-1.8,2.3
		c-0.7,0.8-1.5,1.5-2.3,2.1c-0.9,0.6-1.9,1.2-2.9,1.6c-1.1,0.4-2.3,0.6-3.5,0.6c-1.1,0-2.1-0.2-3-0.6c-0.9-0.4-1.6-1-2.2-1.7
		c-0.6-0.7-1.1-1.6-1.4-2.6c-0.3-1-0.5-2.1-0.5-3.4c0-1.2,0.2-2.3,0.5-3.4c0.3-1,0.8-2,1.4-2.7c0.6-0.8,1.3-1.4,2.1-1.8
		c0.8-0.4,1.6-0.7,2.5-0.7c0.7,0,1.3,0.1,1.8,0.3c0.5,0.2,1,0.5,1.4,0.9c0.4,0.4,0.7,0.8,0.9,1.3c0.2,0.5,0.3,0.9,0.3,1.4
		c0,0.4-0.1,0.8-0.2,1.2c-0.1,0.4-0.2,0.7-0.4,1c-0.2,0.3-0.4,0.5-0.6,0.7c-0.2,0.2-0.4,0.3-0.7,0.3c-0.3,0-0.6-0.1-0.8-0.3
		c-0.2-0.2-0.3-0.5-0.3-0.8c0-0.2,0-0.3,0.1-0.4c0.1-0.1,0.1-0.2,0.2-0.4c0.1-0.1,0.2-0.3,0.2-0.5c0.1-0.2,0.1-0.4,0.1-0.7
		c0-0.4-0.2-0.8-0.6-1.1c-0.4-0.3-0.9-0.5-1.5-0.5c-0.6,0-1.1,0.2-1.6,0.5c-0.5,0.3-1,0.8-1.3,1.4c-0.4,0.6-0.7,1.2-0.9,2
		c-0.2,0.8-0.3,1.6-0.3,2.4c0,0.8,0.1,1.6,0.3,2.3c0.2,0.7,0.5,1.4,0.9,2c0.4,0.6,0.9,1,1.5,1.4c0.6,0.3,1.3,0.5,2.2,0.5
		c1.1,0,2.1-0.2,3-0.6c0.9-0.4,1.8-0.9,2.5-1.5c0.8-0.6,1.4-1.3,2-2c0.6-0.7,1.1-1.4,1.5-2c0.4-0.6,0.7-1.2,1-1.6
		c0.2-0.5,0.4-0.8,0.4-0.9c0.1-0.2,0.2-0.4,0.4-0.5c0.2-0.1,0.4-0.2,0.6-0.2c0.3,0,0.6,0.1,0.8,0.4c0.2,0.2,0.3,0.5,0.3,0.8
		C89.6,36.7,89.6,36.9,89.5,37.1z"/>
	<path id="XMLID_43_" class="st0" d="M90.6,33c-0.1,0.5-0.2,1-0.3,1.5c-0.1,0.5-0.2,0.9-0.3,1.2c-0.1,0.3-0.2,0.6-0.3,0.9
		c-0.1,0.2-0.1,0.3-0.1,0.4c-0.2,0.5-0.5,0.7-1,0.7c-0.3,0-0.5-0.1-0.8-0.3c-0.2-0.2-0.4-0.5-0.4-0.8c0-0.1,0-0.2,0.1-0.3
		c0-0.1,0.1-0.2,0.2-0.4c0.1-0.2,0.2-0.5,0.3-0.9s0.3-1.1,0.4-1.9c-0.3,0-0.7,0-1,0c-0.4,0-0.7-0.1-1-0.2c-0.3-0.1-0.6-0.3-0.8-0.6
		c-0.2-0.3-0.3-0.6-0.3-1.1c0-0.3,0.1-0.8,0.3-1.4c0.2-0.6,0.4-1.1,0.8-1.7c0.3-0.6,0.7-1,1.1-1.5c0.4-0.4,0.8-0.6,1.2-0.6
		c0.5,0,0.8,0.2,1.1,0.5c0.3,0.3,0.5,0.8,0.7,1.2c0.2,0.5,0.3,1,0.3,1.5c0.1,0.5,0.1,1,0.1,1.4c0.3,0,0.7,0,1,0c0.3,0,0.6,0,0.9,0
		c1.1,0,2,0.2,2.6,0.7c0.6,0.5,0.9,1.3,0.9,2.5c0,0.5,0,0.9-0.1,1.4c-0.1,0.5-0.1,1-0.2,1.5c-0.1,0.5-0.1,1.1-0.2,1.6
		c-0.1,0.5-0.1,1-0.1,1.5c0,0.7,0.1,1.3,0.3,1.8c0.2,0.5,0.4,0.8,0.7,1.1c0.3,0.3,0.6,0.5,1,0.6c0.3,0.1,0.6,0.2,0.9,0.2
		c0.9,0,1.7-0.3,2.4-0.8c0.8-0.6,1.5-1.2,2.1-2c0.6-0.8,1.2-1.6,1.7-2.5c0.5-0.9,0.9-1.6,1.3-2.3c0.1-0.2,0.2-0.3,0.4-0.4
		c0.2-0.1,0.4-0.1,0.6-0.1c0.4,0,0.6,0.1,0.8,0.3c0.2,0.2,0.3,0.5,0.3,0.8c0,0.2,0,0.4-0.1,0.5c-0.5,0.8-1,1.7-1.6,2.8
		c-0.6,1-1.3,2-2.1,2.9c-0.8,0.9-1.7,1.7-2.6,2.3c-1,0.6-2,0.9-3.2,0.9c-0.7,0-1.4-0.1-2-0.4c-0.6-0.3-1.2-0.7-1.7-1.2
		c-0.5-0.5-0.8-1.1-1.1-1.9c-0.3-0.7-0.4-1.6-0.4-2.5c0-1,0.1-2,0.3-3c0.2-1,0.3-1.9,0.3-2.8c0-0.4-0.1-0.7-0.3-0.9
		c-0.2-0.2-0.5-0.3-1.1-0.3c-0.3,0-0.6,0-0.9,0C91.4,33,91,33,90.6,33z M88.6,30.8c0-0.1,0-0.3,0-0.6c0-0.2,0-0.5-0.1-0.7
		c0-0.2-0.1-0.4-0.1-0.6c-0.1-0.2-0.1-0.2-0.2-0.2c-0.1,0-0.1,0.1-0.2,0.2c-0.1,0.1-0.2,0.3-0.3,0.5c-0.1,0.2-0.2,0.4-0.3,0.7
		c-0.1,0.2-0.1,0.4-0.2,0.6H88.6z"/>
	<path id="XMLID_40_" class="st0" d="M109.7,42.1c0.4,0.6,1,1,1.6,1.4c0.7,0.3,1.5,0.5,2.4,0.5c1,0,1.9-0.2,2.7-0.7
		c0.8-0.5,1.5-1.1,2.2-1.8s1.2-1.6,1.8-2.5c0.5-0.9,1-1.9,1.4-2.8c0.1-0.2,0.2-0.4,0.4-0.5c0.2-0.1,0.4-0.2,0.6-0.2
		c0.3,0,0.6,0.1,0.8,0.4c0.2,0.2,0.3,0.5,0.3,0.8c0,0.1,0,0.2,0,0.3c0,0.1-0.1,0.1-0.1,0.2c-1.4,3-2.9,5.3-4.5,6.9
		c-1.6,1.5-3.5,2.3-5.5,2.4c-1.3,0-2.5-0.3-3.4-0.8c-1-0.5-1.7-1.2-2.4-2c-0.6-0.8-1.1-1.7-1.4-2.7c-0.3-1-0.4-2-0.4-3.1
		c0-1,0.1-2,0.4-2.8c0.2-0.9,0.6-1.6,1.1-2.2c0.5-0.6,1-1.1,1.7-1.5c0.6-0.4,1.4-0.5,2.1-0.5c0.5,0,0.9,0.1,1.4,0.3
		c0.4,0.2,0.9,0.5,1.2,0.8c0.4,0.3,0.6,0.8,0.9,1.3c0.2,0.5,0.3,1.1,0.3,1.7c0,0.8-0.1,1.6-0.4,2.3c-0.3,0.7-0.7,1.4-1.2,2
		c-0.5,0.6-1.1,1.2-1.8,1.7C111.2,41.2,110.4,41.7,109.7,42.1z M108.8,40.1c0.6-0.3,1.2-0.6,1.7-1c0.5-0.4,0.9-0.8,1.3-1.3
		c0.4-0.5,0.6-1,0.8-1.5c0.2-0.5,0.3-1.1,0.3-1.6c0-0.6-0.1-1.1-0.4-1.4c-0.3-0.3-0.6-0.5-1-0.5c-0.5,0-1,0.1-1.4,0.4
		c-0.4,0.3-0.7,0.7-0.9,1.2c-0.2,0.5-0.4,1-0.5,1.6c-0.1,0.6-0.2,1.2-0.2,1.8c0,0.4,0,0.7,0.1,1.1C108.6,39.4,108.7,39.8,108.8,40.1
		z"/>
	<path id="XMLID_37_" class="st0" d="M172.6,8.7c0.3,0,0.6,0.1,0.8,0.3c0.2,0.2,0.3,0.5,0.3,0.8c0,0.4-0.2,0.8-0.6,1
		c-0.1,0-0.3,0.2-0.8,0.6c-0.5,0.3-1,0.9-1.5,1.6c-0.6,0.8-1.1,1.8-1.6,3c-0.5,1.2-0.8,2.8-1,4.6c0,0.3-0.1,0.6-0.1,1
		c0,0.3,0,0.6,0,1c0.4,0,0.7-0.1,1.1-0.1c0.4,0,0.8,0,1.2,0c1.4,0,2.8,0.2,4.2,0.5c1.3,0.3,2.6,0.8,3.7,1.4c2.9-1.2,5.1-2.7,6.6-4.6
		c1.5-1.9,2.3-4.1,2.3-6.4c0-1.8-0.4-3.3-1.3-4.7c-0.9-1.4-2.1-2.5-3.7-3.5c-1.6-0.9-3.5-1.7-5.7-2.2c-2.2-0.5-4.6-0.7-7.3-0.7
		c-2.3,0-4.6,0.2-7,0.5c-2.4,0.3-4.7,0.9-6.9,1.6c-2.2,0.7-4.3,1.6-6.3,2.6c-2,1-3.7,2.2-5.1,3.6c-1.5,1.3-2.6,2.8-3.4,4.5
		c-0.8,1.7-1.3,3.5-1.3,5.4c0,1.4,0.2,2.7,0.7,3.8c0.5,1.1,1.2,2,2,2.7c0.8,0.7,1.8,1.3,2.9,1.6c1.1,0.4,2.2,0.6,3.4,0.6
		c1.4,0,2.6-0.1,3.7-0.4c1.1-0.3,1.9-0.6,2.7-0.9c0.7-0.3,1.3-0.6,1.6-0.9c0.4-0.3,0.6-0.5,0.6-0.5c0.1-0.1,0.3-0.2,0.5-0.3
		c0.2-0.1,0.4-0.2,0.6-0.2c0.3,0,0.6,0.1,0.8,0.3c0.2,0.2,0.3,0.5,0.3,0.8c0,0.3-0.1,0.6-0.3,0.8c0,0-0.3,0.3-0.8,0.6
		c-0.5,0.4-1.1,0.8-2,1.2c-0.9,0.4-2,0.8-3.2,1.2c-1.3,0.4-2.7,0.5-4.4,0.5c-1.5,0-3-0.2-4.3-0.7c-1.4-0.5-2.6-1.2-3.6-2.2
		c-1-0.9-1.9-2.1-2.5-3.4c-0.6-1.3-0.9-2.9-0.9-4.6c0-1.9,0.4-3.7,1.2-5.5c0.8-1.7,1.9-3.4,3.3-4.9c1.4-1.5,3.1-2.9,5.1-4.1
		c2-1.2,4.2-2.3,6.5-3.2c2.4-0.9,4.9-1.6,7.7-2c2.7-0.5,5.6-0.7,8.5-0.7c3,0,5.7,0.3,8.2,0.9c2.5,0.6,4.6,1.4,6.4,2.5
		c1.8,1.1,3.2,2.5,4.2,4.1c1,1.6,1.5,3.4,1.5,5.5c0,2.7-0.8,5.1-2.3,7.3c-1.5,2.2-3.8,4-6.8,5.5c1.1,0.9,2,2,2.6,3.3
		c0.6,1.2,1.1,2.5,1.4,3.8c0.3,1.3,0.5,2.5,0.6,3.7c0.1,1.2,0.2,2.1,0.2,2.9c0,1.1,0.1,2.1,0.3,2.8c0.2,0.7,0.4,1.3,0.7,1.7
		c0.3,0.4,0.7,0.7,1.1,0.8c0.4,0.1,1,0.2,1.6,0.2c0.9,0,1.7-0.2,2.5-0.6c0.8-0.4,1.4-1,2.1-1.6c0.6-0.6,1.1-1.3,1.6-2.1
		c0.5-0.7,0.9-1.4,1.2-2.1c0.3-0.6,0.6-1.2,0.7-1.6c0.2-0.4,0.3-0.7,0.3-0.7c0.2-0.5,0.5-0.7,1-0.7c0.3,0,0.6,0.1,0.8,0.3
		c0.2,0.2,0.3,0.5,0.3,0.8c0,0.1,0,0.2-0.1,0.4c0,0.1-0.1,0.4-0.3,0.9c-0.2,0.5-0.5,1.2-0.9,1.9c-0.4,0.7-0.9,1.6-1.5,2.4
		c-0.6,0.9-1.3,1.7-2.1,2.4c-0.8,0.7-1.7,1.3-2.7,1.8c-1,0.5-2.1,0.7-3.3,0.7c-1.1,0-1.9-0.2-2.6-0.5c-0.7-0.3-1.3-0.8-1.7-1.5
		c-0.4-0.6-0.8-1.4-1-2.4c-0.2-0.9-0.3-2-0.4-3.2c0-0.5-0.1-1.1-0.1-1.8c0-0.7-0.1-1.4-0.2-2.2c-0.1-0.8-0.3-1.6-0.5-2.4
		c-0.2-0.8-0.5-1.6-0.8-2.4c-0.4-0.8-0.8-1.5-1.3-2.2c-0.5-0.7-1.2-1.3-2-1.8c-1.5,0.5-3.1,0.9-4.8,1.2c-1.6,0.3-3.3,0.4-5.1,0.5
		v0.9c0,2.5-0.2,4.8-0.7,6.9c-0.5,2.1-1.3,4-2.4,5.6c-1.1,1.6-2.5,2.8-4.3,3.7c-1.7,0.9-3.9,1.4-6.3,1.4c-1.2,0-2.5-0.2-3.7-0.5
		c-1.2-0.3-2.3-0.8-3.4-1.4c-1-0.6-2-1.3-2.8-2.1c-0.8-0.8-1.5-1.6-2-2.6c-0.1-0.2-0.1-0.3-0.1-0.5c0-0.3,0.1-0.5,0.3-0.8
		c0.2-0.2,0.5-0.3,0.8-0.3c0.4,0,0.8,0.2,1,0.6c0.4,0.8,1,1.5,1.7,2.2c0.7,0.7,1.5,1.2,2.3,1.7c0.9,0.5,1.8,0.8,2.8,1.1
		c1,0.3,2,0.4,3,0.4c2.1,0,3.8-0.4,5.3-1.1c1.5-0.7,2.6-1.8,3.6-3.1c0.9-1.3,1.6-3,2-4.8c0.4-1.9,0.6-4,0.6-6.3v-1.2
		c-0.7-0.2-1.2-0.5-1.6-0.9c-0.4-0.4-0.6-0.9-0.6-1.5c0-0.6,0.2-1.1,0.6-1.5c0.4-0.4,0.9-0.8,1.6-1.1c0-0.5,0-0.9,0-1.4
		c0-0.4,0-0.9,0.1-1.3c0.1-1.4,0.3-2.7,0.7-3.9c0.3-1.1,0.7-2.1,1.2-3c0.4-0.9,0.9-1.6,1.4-2.2c0.5-0.6,0.9-1.1,1.3-1.5
		c0.4-0.4,0.8-0.7,1-0.9c0.3-0.2,0.4-0.3,0.5-0.3C172.3,8.7,172.4,8.7,172.6,8.7z M175.5,25.4c-0.3-0.1-0.7-0.2-1-0.3
		c-0.3-0.1-0.7-0.2-1-0.3c-0.4-0.1-0.8-0.1-1.2-0.2c-0.4,0-1-0.1-1.5-0.1c-1,0-1.9,0.1-2.5,0.2v0v1.4c1.2,0,2.5-0.1,3.8-0.2
		C173.2,25.9,174.4,25.7,175.5,25.4z"/>
	<path id="XMLID_34_" class="st0" d="M211.1,42.1c-0.5,0-0.9,0-1.3-0.1c-0.3,0.6-0.7,1.2-1.1,1.7c-0.4,0.5-0.9,1-1.5,1.3
		c-0.5,0.4-1.2,0.7-1.8,0.9c-0.7,0.2-1.4,0.3-2.2,0.3c-0.9,0-1.8-0.2-2.6-0.5c-0.8-0.3-1.5-0.8-2-1.4c-0.6-0.6-1-1.3-1.3-2.1
		c-0.3-0.8-0.5-1.7-0.5-2.7c0-1.3,0.2-2.4,0.7-3.3c0.5-0.9,1-1.7,1.6-2.4c0.6-0.6,1.2-1.1,1.8-1.4c0.6-0.3,1-0.5,1.3-0.5
		c0.3,0,0.6,0.1,0.8,0.3c0.2,0.2,0.3,0.4,0.3,0.7c0,0.3-0.1,0.6-0.3,0.8c-0.2,0.2-0.5,0.3-0.8,0.5c-0.3,0.2-0.7,0.4-1,0.7
		c-0.4,0.3-0.7,0.7-1,1.1c-0.3,0.4-0.6,1-0.8,1.6c-0.2,0.6-0.3,1.3-0.3,2c0,0.7,0.1,1.3,0.3,1.8c0.2,0.6,0.5,1.1,0.9,1.5
		c0.4,0.4,0.8,0.7,1.3,1c0.5,0.2,1.1,0.3,1.7,0.3c1.1,0,2.1-0.3,2.8-0.8c0.7-0.5,1.3-1.2,1.7-2c-1.2-0.6-2.1-1.5-2.9-2.6
		c-0.8-1.1-1.1-2.4-1.1-3.8c0-1.1,0.3-2.1,0.8-2.8c0.5-0.7,1.3-1.1,2.2-1.1c0.5,0,1,0.1,1.5,0.4c0.5,0.3,0.9,0.7,1.3,1.2
		c0.4,0.6,0.7,1.3,0.9,2.2c0.2,0.9,0.3,1.9,0.3,3.1c0,0.6-0.1,1.3-0.2,2c0.1,0,0.2,0,0.4,0c0.1,0,0.2,0,0.4,0c0.7,0,1.3-0.1,1.8-0.2
		c0.5-0.2,1-0.4,1.5-0.7c0.4-0.3,0.8-0.7,1.2-1.2c0.3-0.5,0.7-1.1,1-1.7c0.1-0.1,0.2-0.2,0.4-0.3c0.2-0.1,0.4-0.2,0.6-0.2
		c0.3,0,0.5,0.1,0.7,0.3c0.2,0.2,0.3,0.5,0.3,0.8c0,0.2,0,0.3-0.1,0.5c-0.1,0.2-0.2,0.4-0.2,0.5c-0.3,0.6-0.7,1.2-1.2,1.7
		c-0.4,0.5-1,1-1.6,1.4c-0.6,0.4-1.3,0.7-2.1,1C212.8,42,212,42.1,211.1,42.1z M205.9,34.5c0,0.4,0,0.8,0.1,1.2
		c0.1,0.4,0.3,0.8,0.5,1.2c0.2,0.4,0.5,0.8,0.8,1.2c0.3,0.4,0.7,0.7,1.1,0.9c0.1-0.4,0.1-0.8,0.1-1.2c0-0.5,0-1.1-0.1-1.6
		c-0.1-0.6-0.2-1.1-0.3-1.5c-0.1-0.5-0.3-0.8-0.6-1.1s-0.5-0.4-0.8-0.4c-0.1,0-0.3,0.1-0.5,0.3C206,33.5,205.9,33.9,205.9,34.5z"/>
	<path id="XMLID_32_" class="st0" d="M219.9,34.3c-0.1,0.3-0.3,0.7-0.4,1.1c-0.2,0.4-0.4,0.8-0.6,1.3c-0.2,0.3-0.4,0.6-0.6,0.8
		c-0.2,0.2-0.4,0.3-0.7,0.3c-0.3,0-0.6-0.1-0.8-0.3c-0.2-0.2-0.3-0.5-0.3-0.7c0-0.1,0-0.2,0-0.3c0-0.1,0.1-0.2,0.1-0.3
		c0.5-1,0.9-1.9,1.2-2.6c0.2-0.7,0.5-1.5,0.6-2.3c-0.1-0.5-0.2-0.8-0.3-1.2c-0.1-0.3-0.1-0.6-0.1-1c0-0.7,0.1-1.2,0.4-1.6
		c0.3-0.4,0.7-0.6,1.2-0.6c0.5,0,0.8,0.2,1.1,0.6c0.3,0.4,0.4,0.9,0.4,1.5c0,0.3,0,0.6-0.1,1c-0.1,0.3-0.1,0.7-0.2,1.2
		c0.5,1.1,0.9,2.1,1.4,3c0.5,0.9,0.9,1.7,1.2,2.4c0.4,0.7,0.7,1.4,0.9,2.1c0.2,0.6,0.3,1.3,0.3,1.9c0,0.8-0.2,1.6-0.5,2.4
		c-0.3,0.8-0.9,1.4-1.7,1.9c0.1,0,0.2,0,0.3,0c0.1,0,0.2,0,0.3,0c1.1,0,2.2-0.3,3.1-0.8c1-0.5,1.8-1.2,2.6-2
		c0.8-0.8,1.5-1.7,2.1-2.8c0.6-1,1.1-2,1.6-3c0.2-0.5,0.5-0.7,0.8-0.7c0.3,0,0.6,0.1,0.8,0.4c0.2,0.2,0.3,0.5,0.3,0.8
		c0,0.2,0,0.3-0.1,0.4c-0.2,0.5-0.5,1.2-0.9,1.8c-0.3,0.7-0.8,1.4-1.3,2.1c-0.5,0.7-1.1,1.4-1.7,2.1c-0.6,0.7-1.4,1.3-2.1,1.9
		c-0.8,0.5-1.7,1-2.6,1.3c-0.9,0.3-2,0.5-3.1,0.5c-1.3,0-2.6-0.2-3.7-0.7c-1.1-0.5-2.1-1.2-2.8-2.3c-0.1-0.2-0.2-0.4-0.2-0.6
		c0-0.3,0.1-0.6,0.3-0.8c0.2-0.2,0.5-0.3,0.8-0.3c0.3,0,0.6,0.1,0.8,0.3c0,0,0.1,0.1,0.2,0.2c0.1,0.1,0.3,0.2,0.4,0.3
		c0.2,0.1,0.4,0.2,0.6,0.3c0.2,0.1,0.5,0.1,0.7,0.1c0.5,0,0.9-0.1,1.2-0.3c0.3-0.2,0.6-0.4,0.8-0.7c0.2-0.3,0.3-0.6,0.4-0.9
		c0.1-0.3,0.1-0.6,0.1-0.9c0-0.5-0.1-1-0.2-1.5c-0.2-0.5-0.4-1-0.6-1.5c-0.2-0.5-0.5-1-0.8-1.5C220.4,35.4,220.2,34.9,219.9,34.3z"
		/>
	<path id="XMLID_29_" class="st0" d="M235.8,42.1c0.4,0.6,1,1,1.6,1.4c0.7,0.3,1.5,0.5,2.4,0.5c1,0,1.9-0.2,2.7-0.7
		c0.8-0.5,1.5-1.1,2.2-1.8c0.7-0.8,1.2-1.6,1.8-2.5c0.5-0.9,1-1.9,1.4-2.8c0.1-0.2,0.2-0.4,0.4-0.5c0.2-0.1,0.4-0.2,0.6-0.2
		c0.3,0,0.6,0.1,0.8,0.4c0.2,0.2,0.3,0.5,0.3,0.8c0,0.1,0,0.2,0,0.3c0,0.1-0.1,0.1-0.1,0.2c-1.4,3-2.9,5.3-4.5,6.9
		c-1.6,1.5-3.5,2.3-5.5,2.4c-1.3,0-2.5-0.3-3.4-0.8c-1-0.5-1.7-1.2-2.4-2c-0.6-0.8-1.1-1.7-1.4-2.7c-0.3-1-0.4-2-0.4-3.1
		c0-1,0.1-2,0.4-2.8c0.2-0.9,0.6-1.6,1.1-2.2c0.5-0.6,1-1.1,1.7-1.5c0.6-0.4,1.4-0.5,2.1-0.5c0.5,0,0.9,0.1,1.4,0.3
		c0.4,0.2,0.9,0.5,1.2,0.8c0.4,0.3,0.6,0.8,0.9,1.3c0.2,0.5,0.3,1.1,0.3,1.7c0,0.8-0.1,1.6-0.4,2.3c-0.3,0.7-0.7,1.4-1.2,2
		c-0.5,0.6-1.1,1.2-1.8,1.7C237.3,41.2,236.6,41.7,235.8,42.1z M234.9,40.1c0.6-0.3,1.2-0.6,1.7-1c0.5-0.4,0.9-0.8,1.3-1.3
		c0.4-0.5,0.6-1,0.8-1.5c0.2-0.5,0.3-1.1,0.3-1.6c0-0.6-0.1-1.1-0.4-1.4c-0.3-0.3-0.6-0.5-1-0.5c-0.5,0-1,0.1-1.4,0.4
		c-0.4,0.3-0.7,0.7-0.9,1.2c-0.2,0.5-0.4,1-0.5,1.6c-0.1,0.6-0.2,1.2-0.2,1.8c0,0.4,0,0.7,0.1,1.1C234.7,39.4,234.8,39.8,234.9,40.1
		z"/>
</g>
</svg>
