<?xml version="1.0" encoding="utf-8"?>
<!-- Generator: Adobe Illustrator 19.0.0, SVG Export Plug-In . SVG Version: 6.00 Build 0)  -->
<svg version="1.1" id="Drawing" xmlns="http://www.w3.org/2000/svg" xmlns:xlink="http://www.w3.org/1999/xlink" x="0px" y="0px"
	 viewBox="0 0 100 100" style="enable-background:new 0 0 100 100;" xml:space="preserve">
<style type="text/css">
	.st0{fill:#B73644;}
</style>
<path id="XMLID_7_" class="st0" d="M71.3,96.9L59.7,28.4c-0.2-1.3-1.3-2.2-2.6-2.2H15.3c-1.3,0-2.5,1-2.6,2.3l-8,68.6
	c-0.2,1.6,1,2.9,2.6,2.9h61.4C70.3,100,71.5,98.5,71.3,96.9z M28.1,76.7l-0.4,3.6c-0.2,3.2-2.3,2.5-2.6,1.1
	c-0.1-0.3-0.1,2.4-0.2,2.2c-4.1,3.7-5.1-3.1-4.4-4.2c0.6-0.9,2.4-1.8,2.1-2.1c-1-1.4-2-0.3-3.7-1.3c-2.3-1.4-0.9-4.9,1.7-4.2
	c0.7,0.2,1.4,0.4,2.1,0.7c-1.1-1.2-1.7-2.6-2-4.3c-0.4-2.6,0.1-3.9,1.8-6.1L24,60c0.4,2.5,1.1,5,2.2,7.5c1.8,4.2,4.5,7.8,7.7,10.4
	C31.9,78.5,30,77.8,28.1,76.7z M40.2,74.1c-6.5-5-10.9-12.1-11.3-19.1l3.8-5.1C33.9,57.7,39,66.1,44,69.1
	C44,69.1,40.5,73.9,40.2,74.1z M52.8,54c-1.2-0.1-2.5-0.3-3.7-0.6c1.1,1,1.9,2.1,2.1,3.4c0.4,2.6-0.3,4.1-2,6.4L48.6,64
	c-3.8-2.8-7.1-6.7-9.2-11.6c-0.7-1.6-1.3-3.3-1.7-5c1.5-1.4,6.9,1.3,6.9,1.3c-0.1-0.6-1.4-2.5-1.3-3c0.5-3.2,4.3,1.5,4.4,1.7
	c3.3-4.4,4.5-2,4.6-0.7c0.2,2.1-2.4,2.8-1.5,3.7c0.4,0.4,1-1.1,2.9-0.8C56.3,50.1,55.4,54.1,52.8,54z"/>
<path id="XMLID_17_" class="st0" d="M64.5,28.1c1.5,0.7,3.8,1.7,4.7,2.1c0.2,0.1,0.4,0.3,0.4,0.6l10.3,55.5c0,0.2,0,0.5-0.2,0.7
	l-5.3,5.9c-0.4,0.5-1.3,0.2-1.4-0.4l-9.7-63.5C63.3,28.3,64,27.8,64.5,28.1z"/>
<path id="XMLID_18_" class="st0" d="M73.9,29.7l2.9-3.3c0.3-0.4,0.9-0.2,1,0.2l15.7,61.8c0.1,0.5-0.4,0.9-0.8,0.7l-8.1-4.1
	c-0.2-0.1-0.3-0.2-0.3-0.4L73.8,30.2C73.7,30.1,73.8,29.9,73.9,29.7z"/>
<path id="XMLID_20_" class="st0" d="M82.3,88.6l-6.5,8c-0.4,0.5,0.1,1.3,0.7,1.1l14.3-4c0.6-0.2,0.7-1,0.1-1.3l-7.7-4
	C82.9,88.2,82.5,88.3,82.3,88.6z"/>
<path id="XMLID_22_" class="st0" d="M51.3,8.1C51.3,8.1,51.3,8.1,51.3,8.1c-2.1-2-4.1-2.4-4.1-2.4S34.2,1.7,26.5,22
	c-0.1,0.3,0.1,0.7,0.5,0.7h3.7c0.2,0,0.4-0.1,0.5-0.4c0.6-2.1,3.9-12.4,12.4-13.1c0.9-0.1,1.7,0,2.4,0.2c-3.9,1.7-8.5,5.4-9.3,13.6
	c0,0.2,0.2,0.4,0.4,0.4h3.5c0.2,0,0.4-0.2,0.4-0.4c0.9-7.8,4.6-10.9,7.6-12.2c3,3,3.3,9,3.4,10.8c0,0.3,0.2,0.5,0.5,0.5h3.3
	c0.3,0,0.5-0.2,0.5-0.5c-0.1-5.5-1.4-9.1-3.1-11.6c2.3,0.3,11.5,0.7,8.3,12c-0.1,0.3,0.1,0.5,0.4,0.5h2.8c0.2,0,0.4-0.1,0.4-0.3
	C67.7,7.1,54.1,7.7,51.3,8.1z"/>
</svg>
