<?xml version="1.0" encoding="utf-8"?>
<!-- Generator: Adobe Illustrator 19.0.0, SVG Export Plug-In . SVG Version: 6.00 Build 0)  -->
<svg version="1.1" id="Drawing" xmlns="http://www.w3.org/2000/svg" xmlns:xlink="http://www.w3.org/1999/xlink" x="0px" y="0px"
	 viewBox="0 0 100 100" style="enable-background:new 0 0 100 100;" xml:space="preserve">
<style type="text/css">
	.st0{fill:#B73644;}
</style>
<path id="XMLID_17_" class="st0" d="M64.5,28.1c1.5,0.7,3.8,1.7,4.7,2.1c0.2,0.1,0.4,0.3,0.4,0.6l10.3,55.5c0,0.2,0,0.5-0.2,0.7
	l-5.3,5.9c-0.4,0.5-1.3,0.2-1.4-0.4l-9.7-63.5C63.3,28.3,64,27.8,64.5,28.1z"/>
<path id="XMLID_18_" class="st0" d="M73.9,29.7l2.9-3.3c0.3-0.4,0.9-0.2,1,0.2l15.7,61.8c0.1,0.5-0.4,0.9-0.8,0.7l-8.1-4.1
	c-0.2-0.1-0.3-0.2-0.3-0.4L73.8,30.2C73.7,30.1,73.8,29.9,73.9,29.7z"/>
<path id="XMLID_20_" class="st0" d="M82.3,88.6l-6.5,8c-0.4,0.5,0.1,1.3,0.7,1.1l14.3-4c0.6-0.2,0.7-1,0.1-1.3l-7.7-4
	C82.9,88.2,82.5,88.3,82.3,88.6z"/>
<path id="XMLID_22_" class="st0" d="M51.3,8.1L51.3,8.1c-2.1-2-4.1-2.4-4.1-2.4S34.2,1.7,26.5,22c-0.1,0.3,0.1,0.7,0.5,0.7h3.7
	c0.2,0,0.4-0.1,0.5-0.4c0.6-2.1,3.9-12.4,12.4-13.1c0.9-0.1,1.7,0,2.4,0.2c-3.9,1.7-8.5,5.4-9.3,13.6c0,0.2,0.2,0.4,0.4,0.4h3.5
	c0.2,0,0.4-0.2,0.4-0.4c0.9-7.8,4.6-10.9,7.6-12.2c3,3,3.3,9,3.4,10.8c0,0.3,0.2,0.5,0.5,0.5h3.3c0.3,0,0.5-0.2,0.5-0.5
	c-0.1-5.5-1.4-9.1-3.1-11.6c2.3,0.3,11.5,0.7,8.3,12c-0.1,0.3,0.1,0.5,0.4,0.5h2.8c0.2,0,0.4-0.1,0.4-0.3
	C67.7,7.1,54.1,7.7,51.3,8.1z"/>
<path id="XMLID_7_" class="st0" d="M71.3,96.9L59.7,28.4c-0.2-1.3-1.3-2.2-2.6-2.2H15.3c-1.3,0-2.5,1-2.6,2.3l-8,68.6
	c-0.2,1.6,1,2.9,2.6,2.9h61.4C70.3,100,71.5,98.5,71.3,96.9z M51,98.1L51,98.1c-0.6,0.3-1.1,0.3-1.3-0.3
	C45.8,86.8,42,75.2,38.2,63.6c-2.6,0.7-5.2,0.8-7.6,0c-4.3-1.3-8.2-5-10-9.7c-0.3-0.8-0.5-1.6-0.6-2.4c-1.5-8.1,2.1-15.2,7.6-18.7
	c3.1-2,6.8-2.8,10.5-2.1c0.8,0.2,1.7,0.4,2.5,0.7c7.3,2.9,11.3,13.7,8.4,22.3c-1.5,4.3-4.9,7.5-8.8,9.2c3.8,11.5,7.6,23.1,11.5,33.9
	C52,97.5,51.6,97.8,51,98.1z"/>
<path id="XMLID_98_" class="st0" d="M46.4,53.9c-1.5,4.3-4.6,7.9-8.4,9.8c-0.2,0.1-0.4,0.2-0.7,0.3c-1.1,0.5-2.4,0.9-3.7,1.2
	c-6.3,1.3-12.2-1.5-15.3-7.4c-2-3.8-2.8-8.7-2.1-13.4c0.8-5.3,3.3-10,7-13.6c3.6-2.3,7.8-3.2,12.2-2.4c-2,0.4-4.4,1.2-5.5,1.8
	c-5.8,3-9.7,8.4-10.6,14.8c-0.6,3.9,0,7.9,1.7,11c2.5,4.6,7.1,6.9,12.2,5.8c1.4-0.3,2.6-0.7,3.7-1.3c3.1-1.5,5.5-4.4,6.7-7.9
	c1.2-3.5,1.2-7.6-0.2-11c-0.8-2.1-2.1-3.8-3.6-4.7c-1.8-1.1-4.1-1.3-6.3-0.5c-2,0.8-3.9,2.3-5.4,4.6c-1,1.5-2.3,3.9-2.4,6.8
	c-0.1,2.5,0.6,4.9,1.9,6.4c1.2,1.3,2.9,2.1,4.6,2.1c1.7,0,3.4-0.8,4.8-2c1.3-1.2,2.2-2.9,2.5-4.6c0.3-1.8-0.1-3.6-1.1-4.8
	c-1-1.2-2.5-1.7-3.7-1.3c-0.6,0.2-1.2,0.7-1.8,1.4c-0.7,0.8-1.1,1.5-1.2,2.3c-0.2,0.7,0,1.5,0.3,1.9c0.3,0.3,0.7,0.5,1,0.3
	c0.1-0.1,0.2-0.4,0.2-0.5c-0.5-0.7-0.5-1.8,0.2-2.5c0.6-0.6,1.6-0.5,2.2,0.2c0.6,0.8,0.8,1.9,0.7,3c-0.2,1.2-0.8,2.2-1.7,2.8
	c-1.5,1-3.6,0.5-4.8-1.1c-1-1.3-1.3-3.2-0.9-5c0.3-1.4,1-2.7,2.1-3.9c1-1.1,2-1.9,3.1-2.3c2.4-0.9,5.2,0,6.9,2.3
	c1.6,2,2.3,4.9,1.8,7.8c-0.4,2.5-1.7,4.9-3.5,6.7c-1.9,1.8-4.3,2.8-6.7,2.8c-2.5,0-5-1.1-6.8-3.1c-2-2.3-3-5.7-2.8-9.1
	c0.2-3,1.2-6,3.1-8.7c1.9-2.8,4.2-4.8,6.8-5.7c3-1.1,6.1-0.9,8.7,0.7c2.1,1.3,3.8,3.5,5,6.3C47.8,44.3,47.9,49.5,46.4,53.9z"/>
</svg>
