<?xml version="1.0" encoding="utf-8"?>
<!-- Generator: Adobe Illustrator 19.0.0, SVG Export Plug-In . SVG Version: 6.00 Build 0)  -->
<svg version="1.0" id="Calque_1" xmlns="http://www.w3.org/2000/svg" xmlns:xlink="http://www.w3.org/1999/xlink" x="0px" y="0px"
	 viewBox="0 0 548.9 549" style="enable-background:new 0 0 548.9 549;" xml:space="preserve">
<style type="text/css">
	.st0{fill:#FFE7EA;}
	.st1{fill:#BD3D4B;}
	.st2{fill:#DA9D63;}
	.st3{fill:#DEA573;}
	.st4{fill:#C99366;}
	.st5{fill:#C67C47;}
	.st6{fill:#C27544;}
	.st7{fill:#DA9A61;}
	.st8{fill:#D7945D;}
	.st9{fill:#E9B68D;}
	.st10{fill:#E2AD85;}
	.st11{fill:#ED9E9D;}
	.st12{fill:#FFC8CE;}
	.st13{fill:#FD90A1;}
	.st14{fill:#FFE6D7;}
	.st15{fill:#FFCEB2;}
	.st16{fill:none;}
	.st17{fill:#FEC2C8;}
	.st18{fill:#E28695;}
</style>
<g>
	<circle class="st0" cx="274.4" cy="274.5" r="274.5"/>
	<g>
		<g>
			<g>
				<path class="st1" d="M155.8,477.2c0-1.2,0.2-2.3,0.6-3.4s1-2.1,1.8-3.1c0.8-0.9,1.7-1.7,2.8-2.2c1.1-0.5,2.4-0.8,3.8-0.8
					c1.7,0,3.2,0.4,4.4,1.2c1.2,0.8,2.1,1.8,2.7,3l-1.5,0.9c-0.4-0.8-0.9-1.5-1.6-2c-0.6-0.5-1.3-0.8-2-1.1
					c-0.7-0.2-1.4-0.3-2.1-0.3c-1.1,0-2.2,0.2-3,0.7c-0.9,0.5-1.6,1.1-2.2,1.8s-1.1,1.6-1.4,2.6c-0.3,0.9-0.5,1.9-0.5,2.9
					c0,1.1,0.2,2.1,0.5,3c0.4,1,0.9,1.8,1.5,2.6c0.6,0.7,1.4,1.3,2.3,1.8c0.9,0.4,1.8,0.7,2.8,0.7c0.7,0,1.5-0.1,2.2-0.4
					c0.8-0.3,1.5-0.6,2.1-1.2c0.7-0.5,1.2-1.2,1.6-2l1.6,0.8c-0.4,0.9-1,1.8-1.8,2.4c-0.8,0.7-1.7,1.2-2.8,1.5c-1,0.3-2,0.5-3,0.5
					c-1.3,0-2.5-0.3-3.6-0.8c-1.1-0.6-2-1.3-2.8-2.3c-0.8-0.9-1.4-2-1.8-3.2C156,479.6,155.8,478.4,155.8,477.2z"/>
				<path class="st1" d="M192.3,487.1c-1.3,0-2.6-0.3-3.7-0.8c-1.1-0.5-2-1.3-2.8-2.2s-1.4-2-1.8-3.1c-0.4-1.2-0.6-2.3-0.6-3.6
					c0-1.3,0.2-2.5,0.7-3.6c0.4-1.2,1.1-2.2,1.9-3.1c0.8-0.9,1.8-1.6,2.9-2.1c1.1-0.5,2.3-0.8,3.5-0.8c1.3,0,2.6,0.3,3.7,0.8
					c1.1,0.6,2,1.3,2.8,2.2c0.8,0.9,1.4,2,1.8,3.1c0.4,1.1,0.6,2.3,0.6,3.5c0,1.3-0.2,2.5-0.7,3.6c-0.4,1.2-1.1,2.2-1.9,3.1
					c-0.8,0.9-1.8,1.6-2.8,2.1C194.8,486.8,193.6,487.1,192.3,487.1z M185.3,477.4c0,1,0.2,2,0.5,3c0.3,1,0.8,1.8,1.5,2.6
					c0.6,0.7,1.4,1.3,2.2,1.8c0.9,0.4,1.8,0.7,2.9,0.7c1.1,0,2.1-0.2,2.9-0.7c0.9-0.5,1.6-1.1,2.2-1.8c0.6-0.8,1.1-1.6,1.4-2.6
					c0.3-0.9,0.5-1.9,0.5-2.9c0-1-0.2-2-0.5-3c-0.3-0.9-0.8-1.8-1.5-2.6c-0.6-0.8-1.4-1.3-2.2-1.8c-0.9-0.4-1.8-0.6-2.8-0.6
					c-1.1,0-2,0.2-2.9,0.7c-0.9,0.4-1.6,1.1-2.2,1.8c-0.6,0.8-1.1,1.6-1.4,2.6C185.4,475.4,185.3,476.4,185.3,477.4z"/>
				<path class="st1" d="M216.1,471.3v15.6h-1.9v-19.1h1.6l12.5,15.9v-15.9h1.9v19.1h-1.7L216.1,471.3z"/>
				<path class="st1" d="M244.4,486.9v-19.1h12.5v1.7h-10.6v7h9v1.6h-9v8.8H244.4z"/>
				<path class="st1" d="M269.6,486.9v-19.1h1.9v19.1H269.6z"/>
				<path class="st1" d="M296.9,471.4c-0.3-0.3-0.6-0.6-0.9-0.8c-0.4-0.2-0.8-0.5-1.2-0.6c-0.4-0.2-0.9-0.3-1.4-0.4
					c-0.5-0.1-1.1-0.2-1.6-0.2c-1.7,0-2.9,0.3-3.7,1c-0.8,0.6-1.2,1.5-1.2,2.6c0,0.8,0.2,1.3,0.6,1.8c0.4,0.4,0.9,0.8,1.7,1
					c0.8,0.3,1.8,0.5,3,0.8c1.4,0.3,2.5,0.6,3.5,1c1,0.4,1.7,0.9,2.3,1.6c0.5,0.7,0.8,1.6,0.8,2.7c0,0.9-0.2,1.6-0.5,2.3
					c-0.3,0.6-0.8,1.2-1.4,1.6c-0.6,0.4-1.3,0.7-2.2,1c-0.8,0.2-1.8,0.3-2.8,0.3c-1,0-1.9-0.1-2.8-0.3c-0.9-0.2-1.8-0.5-2.6-0.9
					c-0.8-0.4-1.6-0.9-2.3-1.5l0.9-1.5c0.3,0.4,0.7,0.7,1.2,1c0.5,0.3,1,0.6,1.6,0.8c0.6,0.3,1.2,0.4,1.9,0.6
					c0.7,0.1,1.4,0.2,2.1,0.2c1.5,0,2.7-0.3,3.6-0.8c0.9-0.6,1.3-1.4,1.3-2.5c0-0.8-0.2-1.4-0.6-1.9c-0.4-0.5-1.1-0.9-1.9-1.2
					s-1.9-0.6-3.2-0.9c-1.3-0.3-2.4-0.6-3.4-1c-0.9-0.4-1.6-0.9-2.1-1.5c-0.5-0.6-0.7-1.4-0.7-2.5c0-1.2,0.3-2.2,0.9-3
					c0.6-0.8,1.4-1.4,2.4-1.9c1-0.4,2.2-0.6,3.5-0.6c0.8,0,1.6,0.1,2.4,0.3c0.7,0.2,1.4,0.4,2,0.7c0.6,0.3,1.2,0.7,1.7,1.2
					L296.9,471.4z"/>
				<path class="st1" d="M324.2,485.3v1.7h-12.8v-19.1H324v1.7h-10.7v6.9h9.3v1.6h-9.3v7.3H324.2z"/>
				<path class="st1" d="M337.2,486.9v-19.1h8.1c0.8,0,1.6,0.2,2.3,0.5c0.7,0.3,1.3,0.8,1.8,1.4c0.5,0.6,0.9,1.2,1.2,1.9
					c0.3,0.7,0.4,1.4,0.4,2.2c0,0.9-0.2,1.8-0.5,2.6s-0.8,1.5-1.5,2c-0.6,0.6-1.4,0.9-2.2,1.1l4.7,7.4h-2.1l-4.5-7h-5.6v7H337.2z
					 M339.1,478.2h6.2c0.8,0,1.4-0.2,2-0.6c0.6-0.4,1-1,1.3-1.6c0.3-0.7,0.5-1.4,0.5-2.1c0-0.8-0.2-1.5-0.5-2.1
					c-0.3-0.7-0.8-1.2-1.4-1.6c-0.6-0.4-1.2-0.6-1.9-0.6h-6.1V478.2z"/>
				<path class="st1" d="M364.2,486.9v-19.1h1.9v19.1H364.2z"/>
				<path class="st1" d="M393,485.3v1.7h-12.8v-19.1h12.6v1.7h-10.7v6.9h9.3v1.6h-9.3v7.3H393z"/>
			</g>
		</g>
	</g>
	<g>
		<path class="st2" d="M403.5,80.3L403.5,80.3c-0.1,0.1-0.2,0.2-0.3,0.4c-0.1,0.1-0.2,0.2-0.3,0.4c-0.1,0.1-0.1,0.1-0.2,0.2
			c-0.1,0.1-0.1,0.1-0.2,0.2c-0.2,0.2-0.3,0.3-0.5,0.5c-0.1,0.1-0.1,0.1-0.2,0.2c-0.1,0.1-0.3,0.2-0.4,0.3c-0.3,0.2-0.5,0.4-0.8,0.6
			c-0.2,0.1-0.5,0.3-0.7,0.4c-0.4,0.2-0.9,0.4-1.3,0.6c-8.5,3.3-19.2,6.2-23.4,9.3c-1.2,0.9-2.4,1.7-3.5,2.5c0,0,0,0,0,0
			c-1.4,1.1-2.7,2.3-3.6,3.8c0,0,0,0,0,0c-0.2,0.3-0.4,0.7-0.6,1.1c-0.6,1.3-0.9,2.9-0.9,4.9c0.1,1.8,0.2,4,0.3,6.4
			c0.3,6.1,0.6,13.6-0.2,18.4c-0.1,0.3-0.1,0.6-0.2,0.9c0,0,0,0,0,0c0,0.1-0.1,0.3-0.1,0.4c0,0,0,0,0,0c0,0.1-0.1,0.2-0.1,0.4
			c0,0,0,0,0,0l0,0c0,0,0,0,0,0c-1.9,6.1-5,11.9-9.4,17c-3.2,3.6-7,6.8-11.6,9.7C322,173.2,316,172.6,303,176.7
			c-8.3,2.6-15,5.7-20.2,8c-0.4,0.2-0.8,0.4-1.2,0.5c-2.5,1.1-4.6,1.9-6.3,2.4c-10.9,2.7-17.7-0.4-25.3-8.2
			c-7.1-7.3-10.8-14-7.7-22.9c3.1-8.9,39.6-41,39.6-41s16.4-15,32.1-19.7c22.1-6.6,32.1-2.5,37.2-4.2c0.2-0.1,0.3-0.1,0.5-0.2
			c0.2-0.1,0.3-0.1,0.5-0.2c5.2-2.6,15.7-11.5,21.6-17.9c6.1-6.6,13.4-13.9,21.6-10.6c0.6,0.3,1.2,0.5,1.8,0.8
			c0.1,0.1,0.2,0.1,0.3,0.2c1.1,0.6,2,1.2,2.8,1.8c0.3,0.2,0.6,0.5,0.8,0.7c1.2,1,2,2.1,2.5,2.9c0.1,0.1,0.2,0.3,0.3,0.4
			c0.1,0.1,0.1,0.2,0.2,0.3c0.1,0.2,0.2,0.3,0.3,0.5c0.1,0.1,0.1,0.2,0.2,0.3c0.3,0.6,0.4,1,0.4,1s0,0.2,0.1,0.5
			C405.3,73.4,405.6,77.2,403.5,80.3z"/>
		<path class="st3" d="M352.8,119.3c-0.1,0.1-0.2,0.2-0.3,0.3c-3,2.7-6.8,5.4-10.7,8c-0.3,0.2-0.6,0.4-0.9,0.6
			c-9.9,6.5-24.2,11.7-31.7,19.7c-7.5,8-19.9,24.1-27.3,30.3c-7.4,6.1-12.5,10-21.4,4.7c-2.9-1.8-5.3-3.5-7.2-5.3
			c-3.3-3-5.2-5.9-6.2-8.6c-0.1-0.4-6.4-10.3,8.3-24.6c14.7-14.3,38.4-35.3,50.4-41.1c7.1-3.4,12.8-6.3,19.7-7.7
			c4.8-1,10-1.3,16.7-0.7c6.8,0.6,16.3,6.7,16.9,13.4C359.4,111.9,356.8,115.6,352.8,119.3z"/>
		<path class="st4" d="M366.7,105.6c0,0.8,0.1,1.6,0.1,2.5C366.7,107.2,366.7,106.4,366.7,105.6z"/>
		<path class="st2" d="M405,71.5c0,0-1.1-4.8-7.7-8.1c-0.5-0.3-1.1-0.5-1.8-0.8c-8.2-3.3-15.5,3.9-21.6,10.6
			c-6.1,6.6-17.1,16-22.1,18.2c-0.2,0.1-0.3,0.1-0.5,0.2c7,3,9.6,5.9,11.3,10.8c0.7,2,0.9,4.1,1.3,6.2c1.5-4.3,3.7-7.8,3.7-7.8
			c2.2-3.3,4.4-5.7,7.7-7.4c4.7-2.5,14.8-6,23.4-9.3C407.2,80.7,405,71.5,405,71.5z"/>
		<g>
			<path class="st5" d="M404.4,68c-4.2-3.3-7.1-4.6-7.1-4.6c1.2,0.6,2.3,1.3,3.2,2c0.3,0.2,0.6,0.5,0.8,0.7c1.7,1.5,3.4,3.6,3.8,6
				c0.8,4.5-1,9.2-5.1,11.4c-0.4,0.2-0.9,0.4-1.3,0.6c-8.5,3.3-19,6.5-23.4,9.3c-1.4,0.9-2.5,1.7-3.5,2.5c0,0,0,0,0,0
				c-3.7,3-6.9,7.9-7.9,12.6c-2.4,10.9-11.4,20.3-28.7,27.9c-17.9,7.8-28.3,18.5-35.7,27.6c-7.4,9.2-19.7,20.7-19.7,20.7l-4.4,2.9
				c1.5-0.7,3.7-1.5,6.3-2.4c0.4-0.2,0.8-0.3,1.2-0.5c5.2-2.3,11.9-5.4,20.2-8c13.1-4.2,19-3.6,42.3-17.8c4.6-2.8,8.5-6,11.6-9.7
				c2.8-3.3,5.3-7,7.1-10.9c1.2-2.6,2.6-6.7,2.4-6.1c1.7-4.4,3.4-8.8,5-13.2c0.5-1.3,1-2.5,1.4-3.8c1.7-3.8,3.1-7.3,6-10.3
				c13-13.3,22.3-12.7,27.2-19.1C411.4,78.6,409.5,72,404.4,68z"/>
		</g>
		<path class="st6" d="M283.8,182.5c0,0,28.6-30.4,35.1-34.3c19.2-11.5,33.5-9.1,48.2-35c7.9-14-1.9,24.4-12.7,34.3
			c-9.2,8.4-20.5,3.3-35.6,13C303.7,170.3,283.8,182.5,283.8,182.5z"/>
		<path class="st6" d="M406.4,75.6c-0.4,5.2-4.2,9.3-8.8,11.7c-4.6,2.4-9.8,3.6-14.4,6c-4.6,2.4-8.8,6.6-9.1,11.8c2.5-5,7.8-8,13-10
			c5.2-2,9.5-4.3,14.2-7.3c11.9-7.6,5-17.6,5-17.6C406.2,70.2,406.4,75.6,406.4,75.6z"/>
		<path class="st7" d="M401.3,72.7c-0.2,3.9-2.3,7.7-5.5,9.9c-1.9,1.3-4.1,2.1-6.3,2.8c-1.7,0.6-3.3,1.1-5,1.6
			c-2.6,0.7-5.2,1.3-7.8,2c-2,0.5-4,1.1-5.9,2c-4.4,1.9-8.4,5.5-9.3,10.2c-0.9-2.7-1.8-5.6-4-7.5c-1.2-1-2.7-1.7-4.1-2.2
			c-0.3-0.1-0.7-0.3-1-0.4c5.2-2.6,15.7-11.5,21.6-17.9c1.9-2.1,4-4.3,6.2-6.2c4.7-4,9.8-6.6,15.4-4.4c0.6,0.3,1.2,0.5,1.8,0.8
			c0.1,0.1,0.2,0.1,0.3,0.2C400.1,65.9,401.5,69.3,401.3,72.7z"/>
		<path class="st7" d="M263.1,157.9c-0.2-2.5,0.2-5.1,1.2-7.4c1.9-4.6,5.5-8.2,9.3-11.3c3.9-3.1,8.1-5.7,11.7-9.1
			c4.9-4.4,8.7-9.9,11.1-16c-4.3,6.3-8.7,12.7-14.5,17.7c-6.8,5.9-15.4,9.6-21.6,16.1c-1.9,2-3.6,4.2-5,6.6
			c-2.1,3.7-3.6,8.1-2.6,12.2c0.3,1.5,1,3.6,2.1,4.8c0.9-2.5,2.2-4.8,3.7-7.1C259.8,162.1,261.4,159.9,263.1,157.9z"/>
		<path class="st7" d="M350.4,121.3c-0.1,0.1-0.3,0.2-0.4,0.3C350.1,121.6,350.3,121.4,350.4,121.3z"/>
		<path class="st7" d="M346.2,124.5c-0.2,0.1-0.3,0.2-0.5,0.4C345.9,124.7,346.1,124.6,346.2,124.5z"/>
		<path class="st7" d="M347.7,123.4c-0.1,0.1-0.3,0.2-0.4,0.3C347.4,123.7,347.5,123.6,347.7,123.4z"/>
		<path class="st7" d="M348.4,122.9c-0.1,0.1-0.3,0.2-0.4,0.3C348.1,123.1,348.2,123,348.4,122.9z"/>
		<path class="st7" d="M349.7,121.9c-0.1,0.1-0.3,0.2-0.4,0.3C349.5,122.1,349.6,122,349.7,121.9z"/>
		<path class="st7" d="M349,122.4c-0.1,0.1-0.3,0.2-0.4,0.3C348.8,122.6,348.9,122.5,349,122.4z"/>
		<path class="st8" d="M359,108.3c-0.6-6.7-10.2-12.5-16.9-13.4c-9.9-1.3-20.5,1.2-21.3,2c2.5-0.6,7.5,0.5,9.6,1.9
			c2.2,1.3,3.7,3.7,3.9,6.2c0.1,1.2-0.1,2.3-0.4,3.4c-0.8,3.1-2.6,5.8-4.8,8.1c4.8-0.9,9.6-1.1,14.4-0.5c3.2,0.4,6.6,1.4,9.3,3.2
			C356.8,115.6,359.4,111.9,359,108.3z"/>
		<path class="st7" d="M345.5,125c-0.2,0.1-0.4,0.3-0.6,0.4C345.1,125.3,345.3,125.1,345.5,125z"/>
		<path class="st7" d="M341.8,127.6c1-0.7,2-1.4,3-2C343.8,126.2,342.8,126.9,341.8,127.6C341.7,127.6,341.7,127.6,341.8,127.6z"/>
		<path class="st7" d="M347,124c-0.2,0.1-0.3,0.2-0.5,0.3C346.6,124.2,346.8,124.1,347,124z"/>
		<path class="st7" d="M351,120.8c-0.1,0.1-0.3,0.2-0.4,0.3C350.8,121,350.9,120.9,351,120.8z"/>
		<path class="st7" d="M351.7,120.2c-0.1,0.1-0.3,0.2-0.4,0.4C351.4,120.5,351.6,120.4,351.7,120.2z"/>
		<path class="st7" d="M352.5,119.6c-0.2,0.2-0.4,0.4-0.6,0.5C352.1,119.9,352.3,119.7,352.5,119.6z"/>
		<path class="st9" d="M352.8,119.3c-0.1,0.1-0.2,0.2-0.3,0.3c-0.2,0.2-0.4,0.4-0.6,0.5c-0.1,0.1-0.1,0.1-0.2,0.2
			c-0.1,0.1-0.3,0.2-0.4,0.4c-0.1,0.1-0.2,0.1-0.2,0.2c-0.1,0.1-0.3,0.2-0.4,0.3c-0.1,0.1-0.2,0.1-0.3,0.2c-0.1,0.1-0.3,0.2-0.4,0.3
			c-0.1,0.1-0.2,0.1-0.3,0.2c-0.1,0.1-0.3,0.2-0.4,0.3c-0.1,0.1-0.2,0.1-0.3,0.2c-0.1,0.1-0.3,0.2-0.4,0.3c-0.1,0.1-0.2,0.1-0.3,0.2
			c-0.1,0.1-0.3,0.2-0.4,0.3c-0.1,0.1-0.2,0.1-0.3,0.2c-0.1,0.1-0.3,0.2-0.4,0.3c-0.1,0.1-0.2,0.1-0.3,0.2c-0.2,0.1-0.3,0.2-0.5,0.3
			c-0.1,0.1-0.2,0.1-0.3,0.2c-0.2,0.1-0.3,0.2-0.5,0.4c-0.1,0-0.1,0.1-0.2,0.1c-0.2,0.1-0.4,0.3-0.6,0.4c0,0-0.1,0-0.1,0.1
			c-1,0.7-2,1.4-3,2c-0.3,0.2-0.6,0.4-0.9,0.6c-6,4-13.7,7.4-20.4,11.3c-4.4,2.5-8.3,5.2-11.3,8.4c-3.2,3.4-7.2,8.2-11.3,13
			c-5.7,6.7-11.7,13.7-16,17.2c-7.4,6.1-12.5,10-21.4,4.7c-2.9-1.8-5.3-3.5-7.2-5.3c0.2-2.1,0.8-4.2,1.5-6.1c0,0,0,0,0-0.1
			c0.9-2.4,2.2-4.8,3.6-7c1.5-2.3,3.1-4.4,4.8-6.5c8.2-9.8,19.1-17.4,29.8-24.4c7.6-5,15.4-9.8,23.8-13.3c4-1.6,8.1-2.9,12.3-3.6
			c0.2,0,0.5-0.1,0.7-0.1c4.5-0.8,9.1-1,13.6-0.4C346.8,116.5,350.1,117.4,352.8,119.3z"/>
		<path class="st10" d="M352.8,119.3c-2.9,3.5-7.3,5.8-11,8.3c-0.3,0.2-0.6,0.4-0.9,0.6c-6,4-13.7,7.4-20.4,11.3
			c1-0.9,2.1-1.8,3.2-2.6c1.5-1,3.1-1.9,4.6-2.8c24-13.3,11.1-18.3,1.6-17.5c0-0.1,0-0.2,0.1-0.2c4.5-0.8,9.1-1,13.6-0.4
			C346.7,116.4,350.1,117.4,352.8,119.3z"/>
		<path class="st8" d="M372.3,95.8"/>
		<path class="st8" d="M403,73c-0.4,6.3-4,7.4-7.3,9.6c-1.9,1.3-4.1,2.1-6.3,2.8c-1.7,0.6-3.3,1.1-5,1.6c-2.6,0.7-5.2,1.3-7.8,2
			c0.7-0.7,1.5-1.2,2.4-1.7c2.2-1.2,4.7-1.8,7-2.8c2.2-1,4.3-2.3,6-4c2.2-2.1,4-5.1,3.3-8.1c-0.5-1.9-1.9-3.5-3.7-4.4
			c-1.7-0.9-3.7-1.3-5.7-1.4c-1.4-0.1-2.8-0.1-4.2,0c-0.5,0-1,0.2-1.6,0.3c4.7-4,9.8-6.6,15.4-4.4c0.6,0.3,1.2,0.5,1.8,0.8
			c0.1,0.1,0.2,0.1,0.3,0.2C400.1,65.9,403.3,69.6,403,73z"/>
	</g>
	<g>
		<path class="st6" d="M287.2,69.9c0.6,0.1,1,0.2,1,0.8c-1.3,11.9-3,24.5-4.6,36.7c-0.9,6.8-1.9,13.8-2.7,20.5
			c-0.1,0.6-0.6,1-1.2,0.9l0,0c-0.6-0.1-1-0.6-0.9-1.2c0.8-6.7,1.8-13.7,2.7-20.5c1.7-12.2,3.4-24.8,4.6-36.6
			C286.1,69.9,286.6,69.8,287.2,69.9L287.2,69.9z"/>
		<path class="st11" d="M263.5,122.1c8.4-7.1,22.9-5.4,30.6,1.8c4.9,4.6,7.8,11.6,7.1,18.3c-0.1,1.1-0.3,2.2-0.6,3.2
			c-3,10.4-12.2,16-21.7,16.1c-5.3,0.1-10.7-1.6-15.2-5.1c-1-0.8-2-1.7-2.9-2.7C253,145.2,254.3,129.9,263.5,122.1z"/>
		<path class="st1" d="M264.8,124.3c4.1-3.4,9.4-5,14.8-4.6c0.3,0,0.6,0.1,0.9,0.1c1.6,0.2,3.2,0.6,4.9,1.1
			c7.9,2.6,13.1,9,13.5,16.8c0.3,5-1.5,10.3-4.8,14.6c-3.8,4.8-9.1,7.9-15.2,9.2c-5.3,0.1-10.7-1.6-15.2-5.1
			c2.5,0.8,5.7,1.5,7.2,1.6c8.2,0.6,15.5-2.4,20-8.2c2.7-3.5,4.2-7.8,4-11.9c-0.3-6.1-4.4-11.2-10.8-13.2c-1.8-0.6-3.4-0.9-4.9-1.1
			c-4.3-0.4-8.7,1-11.9,3.7c-3.3,2.7-5.4,6.8-5.6,11c-0.2,2.6,0.4,5.1,1.6,6.9c1.4,2.2,4,3.8,6.9,4.3c2.7,0.5,5.7,0.1,8.6-1.2
			c2-0.9,4.7-2.5,6.4-5.2c1.5-2.4,1.9-5.2,1.2-7.5c-0.6-2-2.1-3.8-4.1-4.9c-1.9-1-4.3-1.4-6.6-0.9c-2.1,0.4-4.1,1.5-5.3,3
			c-1.3,1.6-1.8,3.6-1.3,5.4c0.4,1.8,1.9,3.2,3.6,3.6c0.8,0.2,1.8,0.1,2.9-0.3c1.2-0.3,2.1-0.8,2.6-1.5c0.6-0.6,0.8-1.4,0.7-2.1
			c-0.1-0.5-0.6-0.9-1-0.9c-0.2,0-0.4,0.2-0.4,0.4c0.2,1.1-0.5,2.1-1.5,2.3c-1.1,0.2-2.1-0.5-2.4-1.6c-0.2-1.2,0.1-2.4,0.9-3.4
			c0.9-1.1,2.1-1.7,3.4-1.7c2.3,0,4.3,1.7,4.9,4.1c0.4,1.9-0.2,4-1.6,5.6c-1.1,1.2-2.6,2.1-4.4,2.6c-1.7,0.5-3.3,0.6-4.7,0.4
			c-3.2-0.6-5.9-3.2-6.7-6.5c-0.7-3,0-6.3,2.1-8.8c1.8-2.2,4.5-3.8,7.6-4.4c3.2-0.6,6.4-0.1,9.2,1.3c2.9,1.6,5.1,4.2,6,7.3
			c1,3.5,0.4,7.5-1.7,10.8c-1.8,2.9-4.6,5.2-8.2,6.8c-3.6,1.6-7.4,2.1-10.9,1.5c-4-0.7-7.4-2.9-9.5-6c-1.7-2.5-2.5-5.9-2.3-9.3
			C258.1,132.8,260.7,127.7,264.8,124.3z"/>
	</g>
	<g>
		<path class="st12" d="M326.8,135.8c-5.4,8.2-18.2,10.3-26.6,6c-5.3-2.7-9.6-8-10.6-13.9c-0.2-1-0.3-1.9-0.3-2.9
			c0-9.6,6.5-16.7,14.6-19.1c4.5-1.4,9.5-1.3,14.3,0.6c1.1,0.4,2.1,0.9,3.1,1.6C330.1,113.4,332.7,126.9,326.8,135.8z"/>
		<path class="st13" d="M325.1,134.3c-2.6,3.9-6.8,6.6-11.5,7.6c-0.3,0.1-0.6,0.1-0.8,0.1c-1.4,0.2-2.8,0.3-4.5,0.2
			c-7.4-0.2-13.4-4.5-15.7-11c-1.5-4.2-1.3-9.2,0.5-13.7c2-5,5.8-9.1,10.7-11.6c4.5-1.4,9.5-1.3,14.3,0.6c-2.3-0.1-5.3,0.1-6.6,0.4
			c-7.2,1.5-12.7,5.9-15.1,11.9c-1.5,3.7-1.7,7.8-0.5,11.2c1.8,5.2,6.6,8.5,12.5,8.7c1.7,0.1,3.1-0.1,4.5-0.3c3.8-0.8,7.2-3,9.3-6.1
			c2.1-3.1,2.9-7.2,2.1-10.8c-0.5-2.3-1.6-4.2-3.1-5.5c-1.8-1.5-4.4-2.3-7-2c-2.4,0.3-4.9,1.4-7,3.2c-1.5,1.2-3.4,3.3-4.2,6.1
			c-0.7,2.4-0.4,4.9,0.8,6.8c1,1.6,2.8,2.8,4.7,3.2c1.9,0.4,4,0.1,5.8-0.8c1.7-0.9,3.1-2.3,3.8-3.9c0.7-1.6,0.6-3.5-0.2-4.9
			c-0.8-1.4-2.4-2.3-3.9-2.2c-0.7,0.1-1.5,0.4-2.4,0.9c-0.9,0.6-1.5,1.2-1.9,1.9c-0.3,0.7-0.4,1.4-0.1,1.9c0.2,0.4,0.7,0.7,1.1,0.6
			c0.2,0,0.3-0.3,0.3-0.4c-0.5-0.9-0.1-1.9,0.7-2.4c0.9-0.5,1.9-0.1,2.4,0.7c0.5,0.9,0.5,2.1,0.1,3.2c-0.5,1.1-1.4,2-2.5,2.3
			c-1.9,0.6-4.1-0.4-5.2-2.3c-0.8-1.5-0.8-3.5,0-5.2c0.6-1.3,1.7-2.4,3.1-3.3c1.3-0.9,2.6-1.3,4-1.5c2.9-0.3,5.8,1.3,7.3,3.9
			c1.4,2.4,1.5,5.4,0.4,8.1c-1,2.4-2.9,4.4-5.4,5.7c-2.6,1.3-5.5,1.7-8.2,1.1c-2.9-0.6-5.4-2.3-7-4.7c-1.7-2.7-2.2-6.3-1.2-9.7
			c0.8-2.9,2.7-5.6,5.3-7.8c2.7-2.3,5.8-3.6,8.9-4c3.6-0.4,7.1,0.6,9.6,2.8c2.1,1.8,3.6,4.4,4.3,7.4
			C328.8,125.3,327.8,130.3,325.1,134.3z"/>
	</g>
	<g>
		<path class="st14" d="M278.1,179.9c-4.7,5.7-14.6,6.3-20.5,2.4c-3.8-2.5-6.6-6.8-6.9-11.3c-0.1-0.7,0-1.5,0-2.2
			c0.8-7.3,6.2-12.1,12.5-13.2c3.5-0.7,7.3-0.2,10.7,1.6c0.8,0.4,1.5,0.9,2.2,1.4C282.4,163.3,283.3,173.6,278.1,179.9z"/>
		<path class="st13" d="M277,178.6c-2.3,2.7-5.7,4.5-9.3,4.8c-0.2,0-0.4,0-0.6,0c-1.1,0-2.2,0-3.4-0.2c-5.6-0.8-9.8-4.4-10.9-9.6
			c-0.8-3.3-0.2-7,1.5-10.2c1.9-3.6,5.1-6.3,9-7.9c3.5-0.7,7.3-0.2,10.7,1.6c-1.8-0.2-4-0.3-5-0.2c-5.5,0.6-10,3.4-12.4,7.8
			c-1.4,2.6-1.9,5.7-1.3,8.4c0.9,4,4.3,6.9,8.7,7.5c1.3,0.2,2.4,0.2,3.4,0.1c2.9-0.3,5.6-1.7,7.5-3.8c1.9-2.2,2.8-5.2,2.4-8
			c-0.2-1.8-0.9-3.3-1.9-4.4c-1.2-1.3-3.1-2.1-5.1-2.1c-1.9,0-3.8,0.6-5.6,1.8c-1.2,0.8-2.8,2.2-3.6,4.2c-0.7,1.7-0.7,3.7,0.1,5.2
			c0.6,1.3,1.9,2.3,3.3,2.8c1.4,0.5,3,0.4,4.5-0.2c1.4-0.5,2.5-1.5,3.2-2.6c0.7-1.2,0.8-2.6,0.3-3.7c-0.5-1.1-1.6-1.9-2.8-1.9
			c-0.6,0-1.2,0.2-1.9,0.5c-0.7,0.4-1.3,0.8-1.6,1.3c-0.3,0.5-0.4,1-0.2,1.4c0.1,0.3,0.5,0.6,0.7,0.5c0.1,0,0.3-0.2,0.2-0.3
			c-0.3-0.7,0.1-1.5,0.7-1.7c0.7-0.3,1.5,0.1,1.7,0.8c0.3,0.8,0.2,1.6-0.2,2.4c-0.4,0.8-1.2,1.4-2.1,1.5c-1.5,0.3-3.1-0.6-3.7-2.1
			c-0.5-1.2-0.3-2.7,0.4-3.9c0.6-0.9,1.5-1.7,2.6-2.3c1.1-0.5,2.1-0.8,3.1-0.8c2.2,0,4.3,1.4,5.2,3.5c0.8,1.9,0.7,4.2-0.4,6.1
			c-0.9,1.7-2.6,3.1-4.5,3.8c-2,0.8-4.3,0.9-6.3,0.2c-2.1-0.7-3.9-2.2-4.9-4.1c-1.1-2.2-1.2-4.9-0.2-7.4c0.9-2.1,2.5-4,4.6-5.4
			c2.2-1.5,4.7-2.3,7-2.3c2.7,0,5.3,1.1,7,2.9c1.4,1.5,2.3,3.6,2.6,5.9C280.4,172.1,279.3,175.8,277,178.6z"/>
	</g>
	<g>
		<path class="st1" d="M309.9,130.2l0.1-5.2c-0.1-3.4,2.2-2.8,2.7-1.4c0.1,0.3,0.2,0.6,0.3,0.9c4-4.3,5.4-0.3,4.8,0.9
			c-0.5,1-2.4,2.1-2.1,2.5c1.2,1.4,2.1,0.2,4.1,1c2.6,1.2,1.4,5.1-1.4,4.6C314.5,132.8,309.9,130.2,309.9,130.2z"/>
		<path class="st1" d="M292.4,164.7l1.3,3.3c0.2,0.6,0.7,2.6,0.6,3.2c-0.2,3.5-4.7-1.1-4.8-1.4c-3,5-4.6,2.5-4.8,1.2
			c-0.4-2.2,2.3-3.2,1.2-4c-0.5-0.4-0.9,1.3-3,1.1c-2.8-0.2-2.2-4.7,0.6-4.8C287.5,163.1,292.4,164.7,292.4,164.7z"/>
		<path class="st14" d="M316,146.3c-0.6-2.6-1.6-5.2-3-7.7c-2.4-4.3-5.6-7.8-9.1-10.3c3.1-1.3,6.8,0.9,9.9,2.7
			c2.6,1.6,4.3,3.5,5,6.2c0.7,2.7,0.3,4.1-1.3,6.7L316,146.3z"/>
		<path class="st15" d="M304,144.7c0.3,0.4,0.6,0.7,0.8,1.1C304.6,145.5,304.3,145.1,304,144.7z"/>
		<path class="st15" d="M298.5,146.1C298.6,146.1,298.6,146.1,298.5,146.1c0,0-0.1-0.1-0.1-0.1C298.5,146,298.5,146,298.5,146.1z"/>
		<path class="st14" d="M291.2,165.9c-2.6-1.6-5.6-3.1-6.3-5.8c-0.7-2.7-0.1-4.4,1.5-7l0.6-0.9c4.3,2.6,8.2,6.4,10.9,11.4
			c0.9,1.7,1.7,3.4,2.3,5.1C297,170.1,294.3,167.8,291.2,165.9z"/>
		<path class="st1" d="M313.3,150.8c-0.6-2.6-1.6-5.2-3-7.7c-2.7-5-6.6-8.8-10.8-11.4c1.2-1.5,2.7-2.7,4.4-3.4
			c3.6,2.5,6.8,6,9.1,10.3c1.4,2.5,2.4,5.1,3,7.7L313.3,150.8z"/>
		<path class="st16" d="M298.6,146.2c-0.1-0.1-0.1-0.1-0.2-0.2C298.5,146,298.5,146,298.6,146.2
			C298.6,146.1,298.6,146.1,298.6,146.2z"/>
		<path class="st14" d="M309.8,156.6c-0.1-0.3-0.2-0.7-0.3-1c-0.1-0.4-0.2-0.7-0.3-1.1c-0.1-0.3-0.2-0.6-0.3-0.9
			c-0.1-0.3-0.2-0.7-0.4-1c-0.1-0.3-0.3-0.6-0.4-1c-0.1-0.3-0.3-0.6-0.4-0.9c-0.1-0.2-0.2-0.5-0.4-0.7c-0.1-0.2-0.2-0.4-0.3-0.6
			c-0.1-0.2-0.2-0.4-0.4-0.7c-0.3-0.6-0.7-1.2-1.1-1.8c-0.3-0.4-0.5-0.8-0.8-1.2c-0.3-0.4-0.6-0.8-0.8-1.1c-1.5-2-3.3-3.7-5.2-5.2
			c-0.2-0.1-0.4-0.3-0.5-0.4c-0.2-0.2-0.5-0.4-0.7-0.5c-0.3-0.2-0.5-0.4-0.8-0.5c-0.3-0.2-0.6-0.4-1-0.6l2.9-4.8
			c0.2-0.4,0.4-0.7,0.7-1c4.3,2.6,8.1,6.4,10.8,11.4c1.4,2.5,2.4,5.1,3,7.7L309.8,156.6z"/>
		<path class="st1" d="M307.1,161.1c0,0,0-0.1,0-0.1c0-0.1,0-0.1,0-0.1c-0.1-0.2-0.1-0.5-0.2-0.7c-0.3-0.9-0.5-1.8-0.9-2.7
			c0-0.1-0.1-0.2-0.1-0.3c0,0,0,0,0,0c-0.1-0.2-0.2-0.4-0.2-0.6c0,0,0,0,0,0c-0.1-0.2-0.1-0.3-0.2-0.5c-0.1-0.2-0.1-0.3-0.2-0.5
			c-0.1-0.3-0.3-0.7-0.5-1c-0.2-0.4-0.4-0.8-0.6-1.1c-0.1-0.2-0.3-0.5-0.4-0.7c-0.1-0.2-0.3-0.4-0.4-0.7c-0.5-0.8-1-1.5-1.5-2.2
			c-0.2-0.2-0.3-0.4-0.5-0.6c-0.7-0.9-1.3-1.7-2.1-2.4c-0.2-0.2-0.4-0.4-0.6-0.6c0,0-0.1-0.1-0.1-0.1c0,0-0.1-0.1-0.1-0.1
			c-0.1-0.1-0.1-0.1-0.2-0.2c-0.3-0.3-0.5-0.5-0.8-0.8c-0.2-0.2-0.3-0.3-0.5-0.4c-0.4-0.3-0.8-0.6-1.2-0.9c-0.1-0.1-0.2-0.2-0.3-0.2
			c-0.1-0.1-0.3-0.2-0.4-0.3c-0.1-0.1-0.2-0.1-0.3-0.2c-0.1-0.1-0.3-0.2-0.4-0.3l-0.3-0.2c-0.3-0.2-0.5-0.3-0.8-0.5l2.7-4.5
			c0.3,0.2,0.7,0.4,1,0.6c0.3,0.2,0.5,0.3,0.8,0.5c0.3,0.2,0.5,0.3,0.7,0.5c0.2,0.1,0.4,0.3,0.5,0.4c1.9,1.5,3.6,3.2,5.2,5.2
			c0.3,0.4,0.6,0.8,0.8,1.1c0.3,0.4,0.5,0.8,0.8,1.2c0.4,0.6,0.7,1.2,1.1,1.8c0.1,0.2,0.2,0.4,0.4,0.7c0.1,0.2,0.2,0.4,0.3,0.6
			c0.1,0.2,0.2,0.5,0.4,0.7c0.1,0.3,0.3,0.6,0.4,0.9c0.1,0.3,0.3,0.6,0.4,1c0.1,0.3,0.2,0.6,0.4,1c0.1,0.3,0.2,0.6,0.3,0.9
			c0.1,0.4,0.2,0.7,0.3,1.1c0.1,0.3,0.2,0.7,0.3,1L307.1,161.1z"/>
		<path class="st16" d="M298.6,146.2c-0.1-0.1-0.1-0.1-0.2-0.2C298.5,146,298.5,146,298.6,146.2
			C298.6,146.1,298.6,146.1,298.6,146.2z"/>
		<path class="st14" d="M303.5,166.4c-0.1-0.3-0.2-0.6-0.2-0.9c0,0,0-0.1,0-0.1c-0.1-0.3-0.2-0.6-0.3-0.9c-0.1-0.3-0.2-0.6-0.3-0.9
			c-0.1-0.2-0.2-0.5-0.3-0.7c-0.4-1-0.8-2-1.3-3c-0.1-0.2-0.2-0.3-0.2-0.5c-0.1-0.1-0.2-0.3-0.2-0.4c-2.8-5-6.6-8.9-10.9-11.4
			l3.5-5.8c0.3,0.2,0.5,0.3,0.8,0.5l0.3,0.2c0.1,0.1,0.3,0.2,0.4,0.3c0.1,0.1,0.2,0.1,0.3,0.2c0.1,0.1,0.3,0.2,0.4,0.3
			c0.1,0.1,0.2,0.2,0.3,0.2c0.4,0.3,0.8,0.6,1.2,0.9c0.2,0.1,0.4,0.3,0.5,0.4c0.3,0.2,0.5,0.5,0.8,0.8c0.1,0.1,0.2,0.1,0.2,0.2
			c0.1,0.1,0.1,0.1,0.2,0.2c0.2,0.2,0.4,0.4,0.6,0.6c0.7,0.8,1.4,1.6,2.1,2.4c0.2,0.2,0.3,0.4,0.5,0.6c0.5,0.7,1,1.4,1.5,2.2
			c0.1,0.2,0.3,0.4,0.4,0.7c0.1,0.2,0.3,0.5,0.4,0.7c0.2,0.4,0.4,0.8,0.6,1.1c0.2,0.3,0.3,0.6,0.5,1c0.1,0.2,0.1,0.3,0.2,0.5
			c0.1,0.2,0.2,0.3,0.2,0.5c0,0,0,0,0,0c0.1,0.2,0.2,0.4,0.2,0.6c0,0,0,0,0,0c0,0.1,0.1,0.2,0.1,0.3c0.3,0.9,0.6,1.8,0.9,2.7
			c0.1,0.2,0.1,0.5,0.2,0.7c0,0,0,0.1,0,0.1c0,0,0,0.1,0,0.1l-2,3.3C304.6,165.1,304.1,165.8,303.5,166.4z"/>
		<path class="st1" d="M300.1,168.7c-0.6-1.7-1.3-3.4-2.3-5.1c-2.7-5-6.6-8.9-10.9-11.4l2.7-4.5c4.3,2.6,8.1,6.4,10.9,11.4
			c0.1,0.1,0.2,0.3,0.2,0.4c0.1,0.1,0.2,0.3,0.2,0.5c0.5,1,0.9,2,1.3,3c0.1,0.2,0.2,0.5,0.3,0.7c0.1,0.3,0.2,0.6,0.3,0.9
			c0.1,0.3,0.2,0.6,0.3,0.9c0,0,0,0.1,0,0.1c0.1,0.3,0.2,0.6,0.2,0.9C302.5,167.4,301.3,168.2,300.1,168.7z"/>
	</g>
	<g>
		<path class="st2" d="M405.2,75.1c0,0,0-0.1,0-0.1c0-0.1,0-0.2,0-0.3c0,0,0,0,0-0.1c0-0.1,0-0.2,0-0.3c0-0.1,0-0.1,0-0.2
			c0-0.1,0-0.1,0-0.1c0,0,0,0,0,0c0,0,0,0,0,0c0,0,0,0,0,0c0,0,0-0.1,0-0.1c0-0.1,0-0.2,0-0.3c0,0,0,0,0,0c0-0.1,0-0.1,0-0.2
			c0,0,0,0,0,0c0,0,0-0.1,0-0.1c0,0,0,0,0,0c0-0.1,0-0.1,0-0.2c0,0,0,0,0,0c0,0,0,0,0-0.1c0-0.1,0-0.2,0-0.3l0,0c0-0.1,0-0.2,0-0.3
			c0,0,0-0.1,0-0.1c0,0,0-0.1,0-0.1c0,0,0-0.1,0-0.1c0,0,0-0.1,0-0.1c0,0,0,0,0-0.1c0,0,0,0,0,0c0,0,0,0,0,0c0,0,0,0,0,0
			c0,0,0,0,0,0c0,0,0,0,0-0.1c0,0,0,0,0,0c0,0,0-0.1,0-0.1c0,0,0,0,0,0c0,0,0-0.1,0-0.1c0,0,0,0,0,0c0-0.1,0-0.1,0-0.1
			s0-0.1-0.1-0.4c0-0.1,0-0.1-0.1-0.2c0,0,0,0,0,0l0,0c0-0.1,0-0.1-0.1-0.2c0,0,0-0.1,0-0.1c0,0,0-0.1,0-0.1c0-0.1-0.1-0.1-0.1-0.2
			c-0.1-0.1-0.1-0.3-0.2-0.5c0,0,0-0.1-0.1-0.1c0,0,0-0.1-0.1-0.1c-0.2-0.4-0.5-0.8-0.8-1.2c-0.1-0.1-0.1-0.2-0.2-0.3l0,0
			c-0.1-0.1-0.2-0.2-0.3-0.3l0,0c0,0-0.1-0.1-0.1-0.1c0,0-0.1-0.1-0.1-0.1c0,0,0,0,0-0.1c0,0,0,0,0-0.1c0,0,0,0,0,0
			c0,0-0.1-0.1-0.1-0.1c0-0.1-0.1-0.1-0.1-0.1c0,0-0.1-0.1-0.1-0.1c-0.1-0.1-0.2-0.2-0.2-0.3c0,0-0.1-0.1-0.1-0.1l0,0
			c-0.1-0.1-0.1-0.1-0.2-0.2c-0.1-0.1-0.1-0.1-0.2-0.2c-0.1-0.1-0.2-0.2-0.4-0.3c-0.3-0.2-0.5-0.5-0.8-0.7l0,0
			c-0.1-0.1-0.2-0.2-0.4-0.3c0,0-0.1,0-0.1-0.1l0,0c-0.1,0-0.1-0.1-0.2-0.1c-0.1,0-0.1-0.1-0.2-0.1c0,0-0.1,0-0.1-0.1c0,0,0,0,0,0
			c0,0-0.1-0.1-0.1-0.1c-0.1-0.1-0.3-0.2-0.4-0.3c-0.1-0.1-0.2-0.1-0.3-0.2c0,0-0.1-0.1-0.1-0.1c0,0-0.1,0-0.1,0
			c-0.2-0.1-0.4-0.2-0.5-0.3l0,0c-0.1,0-0.2-0.1-0.2-0.1c0,0,0,0,0,0c0,0,0,0,0,0c-0.1,0-0.2-0.1-0.2-0.1c0,0,0,0-0.1,0l0,0
			c-0.1-0.1-0.3-0.1-0.4-0.2c-0.1-0.1-0.3-0.1-0.4-0.2c-0.2-0.1-0.3-0.1-0.5-0.2c-0.2-0.1-0.3-0.1-0.5-0.2c-0.2-0.1-0.4-0.1-0.6-0.2
			c-0.1,0-0.2-0.1-0.3-0.1c-0.2-0.1-0.4-0.1-0.6-0.2c-0.1,0-0.2,0-0.3-0.1c-0.1,0-0.1,0-0.2,0c-0.3-0.1-0.5-0.1-0.8-0.1
			c-0.1,0-0.2,0-0.3,0c-0.2,0-0.3,0-0.5,0c-0.1,0-0.1,0-0.2,0c-0.2,0-0.4,0-0.5,0c0,0-0.1,0-0.1,0c0,0,0,0-0.1,0c-0.2,0-0.4,0-0.6,0
			c-0.1,0-0.2,0-0.2,0c-0.1,0-0.2,0-0.3,0c0,0,0,0-0.1,0s0,0-0.1,0c-0.2,0-0.4,0.1-0.5,0.1c-0.2,0-0.4,0.1-0.7,0.1c0,0,0,0,0,0
			c-0.2,0-0.4,0.1-0.6,0.2c0,0,0,0,0,0c0,0,0,0-0.1,0c0,0,0,0-0.1,0c0,0,0,0,0,0c-0.1,0-0.2,0-0.2,0.1c-0.1,0-0.2,0.1-0.2,0.1
			c0,0-0.1,0-0.1,0c-0.1,0-0.2,0.1-0.3,0.1c-0.1,0-0.1,0.1-0.2,0.1c-0.1,0-0.1,0.1-0.2,0.1c-0.1,0.1-0.3,0.1-0.4,0.2
			c-0.2,0.1-0.4,0.2-0.6,0.3c0,0-0.1,0-0.1,0.1c-0.3,0.2-0.6,0.3-0.9,0.5c-0.1,0-0.1,0.1-0.2,0.1c0,0,0,0,0,0
			c-0.1,0-0.1,0.1-0.2,0.1c-0.1,0.1-0.3,0.2-0.4,0.2c0,0-0.1,0-0.1,0.1c-0.1,0.1-0.2,0.1-0.3,0.2c0,0-0.1,0.1-0.2,0.1
			c-0.1,0-0.1,0.1-0.2,0.1c-0.1,0.1-0.3,0.2-0.4,0.3c0,0-0.1,0-0.1,0.1c-0.2,0.1-0.4,0.3-0.6,0.4c0,0,0,0-0.1,0
			c-0.2,0.2-0.5,0.4-0.7,0.6c-0.1,0.1-0.2,0.2-0.3,0.3c-0.2,0.2-0.4,0.3-0.6,0.5c0,0-0.1,0.1-0.1,0.1c0,0,0,0,0,0l0,0l0,0
			c0,0-0.1,0.1-0.1,0.1c0,0-0.1,0-0.1,0.1c0,0,0,0,0,0c0,0-0.1,0.1-0.1,0.1l0,0c0,0,0,0,0,0c0,0,0,0,0,0c0,0,0,0,0,0c0,0,0,0,0,0
			c-0.1,0.1-0.2,0.1-0.3,0.2c-0.1,0.1-0.2,0.2-0.3,0.2c0,0,0,0,0,0c-0.2,0.2-0.3,0.3-0.5,0.5c-0.2,0.2-0.4,0.3-0.5,0.5
			c-0.1,0.1-0.3,0.2-0.4,0.4c0,0,0,0.1-0.1,0.1c0,0,0,0,0,0c-0.2,0.2-0.4,0.4-0.5,0.5c0,0-0.1,0.1-0.1,0.1c0,0,0,0-0.1,0.1
			c-0.2,0.2-0.4,0.5-0.7,0.7c-0.1,0.1-0.2,0.2-0.3,0.3c-0.3,0.3-0.7,0.7-1,1c-0.4,0.4-0.7,0.8-1.1,1.1c-0.2,0.2-0.4,0.4-0.6,0.6
			c-0.1,0.1-0.2,0.3-0.4,0.4c-0.2,0.2-0.4,0.5-0.7,0.7c0,0-0.1,0.1-0.1,0.1c-0.1,0.1-0.2,0.2-0.3,0.3c-0.2,0.2-0.3,0.3-0.5,0.5
			c-0.2,0.2-0.3,0.3-0.5,0.5c0,0-0.1,0.1-0.1,0.1c-0.2,0.2-0.5,0.5-0.7,0.7c-0.2,0.2-0.5,0.5-0.7,0.7c-0.2,0.2-0.4,0.3-0.5,0.5
			c-0.1,0.1-0.2,0.2-0.2,0.2c-0.2,0.2-0.3,0.3-0.5,0.5c-0.1,0.1-0.1,0.1-0.2,0.2c-0.1,0.1-0.2,0.2-0.3,0.2c-0.1,0.1-0.2,0.2-0.2,0.2
			c-0.2,0.1-0.3,0.3-0.5,0.4c-0.2,0.2-0.4,0.4-0.7,0.6c-0.1,0.1-0.2,0.2-0.3,0.3c-0.3,0.2-0.5,0.4-0.8,0.7c-0.1,0.1-0.3,0.2-0.4,0.4
			c-0.7,0.6-1.3,1.1-2,1.7c-0.1,0.1-0.2,0.2-0.3,0.2c-0.1,0.1-0.2,0.2-0.3,0.2c-0.2,0.2-0.4,0.3-0.6,0.5c-0.1,0.1-0.1,0.1-0.2,0.1
			c0,0,0,0-0.1,0c-0.1,0.1-0.3,0.2-0.4,0.3c-0.2,0.2-0.5,0.4-0.8,0.6c0,0,0,0,0,0c-0.1,0.1-0.2,0.1-0.3,0.2c0,0-0.1,0.1-0.1,0.1
			c-0.1,0.1-0.1,0.1-0.2,0.2c-0.1,0-0.1,0.1-0.2,0.1c-0.1,0.1-0.2,0.1-0.2,0.2c-0.2,0.1-0.3,0.3-0.5,0.4c-0.2,0.2-0.4,0.3-0.7,0.5
			c0,0,0,0-0.1,0c-0.2,0.2-0.5,0.3-0.7,0.5c-0.1,0.1-0.3,0.2-0.4,0.3c0,0-0.1,0.1-0.1,0.1c-0.1,0.1-0.1,0.1-0.2,0.1
			c0,0-0.1,0.1-0.1,0.1c-0.2,0.1-0.4,0.3-0.6,0.4c0,0-0.1,0-0.1,0.1c0,0-0.1,0.1-0.1,0.1c-0.5,0.3-0.9,0.6-1.3,0.9
			c-0.1,0-0.2,0.1-0.2,0.1c-0.1,0.1-0.2,0.2-0.4,0.2c0,0,0,0,0,0c-0.2,0.1-0.4,0.2-0.6,0.3c0,0,0,0,0,0c-0.1,0.1-0.2,0.1-0.4,0.2
			c0,0-0.1,0-0.1,0c-0.1,0-0.2,0.1-0.3,0.1c-0.1,0-0.2,0.1-0.3,0.1c-0.1,0-0.2,0.1-0.2,0.1c-0.1,0-0.1,0-0.2,0.1
			c-0.1,0-0.2,0.1-0.3,0.1l0,0c-4.6,1.6-13-1.5-30.4,2.4l0.3,2.7c0,0,0,0-0.1,0c0,0,0,0,0,0c-0.2,0.1-0.3,0.1-0.3,0.2
			c0.1,0,0.3-0.1,0.4-0.1c2.6-0.4,7.1,0.7,9.2,2c2.2,1.3,3.7,3.7,3.9,6.2c0.1,1.2-0.1,2.3-0.4,3.4c-0.8,3.1-2.6,5.8-4.8,8.1
			c0.2,0,0.5-0.1,0.7-0.1c0,0.1-0.1,0.1-0.1,0.2c9.5-0.7,22.5,4.3-1.6,17.5c-1.6,0.9-3.2,1.8-4.6,2.8c-1.1,0.8-2.2,1.6-3.2,2.6
			c-0.9,0.5-1.8,1-2.6,1.6c-0.3,0.2-0.7,0.4-1,0.6c-0.3,0.2-0.6,0.4-1,0.6c-0.1,0-0.1,0.1-0.2,0.1c-0.3,0.2-0.5,0.4-0.8,0.5
			c-0.3,0.2-0.6,0.4-0.9,0.6c0,0-0.1,0-0.1,0.1c-0.3,0.2-0.5,0.4-0.8,0.6c0,0,0,0-0.1,0.1c-0.3,0.2-0.6,0.4-0.8,0.7c0,0,0,0-0.1,0.1
			c-0.3,0.2-0.5,0.4-0.8,0.6c-0.3,0.2-0.5,0.5-0.8,0.7c-0.2,0.2-0.4,0.3-0.5,0.5c-0.1,0.1-0.2,0.2-0.4,0.3c-0.2,0.2-0.4,0.4-0.6,0.6
			c-0.4,0.4-0.8,0.9-1.2,1.3c-0.2,0.2-0.4,0.5-0.6,0.7c-0.3,0.3-0.6,0.7-0.9,1c-0.1,0.2-0.3,0.3-0.5,0.5c-0.8,0.9-1.5,1.8-2.3,2.7
			c-0.3,0.3-0.6,0.7-0.9,1c-1.6,1.9-3.2,3.8-4.9,5.8c-0.5,0.6-1,1.1-1.5,1.7c-0.2,0.3-0.5,0.5-0.7,0.8c-0.7,0.8-1.4,1.7-2.2,2.5
			c-0.3,0.3-0.6,0.7-0.9,1c-0.2,0.2-0.3,0.3-0.5,0.5c-0.3,0.3-0.5,0.6-0.8,0.9c-3.5,4-6.9,7.5-9.6,9.7c-3.7,3-6.8,5.5-10.1,6.6
			l-0.8,3.7c1.4-0.2,2.9-0.4,4.4-0.8c1.7-0.4,3.8-1.3,6.3-2.4c0.4-0.2,0.8-0.3,1.2-0.5c5.2-2.3,11.9-5.4,20.2-8
			c13-4.2,19-3.6,42.3-17.8c0.6-0.4,1.1-0.7,1.7-1.1c0.2-0.2,0.5-0.3,0.7-0.5c0.2-0.2,0.4-0.3,0.7-0.5c3.3-2.3,6.1-4.9,8.5-7.6
			c4.4-5,7.4-10.6,9.3-16.5c0-0.1,0.1-0.2,0.1-0.3c0-0.1,0.1-0.1,0.1-0.2l0,0c0,0,0,0,0,0c0,0,0,0,0,0c0,0,0,0,0,0
			c0-0.1,0.1-0.2,0.1-0.4c0,0,0,0,0,0c0-0.1,0.1-0.3,0.1-0.4l0,0c0.1-0.3,0.1-0.6,0.2-0.9c0.4-2.1,0.5-4.6,0.6-7.4l0,0c0,0,0,0,0,0
			c0-3.2-0.1-6.5-0.3-9.7l0,0c0-0.4,0-0.9-0.1-1.3c-0.1-1.5-0.2-3-0.2-4.3c0,0,0-0.1,0-0.1c0,0,0-0.1,0-0.1c0-0.1,0-0.2,0-0.3
			c0-0.1,0-0.2,0-0.3c0-0.3,0-0.5,0-0.7c0,0,0-0.1,0-0.1c0-0.2,0-0.4,0-0.6c-0.1-2,0.3-3.5,0.9-4.9c0,0,0,0,0,0c0,0,0,0,0,0
			c0.1-0.3,0.3-0.6,0.5-0.9c0-0.1,0.1-0.1,0.1-0.1c0,0,0,0,0,0c0.7-1.1,1.6-2.1,2.6-2.9l0,0c0,0,0,0,0,0c0.3-0.3,0.6-0.5,1-0.8
			c0,0,0,0,0,0c1.1-0.9,2.3-1.6,3.4-2.5c0,0,0,0,0,0l0,0c3.8-2.8,13-5.5,21-8.4c0.3-0.1,0.5-0.2,0.8-0.3c0.1,0,0.2-0.1,0.2-0.1
			c0.2-0.1,0.5-0.2,0.7-0.3c0.1,0,0.2-0.1,0.3-0.1c0.1,0,0.2-0.1,0.3-0.1c0.1-0.1,0.3-0.1,0.4-0.2c0.1-0.1,0.3-0.1,0.4-0.2
			c0.1,0,0.1,0,0.2-0.1c0.1-0.1,0.2-0.1,0.3-0.2c0,0,0.1-0.1,0.1-0.1c0.1,0,0.2-0.1,0.2-0.1c0,0,0,0,0,0c0,0,0,0,0,0c0,0,0,0,0,0
			c0,0,0,0,0,0c0,0,0,0,0,0c0,0,0,0,0,0c0,0,0,0,0,0c0,0,0,0,0,0c0.2-0.1,0.5-0.3,0.7-0.5c0,0,0.1-0.1,0.1-0.1c0,0,0.1-0.1,0.1-0.1
			c0,0,0,0,0.1-0.1c0.3-0.2,0.6-0.5,0.8-0.8c0.1-0.1,0.1-0.1,0.2-0.2c0.1-0.1,0.1-0.2,0.2-0.2c0.1-0.1,0.2-0.2,0.3-0.4
			c0.1-0.1,0.2-0.2,0.3-0.4c0,0,0,0,0,0c0,0,0,0,0-0.1c0,0,0,0,0-0.1c0.1-0.1,0.2-0.2,0.2-0.4c0.1-0.1,0.1-0.2,0.2-0.3c0,0,0,0,0,0
			c0.1-0.1,0.1-0.2,0.2-0.4c0.1-0.1,0.1-0.2,0.2-0.3c0.1-0.1,0.1-0.2,0.1-0.3c0.1-0.2,0.2-0.4,0.2-0.7c0,0,0,0,0,0
			c0-0.1,0.1-0.2,0.1-0.3c0.1-0.2,0.1-0.4,0.1-0.6c0.1-0.2,0.1-0.5,0.1-0.7c0-0.1,0-0.3,0.1-0.4c0-0.2,0-0.4,0.1-0.6
			C405.2,75.3,405.2,75.2,405.2,75.1z"/>
		<path class="st3" d="M352.8,119.3c-0.1,0.1-0.2,0.2-0.3,0.3c0,0,0,0,0,0c-0.1,0.1-0.2,0.2-0.3,0.3c-0.1,0.1-0.2,0.2-0.3,0.3
			c-0.1,0.1-0.1,0.1-0.2,0.2c-0.1,0.1-0.3,0.2-0.4,0.4c-0.1,0.1-0.2,0.1-0.2,0.2c-0.1,0.1-0.3,0.2-0.4,0.3l0,0
			c-0.1,0.1-0.2,0.1-0.3,0.2c-0.1,0.1-0.3,0.2-0.4,0.3c-0.1,0.1-0.2,0.1-0.3,0.2c-0.1,0.1-0.3,0.2-0.4,0.3c-0.1,0.1-0.2,0.1-0.3,0.2
			c-0.1,0.1-0.3,0.2-0.4,0.3c-0.1,0.1-0.2,0.1-0.3,0.2c-0.1,0.1-0.3,0.2-0.4,0.3c-0.1,0.1-0.2,0.1-0.3,0.2c-0.1,0.1-0.3,0.2-0.4,0.3
			c-0.1,0.1-0.2,0.1-0.3,0.2c-0.2,0.1-0.3,0.2-0.5,0.3c-0.1,0.1-0.2,0.1-0.3,0.2c-0.1,0.1-0.2,0.1-0.3,0.2c-0.1,0.1-0.2,0.1-0.3,0.2
			c-0.1,0-0.1,0.1-0.2,0.1c-0.1,0.1-0.2,0.2-0.3,0.2c-0.1,0.1-0.2,0.1-0.3,0.2l-0.1,0.1c0,0-0.1,0-0.1,0.1c-0.5,0.3-0.9,0.6-1.4,1
			c-0.3,0.2-0.5,0.3-0.8,0.5c-0.2,0.2-0.5,0.3-0.7,0.5c-0.3,0.2-0.6,0.4-0.9,0.6c-0.4,0.2-0.8,0.5-1.2,0.7c-0.4,0.2-0.8,0.5-1.2,0.7
			c-0.4,0.2-0.8,0.5-1.2,0.7c-0.3,0.2-0.6,0.4-0.9,0.5c-0.8,0.5-1.7,0.9-2.5,1.4c-0.3,0.2-0.7,0.4-1.1,0.6c-1.1,0.6-2.1,1.1-3.2,1.7
			c-0.9,0.5-1.7,0.9-2.6,1.4c-0.4,0.2-0.9,0.5-1.3,0.7c-0.4,0.2-0.9,0.5-1.3,0.7c-1.3,0.7-2.6,1.4-3.9,2.2c1-0.9,2.1-1.8,3.2-2.6
			c1.5-1,3.1-1.9,4.6-2.8c24-13.3,11.1-18.3,1.6-17.5c0-0.1,0-0.2,0.1-0.2c-0.2,0-0.5,0.1-0.7,0.1c2.2-2.3,4-5.1,4.8-8.1
			c0.3-1.1,0.5-2.3,0.4-3.4c-0.2-2.5-1.7-4.9-3.9-6.2c-2.1-1.3-6.6-2.4-9.2-2c-0.1,0-0.3,0.1-0.4,0.1c0.1-0.1,0.2-0.1,0.3-0.2
			c0,0,0,0,0,0c0,0,0,0,0.1,0c1.4-0.4,2.7-0.8,4.2-1.1c0.9-0.2,1.7-0.3,2.6-0.5c0.2,0,0.5-0.1,0.7-0.1c0.1,0,0.2,0,0.4,0
			c0.4,0,0.8-0.1,1.2-0.1c0.2,0,0.4,0,0.7-0.1c3.3-0.3,6.9-0.3,11.1,0.1c6.1,0.6,14.6,5.6,16.5,11.5c0,0,0,0,0,0
			c0.1,0.3,0.2,0.6,0.2,0.9c0,0,0,0,0,0c0,0.2,0.1,0.4,0.1,0.5c0,0.1,0,0.3,0,0.4C359.4,111.9,356.8,115.6,352.8,119.3z"/>
		<path class="st4" d="M366.7,105.6c0,0.8,0.1,1.6,0.1,2.5C366.7,107.2,366.7,106.4,366.7,105.6z"/>
		<path class="st2" d="M405,71.5c0,0-1.1-4.8-7.7-8.1c-0.5-0.3-1.1-0.5-1.8-0.8c-8.2-3.3-15.5,3.9-21.6,10.6
			c-6.1,6.6-17.1,16-22.1,18.2c-0.2,0.1-0.3,0.1-0.5,0.2c7,3,9.6,5.9,11.3,10.8c0.7,2,0.9,4.1,1.3,6.2c1.5-4.3,3.7-7.8,3.7-7.8
			c2.2-3.3,4.4-5.7,7.7-7.4c4.7-2.5,14.8-6,23.4-9.3C407.2,80.7,405,71.5,405,71.5z"/>
		<g>
			<path class="st5" d="M404.3,68c-3.8-3-6.5-4.3-7-4.6c0.1,0,0.2,0.1,0.2,0.1c0,0,0,0,0,0c0,0,0,0,0,0c0.1,0,0.1,0.1,0.2,0.1l0,0
				c0.2,0.1,0.4,0.2,0.5,0.3c0,0,0.1,0,0.1,0c0,0,0.1,0.1,0.1,0.1c0.1,0.1,0.2,0.1,0.3,0.2c0.1,0.1,0.3,0.2,0.4,0.3
				c0,0,0.1,0,0.1,0.1c0,0,0,0,0,0c0,0,0.1,0,0.1,0.1c0.1,0,0.1,0.1,0.2,0.1c0.1,0,0.1,0.1,0.2,0.1l0,0c0,0,0.1,0,0.1,0.1
				c0.1,0.1,0.2,0.2,0.4,0.3l0,0c0.3,0.2,0.6,0.5,0.8,0.7c0.1,0.1,0.3,0.2,0.4,0.3c0.1,0.1,0.1,0.1,0.2,0.2c0.1,0.1,0.1,0.1,0.2,0.2
				l0,0c0,0,0.1,0.1,0.1,0.1c0.1,0.1,0.2,0.2,0.2,0.3c0,0,0.1,0.1,0.1,0.1c0,0,0.1,0.1,0.1,0.1c0,0,0.1,0.1,0.1,0.1c0,0,0,0,0,0.1
				c0,0,0,0,0,0.1c0,0,0.1,0.1,0.1,0.1c0,0,0.1,0.1,0.1,0.1c0.8,0.9,1.4,1.9,1.8,3c0,0.1,0,0.1,0.1,0.2l0,0c0,0,0,0,0,0
				c0,0.1,0.1,0.1,0.1,0.2c0,0,0,0,0,0c0,0,0,0.1,0,0.1c0,0,0,0.1,0,0.1c0,0,0,0,0,0.1c0,0,0,0,0,0c0,0.1,0,0.1,0,0.2c0,0,0,0,0,0
				c0,0,0,0.1,0,0.1c0,0,0,0,0,0c0,0,0,0,0,0.1c0,0,0,0,0,0c0,0,0,0,0,0c0,0,0,0,0,0c0,0,0,0,0,0c0,0,0,0,0,0.1c0,0,0,0.1,0,0.1
				c0,0,0,0.1,0,0.1c0,0,0,0.1,0,0.1c0,0,0,0.1,0,0.1c0,0.1,0,0.2,0,0.3l0,0c0,0.1,0,0.2,0,0.3c0,0,0,0,0,0.1c0,0,0,0,0,0
				c0,0.1,0,0.1,0,0.2c0,0,0,0,0,0c0,0,0,0.1,0,0.1c0,0,0,0,0,0c0,0.1,0,0.1,0,0.2c0,0,0,0,0,0c0,0.1,0,0.2,0,0.3c0,0,0,0.1,0,0.1
				c0,0,0,0,0,0c0,0,0,0,0,0c0,0,0,0,0,0c0,0.1,0,0.1,0,0.1c0,0.1,0,0.1,0,0.2c0,0.1,0,0.2,0,0.3c0,0,0,0,0,0.1c0,0.1,0,0.2,0,0.3
				c-0.3,3.2-1.8,6.2-4.6,8c0,0,0,0,0,0c0,0,0,0,0,0c0,0,0,0,0,0c0,0,0,0,0,0c0,0,0,0,0,0c0,0,0,0,0,0c0,0,0,0,0,0c0,0,0,0,0,0
				c-0.1,0-0.2,0.1-0.2,0.1c0,0-0.1,0.1-0.1,0.1c-0.1,0.1-0.2,0.1-0.3,0.2c-0.1,0-0.1,0-0.2,0.1c-0.1,0.1-0.3,0.1-0.4,0.2
				c-0.1,0.1-0.3,0.1-0.4,0.2c-0.1,0-0.2,0.1-0.3,0.1c-0.1,0-0.2,0.1-0.3,0.1c-0.2,0.1-0.5,0.2-0.7,0.3c-0.1,0-0.2,0.1-0.2,0.1
				c-0.3,0.1-0.5,0.2-0.8,0.3c-8,3-17,5.8-21,8.4l0,0c0,0,0,0,0,0c-1.4,0.9-2.5,1.7-3.4,2.5c0,0,0,0,0,0c-0.6,0.5-1.2,1-1.8,1.6
				c0,0,0,0,0,0c0,0,0,0,0,0c-0.7,0.7-1.3,1.4-1.9,2.2c-2,2.6-3.5,5.7-4.2,8.7c-2.3,10.9-11.4,20.3-28.7,27.9
				c-17.9,7.8-28.3,18.5-35.7,27.6c-7.4,9.2-19.7,20.7-19.7,20.7l-4.4,2.9c1.5-0.6,3.7-1.5,6.3-2.4c0.4-0.2,0.8-0.3,1.2-0.5
				c5.2-2.3,11.9-5.4,20.2-8c13-4.2,19-3.6,42.3-17.8c0.6-0.4,1.1-0.7,1.7-1.1c0.2-0.2,0.5-0.3,0.7-0.5c0.2-0.2,0.4-0.3,0.7-0.5
				c3.3-2.3,6.1-4.9,8.5-7.6c2.8-3.3,5.2-7,7.1-10.9c0.9-1.9,1.8-4.5,2.2-5.6c0-0.1,0.1-0.2,0.1-0.3c0-0.1,0.1-0.1,0.1-0.2
				c0-0.1,0-0.1,0-0.1c1.7-4.4,3.4-8.8,5-13.2c0.5-1.3,1-2.5,1.4-3.8c1.7-3.8,3.1-7.3,6-10.3c13-13.3,22.3-12.7,27.2-19.1
				C411.4,78.6,409.5,72,404.3,68z"/>
		</g>
		<path class="st6" d="M283.8,182.5c0,0,28.6-30.4,35.1-34.3c19.2-11.5,33.5-9.1,48.2-35c7.9-14-1.9,24.4-12.7,34.3
			c-9.2,8.4-20.5,3.3-35.6,13C303.7,170.3,283.8,182.5,283.8,182.5z"/>
		<path class="st6" d="M406.4,75.6c-0.4,5.2-4.2,9.3-8.8,11.7c-4.6,2.4-9.8,3.6-14.4,6c-4.6,2.4-8.8,6.6-9.1,11.8c2.5-5,7.8-8,13-10
			c5.2-2,9.5-4.3,14.2-7.3c11.9-7.6,5-17.6,5-17.6C406.2,70.2,406.4,75.6,406.4,75.6z"/>
		<path class="st7" d="M401.3,72.7c-0.2,3.9-2.3,7.7-5.5,9.9c-1.9,1.3-4.1,2.1-6.3,2.8c-1.7,0.6-3.3,1.1-5,1.6
			c-2.6,0.7-5.2,1.3-7.8,2c-2,0.5-4,1.1-5.9,2c-4.4,1.9-8.4,5.5-9.3,10.2c-0.9-2.7-1.8-5.6-4-7.5c-1.2-1-2.7-1.7-4.1-2.2
			c-0.3-0.1-0.7-0.3-1-0.4c5.2-2.6,15.7-11.5,21.6-17.9c1.9-2.1,4-4.3,6.2-6.2c4.7-4,9.8-6.6,15.4-4.4c0.6,0.3,1.2,0.5,1.8,0.8
			c0.1,0.1,0.2,0.1,0.3,0.2C400.1,65.9,401.5,69.3,401.3,72.7z"/>
		<path class="st7" d="M350.4,121.3c-0.1,0.1-0.3,0.2-0.4,0.3C350.1,121.6,350.3,121.4,350.4,121.3z"/>
		<path class="st7" d="M346.2,124.5c-0.2,0.1-0.3,0.2-0.5,0.4C345.9,124.7,346.1,124.6,346.2,124.5z"/>
		<path class="st7" d="M347.7,123.4c-0.1,0.1-0.3,0.2-0.4,0.3C347.4,123.7,347.5,123.6,347.7,123.4z"/>
		<path class="st7" d="M348.4,122.9c-0.1,0.1-0.3,0.2-0.4,0.3C348.1,123.1,348.2,123,348.4,122.9z"/>
		<path class="st7" d="M349.7,121.9c-0.1,0.1-0.3,0.2-0.4,0.3C349.5,122.1,349.6,122,349.7,121.9z"/>
		<path class="st7" d="M349,122.4c-0.1,0.1-0.3,0.2-0.4,0.3C348.8,122.6,348.9,122.5,349,122.4z"/>
		<path class="st8" d="M352.8,119.3C352.8,119.3,352.8,119.3,352.8,119.3c-0.2-0.1-0.4-0.2-0.5-0.3c-0.2-0.1-0.3-0.2-0.5-0.3
			c-0.2-0.1-0.3-0.2-0.5-0.3c-0.2-0.1-0.4-0.2-0.6-0.3c-0.1-0.1-0.3-0.1-0.4-0.2c-1.2-0.6-2.6-1-3.9-1.3c-0.2,0-0.4-0.1-0.6-0.1
			c0,0,0,0,0,0c-0.2,0-0.4-0.1-0.6-0.1c-0.4-0.1-0.8-0.1-1.1-0.2c-0.2,0-0.4-0.1-0.6-0.1c-0.2,0-0.5-0.1-0.7-0.1
			c-0.4,0-0.9-0.1-1.3-0.1c-0.1,0-0.2,0-0.3,0c-0.3,0-0.5,0-0.8-0.1c-0.3,0-0.5,0-0.8,0c-0.2,0-0.5,0-0.7,0c-0.1,0-0.1,0-0.1,0
			c-0.5,0-1,0-1.4,0c-0.6,0-1.2,0-1.8,0.1c-0.3,0-0.5,0-0.8,0c-0.3,0-0.5,0-0.8,0.1c-0.3,0-0.5,0.1-0.8,0.1c-0.3,0-0.5,0.1-0.8,0.1
			c-0.3,0-0.5,0.1-0.8,0.1c-0.5,0.1-1.1,0.2-1.6,0.2c-0.2,0-0.5,0.1-0.7,0.1c2.2-2.3,4-5.1,4.8-8.1c0.3-1.1,0.5-2.3,0.4-3.4
			c-0.2-2.5-1.7-4.9-3.9-6.2c-2.1-1.3-6.6-2.4-9.2-2c-0.1,0-0.3,0.1-0.4,0.1c0.1-0.1,0.2-0.1,0.3-0.2c0,0,0,0,0,0c0,0,0,0,0.1,0
			c1-0.4,3.5-1.1,6.8-1.5c0.2,0,0.5-0.1,0.7-0.1c0.1,0,0.2,0,0.4,0c0.4,0,0.8-0.1,1.2-0.1c0.2,0,0.4,0,0.7-0.1
			c3.4-0.3,7.3-0.4,11.1,0.1c6.1,0.8,14.6,5.6,16.5,11.5c0,0,0,0,0,0c0.1,0.3,0.2,0.6,0.2,0.9c0,0,0,0,0,0c0,0.2,0.1,0.4,0.1,0.5
			c0,0.1,0,0.3,0,0.4C359.4,111.9,356.8,115.6,352.8,119.3z"/>
		<path class="st7" d="M345.5,125c-0.2,0.1-0.4,0.3-0.6,0.4C345.1,125.3,345.3,125.1,345.5,125z"/>
		<path class="st7" d="M341.7,127.6c1-0.7,2-1.4,3-2C343.8,126.2,342.8,126.9,341.7,127.6C341.7,127.6,341.7,127.6,341.7,127.6z"/>
		<path class="st7" d="M346.9,124c-0.2,0.1-0.3,0.2-0.5,0.3C346.6,124.2,346.8,124.1,346.9,124z"/>
		<path class="st7" d="M351,120.8c-0.1,0.1-0.3,0.2-0.4,0.3C350.8,121,350.9,120.9,351,120.8z"/>
		<path class="st7" d="M351.7,120.2c-0.1,0.1-0.3,0.2-0.4,0.4C351.4,120.5,351.6,120.4,351.7,120.2z"/>
		<path class="st7" d="M352.5,119.6c-0.2,0.2-0.4,0.4-0.6,0.5C352.1,119.9,352.3,119.7,352.5,119.6z"/>
		<path class="st9" d="M352.8,119.3c-0.1,0.1-0.2,0.2-0.3,0.3c0,0,0,0,0,0c-0.2,0.2-0.4,0.3-0.6,0.5c-0.1,0.1-0.1,0.1-0.2,0.2
			c-0.1,0.1-0.3,0.2-0.4,0.4c-0.1,0.1-0.2,0.1-0.2,0.2c-0.1,0.1-0.3,0.2-0.4,0.3c-0.1,0.1-0.2,0.1-0.3,0.2c-0.1,0.1-0.3,0.2-0.4,0.3
			c-0.1,0.1-0.2,0.1-0.3,0.2c-0.1,0.1-0.3,0.2-0.4,0.3c-0.1,0.1-0.2,0.1-0.3,0.2c-0.1,0.1-0.3,0.2-0.4,0.3c-0.1,0.1-0.2,0.1-0.3,0.2
			c-0.1,0.1-0.3,0.2-0.4,0.3c-0.1,0.1-0.2,0.1-0.3,0.2c-0.1,0.1-0.3,0.2-0.4,0.3c-0.1,0.1-0.2,0.1-0.3,0.2c-0.2,0.1-0.3,0.2-0.5,0.3
			c-0.1,0.1-0.2,0.1-0.3,0.2c-0.2,0.1-0.3,0.2-0.5,0.4c-0.1,0-0.1,0.1-0.2,0.1c-0.2,0.2-0.4,0.3-0.6,0.4c0,0-0.1,0-0.1,0.1
			c0,0-0.1,0-0.1,0.1c-0.5,0.3-0.9,0.6-1.4,1c-0.3,0.2-0.5,0.3-0.8,0.5c-0.2,0.2-0.5,0.3-0.7,0.5c-0.3,0.2-0.6,0.4-0.9,0.6
			c-0.4,0.2-0.8,0.5-1.2,0.7c-0.4,0.2-0.8,0.5-1.2,0.7c-0.4,0.2-0.8,0.5-1.2,0.7c-0.3,0.2-0.6,0.4-0.9,0.5c-0.8,0.5-1.7,0.9-2.5,1.4
			c-0.3,0.2-0.7,0.4-1.1,0.6c-1.1,0.6-2.2,1.1-3.2,1.7c-0.9,0.5-1.7,0.9-2.6,1.4c-0.4,0.2-0.9,0.5-1.3,0.7c-0.4,0.2-0.9,0.5-1.3,0.7
			c-1.3,0.7-2.6,1.4-3.9,2.2c1-0.9,2.1-1.8,3.2-2.6c1.5-1,3.1-1.9,4.6-2.8c24-13.3,11.1-18.3,1.6-17.5c0-0.1,0-0.2,0.1-0.2
			c0.5-0.1,1.1-0.2,1.6-0.2c0.3,0,0.5-0.1,0.8-0.1c0.3,0,0.5-0.1,0.8-0.1c0.3,0,0.5-0.1,0.8-0.1c0.3,0,0.5,0,0.8-0.1
			c0.3,0,0.5,0,0.8,0c0.6,0,1.2-0.1,1.8-0.1c0.5,0,1,0,1.4,0c0.1,0,0.1,0,0.1,0c0.2,0,0.5,0,0.7,0c0.3,0,0.5,0,0.8,0
			c0.3,0,0.5,0,0.8,0.1c0.1,0,0.2,0,0.3,0c0.4,0,0.9,0.1,1.3,0.1c0.2,0,0.5,0.1,0.7,0.1c0.2,0,0.4,0.1,0.6,0.1
			C347.2,116.6,350.3,117.6,352.8,119.3C352.8,119.3,352.8,119.3,352.8,119.3z"/>
		<path class="st10" d="M352.8,119.2C352.8,119.2,352.8,119.3,352.8,119.2c-0.1,0.1-0.2,0.2-0.2,0.3c-2.9,3.3-7.2,5.6-10.8,8
			c-0.3,0.2-0.6,0.4-0.9,0.6c-0.4,0.2-0.8,0.5-1.2,0.7c-0.4,0.2-0.8,0.5-1.2,0.7c-0.4,0.2-0.8,0.5-1.2,0.7c-0.3,0.2-0.6,0.4-0.9,0.5
			c-0.8,0.5-1.7,0.9-2.5,1.4c-0.3,0.2-0.7,0.4-1.1,0.6c-1.1,0.6-2.2,1.1-3.2,1.7c-0.9,0.5-1.7,0.9-2.6,1.4c-0.4,0.2-0.9,0.5-1.3,0.7
			c-0.4,0.2-0.9,0.5-1.3,0.7c-1.3,0.7-2.6,1.4-3.9,2.2c1-0.9,2.1-1.8,3.2-2.6c1.5-1,3.1-1.9,4.6-2.8c24-13.3,11.1-18.3,1.6-17.5
			c0-0.1,0-0.2,0.1-0.2c0.5-0.1,1.1-0.2,1.6-0.2c0.3,0,0.5-0.1,0.8-0.1c0.3,0,0.5-0.1,0.8-0.1c0.3,0,0.5-0.1,0.8-0.1
			c0.3,0,0.5,0,0.8-0.1c0.3,0,0.5,0,0.8,0c0.6,0,1.2-0.1,1.8-0.1c0.5,0,1,0,1.4,0c0.1,0,0.1,0,0.1,0c0.2,0,0.5,0,0.7,0
			c0.3,0,0.5,0,0.8,0c0.3,0,0.5,0,0.8,0.1c0.1,0,0.2,0,0.3,0c0.4,0,0.9,0.1,1.3,0.1c0.2,0,0.5,0.1,0.7,0.1c0.2,0,0.4,0.1,0.6,0.1
			C347.2,116.6,350.2,117.5,352.8,119.2z"/>
		<path class="st8" d="M372.3,95.8"/>
		<path class="st8" d="M403,73c-0.4,6.3-4,7.4-7.3,9.6c-1.9,1.3-4.1,2.1-6.3,2.8c-1.7,0.6-3.3,1.1-5,1.6c-2.6,0.7-5.2,1.3-7.8,2
			c0.7-0.7,1.5-1.2,2.4-1.7c2.2-1.2,4.7-1.8,7-2.8c2.2-1,4.3-2.3,6-4c2.2-2.1,4-5.1,3.3-8.1c-0.5-1.9-1.9-3.5-3.7-4.4
			c-1.7-0.9-3.7-1.3-5.7-1.4c-1.4-0.1-2.8-0.1-4.2,0c-0.5,0-1,0.2-1.6,0.3c4.7-4,9.8-6.6,15.4-4.4c0.6,0.3,1.2,0.5,1.8,0.8
			c0.1,0.1,0.2,0.1,0.3,0.2C400.1,65.9,403.3,69.6,403,73z"/>
	</g>
	<g>
		<path class="st1" d="M278.6,305.1l-3.8,4.9c-2.4,3.4-4.2,1.2-3.7-0.6c0.1-0.4,0.2-0.7,0.3-1c-7,1.2-5.5-3.6-4-4.4
			c1.2-0.6,3.8-0.3,3.8-0.9c-0.2-2.3-2-1.7-3.2-4c-1.7-3.1,2.3-6,4.7-3.4C276.1,299.3,278.6,305.1,278.6,305.1z"/>
		<path class="st17" d="M320.7,284.6l1.1-4.2c0.2-0.7,1.2-3,1.7-3.5c2.8-3.2,3.7,4.5,3.7,4.8c6.6-2.7,6.3,0.9,5.5,2.4
			c-1.2,2.4-4.6,1.5-4.1,3c0.2,0.7,1.8-0.6,3.7,1.1c2.5,2.3-1.2,6.2-4,4.2C324.4,289.6,320.7,284.6,320.7,284.6z"/>
		<path class="st18" d="M284.5,285.1c-1.3,3-2.2,6.2-2.7,9.7c-0.8,5.9-0.3,11.6,1.3,16.6c-4-1-5.9-5.8-7.6-9.9
			c-1.4-3.4-1.6-6.6-0.3-9.7c1.3-3.1,2.7-4.2,6.1-5.5L284.5,285.1z"/>
		<path class="st15" d="M294.9,295.4c0-0.6,0-1.1,0-1.7C294.9,294.2,294.9,294.8,294.9,295.4z"/>
		<path class="st15" d="M301.2,298.1c0,0,0-0.1,0-0.1c0,0.1,0,0.2,0.1,0.4C301.2,298.2,301.2,298.1,301.2,298.1z"/>
		<path class="st18" d="M322.8,284.2c1.4,3.4,3.2,7.1,1.8,10.2c-1.3,3.1-3.2,4.3-6.5,5.7l-1.2,0.5c-2.3-5.6-3.2-12.2-2.2-19
			c0.3-2.3,0.9-4.5,1.5-6.6C320.3,276,321.2,280.1,322.8,284.2z"/>
		<path class="st17" d="M290.4,282.8c-1.3,3-2.2,6.2-2.7,9.7c-1,6.8-0.1,13.3,2.2,18.9c-2.3,0.6-4.6,0.6-6.7,0.1
			c-1.6-5.1-2.2-10.8-1.3-16.6c0.5-3.4,1.4-6.7,2.7-9.7L290.4,282.8z"/>
		<path class="st16" d="M301.2,297.9c0,0.1,0,0.2,0.1,0.4c0-0.1,0-0.1,0-0.2C301.2,298,301.2,298,301.2,297.9z"/>
		<path class="st18" d="M298,279.7c-0.2,0.4-0.3,0.7-0.5,1.1c-0.2,0.4-0.3,0.9-0.5,1.3c-0.1,0.3-0.2,0.7-0.4,1
			c-0.1,0.4-0.2,0.8-0.4,1.2c-0.1,0.4-0.2,0.8-0.3,1.2c-0.1,0.4-0.2,0.8-0.3,1.1c-0.1,0.3-0.1,0.6-0.2,1c-0.1,0.3-0.1,0.5-0.1,0.8
			c-0.1,0.3-0.1,0.6-0.1,0.9c-0.1,0.8-0.2,1.7-0.3,2.5c0,0.6-0.1,1.2-0.1,1.7c0,0.6,0,1.2,0,1.7c0,3.1,0.4,6,1.2,8.8
			c0.1,0.3,0.1,0.5,0.2,0.8c0.1,0.4,0.2,0.7,0.3,1.1c0.1,0.4,0.2,0.7,0.4,1.1c0.2,0.4,0.3,0.9,0.5,1.3l-6.3,2.5
			c-0.5,0.2-0.9,0.3-1.4,0.5c-2.3-5.6-3.1-12.1-2.2-18.9c0.5-3.4,1.4-6.7,2.7-9.7L298,279.7z"/>
		<path class="st17" d="M303.9,277.3c0,0.1,0,0.1-0.1,0.1c0,0.1-0.1,0.1-0.1,0.2c-0.1,0.3-0.2,0.5-0.3,0.8c-0.4,1.1-0.8,2.1-1.1,3.3
			c0,0.1-0.1,0.3-0.1,0.4c0,0,0,0,0,0.1c-0.1,0.2-0.1,0.5-0.2,0.8c0,0,0,0,0,0.1c-0.1,0.2-0.1,0.4-0.2,0.6c-0.1,0.2-0.1,0.4-0.1,0.6
			c-0.1,0.4-0.2,0.9-0.3,1.3c-0.1,0.5-0.2,1-0.3,1.5c0,0.3-0.1,0.6-0.1,0.9c0,0.3-0.1,0.6-0.1,0.9c-0.1,1.1-0.2,2.1-0.2,3.2
			c0,0.3,0,0.6,0,0.9c0,1.3,0.1,2.6,0.2,3.8c0,0.3,0.1,0.7,0.1,1c0,0.1,0,0.1,0,0.1c0,0.1,0,0.1,0,0.2c0,0.1,0,0.2,0.1,0.4
			c0.1,0.5,0.2,0.9,0.2,1.3c0.1,0.3,0.1,0.5,0.2,0.8c0.1,0.6,0.3,1.2,0.5,1.8c0,0.2,0.1,0.3,0.1,0.5c0.1,0.2,0.1,0.4,0.2,0.6
			c0,0.1,0.1,0.2,0.1,0.4c0.1,0.2,0.1,0.4,0.2,0.6l0.2,0.5c0.1,0.4,0.3,0.7,0.4,1.1l-5.9,2.4c-0.2-0.4-0.3-0.9-0.5-1.3
			c-0.1-0.4-0.3-0.7-0.4-1.1c-0.1-0.3-0.2-0.7-0.3-1.1c-0.1-0.3-0.1-0.5-0.2-0.8c-0.7-2.8-1.1-5.7-1.2-8.8c0-0.6,0-1.1,0-1.7
			c0-0.6,0-1.2,0.1-1.7c0.1-0.8,0.2-1.7,0.3-2.5c0-0.3,0.1-0.6,0.1-0.9c0-0.3,0.1-0.5,0.1-0.8c0.1-0.3,0.1-0.6,0.2-1
			c0.1-0.4,0.2-0.8,0.3-1.1c0.1-0.4,0.2-0.8,0.3-1.2c0.1-0.4,0.2-0.8,0.4-1.2c0.1-0.3,0.2-0.7,0.4-1c0.1-0.4,0.3-0.9,0.5-1.3
			c0.2-0.4,0.3-0.8,0.5-1.1L303.9,277.3z"/>
		<path class="st16" d="M301.2,297.9c0,0.1,0,0.2,0.1,0.4c0-0.1,0-0.1,0-0.2C301.2,298,301.2,298,301.2,297.9z"/>
		<path class="st18" d="M311.3,274.8c-0.1,0.3-0.3,0.7-0.4,1c0,0.1,0,0.1-0.1,0.2c-0.1,0.3-0.2,0.7-0.4,1c-0.1,0.4-0.2,0.7-0.3,1.1
			c-0.1,0.3-0.2,0.6-0.3,0.9c-0.4,1.3-0.6,2.5-0.9,3.9c0,0.2-0.1,0.4-0.1,0.6c0,0.2-0.1,0.4-0.1,0.6c-1,6.8-0.1,13.4,2.2,19
			l-7.6,3.1c-0.1-0.4-0.3-0.7-0.4-1.1l-0.2-0.5c-0.1-0.2-0.1-0.4-0.2-0.6c0-0.1-0.1-0.2-0.1-0.4c-0.1-0.2-0.1-0.4-0.2-0.6
			c0-0.2-0.1-0.3-0.1-0.5c-0.2-0.6-0.3-1.2-0.5-1.8c-0.1-0.3-0.1-0.5-0.2-0.8c-0.1-0.4-0.2-0.9-0.2-1.3c0-0.1,0-0.2-0.1-0.4
			c0-0.1,0-0.2-0.1-0.4c-0.1-0.3-0.1-0.7-0.1-1c-0.2-1.3-0.2-2.5-0.2-3.8c0-0.3,0-0.6,0-0.9c0-1,0.1-2.1,0.2-3.2
			c0-0.3,0.1-0.6,0.1-0.9c0-0.3,0.1-0.6,0.1-0.9c0.1-0.5,0.2-1,0.3-1.5c0.1-0.4,0.2-0.9,0.3-1.3c0-0.2,0.1-0.4,0.1-0.6
			c0-0.2,0.1-0.4,0.2-0.6c0,0,0,0,0-0.1c0.1-0.3,0.1-0.5,0.2-0.8c0,0,0,0,0-0.1c0-0.1,0.1-0.2,0.1-0.4c0.3-1.1,0.7-2.2,1.1-3.3
			c0.1-0.3,0.2-0.6,0.3-0.8c0-0.1,0-0.1,0.1-0.2c0,0,0-0.1,0.1-0.1l4.3-1.7C309.3,275.2,310.3,274.9,311.3,274.8z"/>
		<path class="st17" d="M316.2,275c-0.7,2.1-1.2,4.3-1.5,6.6c-1,6.8-0.1,13.4,2.2,19L311,303c-2.3-5.6-3.2-12.2-2.2-19
			c0-0.2,0.1-0.4,0.1-0.6c0-0.2,0.1-0.4,0.1-0.6c0.2-1.3,0.5-2.6,0.9-3.9c0.1-0.3,0.2-0.6,0.3-0.9c0.1-0.4,0.2-0.7,0.3-1.1
			c0.1-0.3,0.2-0.7,0.4-1c0-0.1,0-0.1,0.1-0.2c0.1-0.3,0.3-0.7,0.4-1C313,274.5,314.6,274.6,316.2,275z"/>
	</g>
	<g>
		<path class="st13" d="M216.9,294l1.3-6.1c0.6-4.1,3.2-2.9,3.5-1.1c0.1,0.4,0.1,0.7,0.1,1.1c5.7-4.2,6.5,0.8,5.5,2.2
			c-0.9,1.1-3.3,2-3,2.4c1.1,2,2.5,0.7,4.6,2.2c2.8,2,0.5,6.4-2.7,5.1C221.6,298.1,216.9,294,216.9,294z"/>
		<path class="st18" d="M188,330.9l0.8,4.2c0.1,0.7,0.2,3.2,0,3.9c-1.1,4.1-5.3-2.4-5.4-2.7c-4.7,5.3-6,2-6,0.3
			c0-2.7,3.5-3.3,2.4-4.5c-0.5-0.6-1.4,1.3-3.8,0.6c-3.3-0.9-1.6-6.1,1.8-5.5C182.6,328,188,330.9,188,330.9z"/>
		<path class="st18" d="M220.3,314.5c-0.2-3.3-0.7-6.6-1.8-9.9c-1.8-5.7-4.8-10.5-8.5-14.4c4-0.9,7.9,2.6,11.1,5.5
			c2.7,2.4,4.3,5.2,4.5,8.6c0.2,3.4-0.6,5-3.1,7.7L220.3,314.5z"/>
		<path class="st15" d="M206.5,309.9c0.3,0.5,0.5,1,0.7,1.6C207,310.9,206.7,310.4,206.5,309.9z"/>
		<path class="st15" d="M199.6,310.2c0,0,0.1,0.1,0.1,0.1c-0.1-0.1-0.1-0.2-0.2-0.3C199.6,310.1,199.6,310.2,199.6,310.2z"/>
		<path class="st18" d="M186.3,332.1c-2.7-2.4-6-5-6.1-8.4c-0.2-3.4,0.9-5.3,3.4-8l0.9-1c4.5,4,8.2,9.6,10.3,16.1
			c0.7,2.2,1.2,4.4,1.5,6.6C192.2,338.4,189.6,335.1,186.3,332.1z"/>
		<path class="st14" d="M216,319.2c-0.2-3.3-0.7-6.6-1.8-9.9c-2.1-6.5-5.8-12-10.3-16.1c1.7-1.6,3.8-2.6,6-3
			c3.7,3.8,6.7,8.7,8.5,14.4c1.1,3.3,1.7,6.7,1.8,9.9L216,319.2z"/>
		<path class="st16" d="M199.7,310.3c-0.1-0.1-0.1-0.2-0.2-0.3c0,0.1,0.1,0.1,0.1,0.2C199.7,310.3,199.7,310.3,199.7,310.3z"/>
		<path class="st18" d="M210.6,325.3c0-0.4,0-0.8-0.1-1.2c0-0.5-0.1-0.9-0.1-1.4c0-0.4-0.1-0.7-0.1-1.1c-0.1-0.4-0.1-0.8-0.2-1.2
			c-0.1-0.4-0.2-0.8-0.2-1.2c-0.1-0.4-0.2-0.8-0.3-1.1c-0.1-0.3-0.2-0.6-0.3-0.9c-0.1-0.3-0.1-0.5-0.2-0.8c-0.1-0.3-0.2-0.6-0.3-0.9
			c-0.3-0.8-0.5-1.6-0.9-2.4c-0.2-0.5-0.4-1.1-0.7-1.6c-0.2-0.5-0.5-1-0.7-1.6c-1.4-2.7-3-5.2-4.9-7.4c-0.2-0.2-0.4-0.4-0.5-0.6
			c-0.2-0.3-0.5-0.5-0.8-0.8c-0.3-0.3-0.5-0.6-0.8-0.8c-0.3-0.3-0.7-0.6-1-0.9l4.5-5c0.3-0.4,0.7-0.7,1-1c4.5,4,8.1,9.5,10.3,16.1
			c1.1,3.3,1.7,6.7,1.8,9.9L210.6,325.3z"/>
		<path class="st14" d="M206.3,330c0-0.1,0-0.1,0-0.2c0-0.1,0-0.1,0-0.2c0-0.3,0-0.6-0.1-0.9c-0.1-1.1-0.2-2.3-0.4-3.4
			c0-0.1,0-0.3-0.1-0.4c0,0,0,0,0-0.1c0-0.3-0.1-0.5-0.2-0.8c0,0,0,0,0-0.1c0-0.2-0.1-0.4-0.1-0.6c0-0.2-0.1-0.4-0.1-0.6
			c-0.1-0.4-0.2-0.8-0.3-1.3c-0.1-0.5-0.3-1-0.4-1.5c-0.1-0.3-0.2-0.6-0.3-0.9c-0.1-0.3-0.2-0.6-0.3-0.9c-0.4-1-0.8-2-1.2-2.9
			c-0.1-0.3-0.3-0.6-0.4-0.8c-0.6-1.2-1.2-2.3-1.9-3.3c-0.2-0.3-0.4-0.6-0.6-0.9c0,0-0.1-0.1-0.1-0.1c0-0.1-0.1-0.1-0.1-0.2
			c-0.1-0.1-0.1-0.2-0.2-0.3c-0.3-0.4-0.5-0.7-0.8-1.1c-0.2-0.2-0.3-0.4-0.5-0.7c-0.4-0.5-0.8-0.9-1.2-1.4c-0.1-0.1-0.2-0.2-0.3-0.4
			c-0.1-0.1-0.3-0.3-0.4-0.4c-0.1-0.1-0.2-0.2-0.3-0.3c-0.2-0.2-0.3-0.3-0.4-0.4l-0.4-0.3c-0.3-0.3-0.6-0.5-0.8-0.8l4.2-4.7
			c0.3,0.3,0.7,0.6,1,0.9c0.3,0.3,0.5,0.5,0.8,0.8c0.3,0.3,0.5,0.5,0.8,0.8c0.2,0.2,0.4,0.4,0.5,0.6c1.9,2.2,3.6,4.7,4.9,7.4
			c0.3,0.5,0.5,1,0.7,1.6c0.2,0.5,0.5,1.1,0.7,1.6c0.3,0.8,0.6,1.6,0.9,2.4c0.1,0.3,0.2,0.6,0.3,0.9c0.1,0.3,0.2,0.5,0.2,0.8
			c0.1,0.3,0.2,0.6,0.3,0.9c0.1,0.4,0.2,0.8,0.3,1.1c0.1,0.4,0.2,0.8,0.2,1.2c0.1,0.4,0.1,0.8,0.2,1.2c0.1,0.4,0.1,0.7,0.1,1.1
			c0.1,0.5,0.1,0.9,0.1,1.4c0,0.4,0.1,0.8,0.1,1.2L206.3,330z"/>
		<path class="st16" d="M199.7,310.3c-0.1-0.1-0.1-0.2-0.2-0.3c0,0.1,0.1,0.1,0.1,0.2C199.7,310.3,199.7,310.3,199.7,310.3z"/>
		<path class="st18" d="M200.8,335.6c0-0.4,0-0.7-0.1-1.1c0-0.1,0-0.1,0-0.2c0-0.4-0.1-0.7-0.1-1.1c0-0.4-0.1-0.7-0.2-1.1
			c0-0.3-0.1-0.6-0.2-0.9c-0.2-1.3-0.5-2.6-0.9-3.9c-0.1-0.2-0.1-0.4-0.2-0.6c-0.1-0.2-0.1-0.4-0.2-0.6c-2.1-6.6-5.8-12.1-10.3-16.1
			l5.5-6.1c0.3,0.3,0.6,0.5,0.8,0.8l0.4,0.3c0.2,0.1,0.3,0.3,0.4,0.4c0.1,0.1,0.2,0.2,0.3,0.3c0.1,0.1,0.3,0.3,0.4,0.4
			c0.1,0.1,0.2,0.2,0.3,0.4c0.4,0.4,0.8,0.9,1.2,1.4c0.2,0.2,0.4,0.4,0.5,0.7c0.3,0.4,0.5,0.7,0.8,1.1c0.1,0.1,0.1,0.2,0.2,0.3
			c0.1,0.1,0.1,0.2,0.2,0.3c0.2,0.3,0.4,0.6,0.6,0.9c0.7,1.1,1.3,2.2,1.9,3.3c0.1,0.3,0.3,0.6,0.4,0.8c0.5,0.9,0.9,1.9,1.2,2.9
			c0.1,0.3,0.2,0.6,0.3,0.9c0.1,0.3,0.2,0.6,0.3,0.9c0.2,0.5,0.3,1,0.4,1.5c0.1,0.4,0.2,0.8,0.3,1.3c0.1,0.2,0.1,0.4,0.1,0.6
			c0.1,0.2,0.1,0.4,0.1,0.6c0,0,0,0,0,0.1c0.1,0.3,0.1,0.5,0.2,0.8c0,0,0,0,0,0.1c0,0.1,0,0.2,0.1,0.4c0.2,1.1,0.3,2.3,0.4,3.4
			c0,0.3,0,0.6,0.1,0.9c0,0.1,0,0.1,0,0.2c0,0.1,0,0.1,0,0.2l-3.1,3.5C202.4,334.3,201.6,335,200.8,335.6z"/>
		<path class="st14" d="M196.2,337.5c-0.3-2.2-0.8-4.4-1.5-6.6c-2.1-6.6-5.8-12.1-10.3-16.1l4.3-4.7c4.5,4,8.2,9.6,10.3,16.1
			c0.1,0.2,0.1,0.4,0.2,0.6c0.1,0.2,0.1,0.4,0.2,0.6c0.4,1.3,0.7,2.6,0.9,3.9c0.1,0.3,0.1,0.6,0.2,0.9c0.1,0.4,0.1,0.7,0.2,1.1
			c0,0.4,0.1,0.7,0.1,1.1c0,0.1,0,0.1,0,0.2c0,0.4,0.1,0.7,0.1,1.1C199.4,336.5,197.8,337.2,196.2,337.5z"/>
	</g>
	<g>
		<path class="st6" d="M194,211.7c0.5-0.3,1-0.5,1.3,0c6.7,10.7,13.5,22.3,20.2,33.5c3.7,6.3,7.5,12.7,11.1,18.8
			c0.3,0.5,0.1,1.2-0.4,1.5l0,0c-0.5,0.3-1.2,0.1-1.5-0.4c-3.7-6.1-7.5-12.6-11.2-18.8c-6.6-11.2-13.4-22.8-20.1-33.5
			C193.1,212.4,193.4,212.1,194,211.7L194,211.7z"/>
		<path class="st12" d="M208.4,270.6c2.3-11.4,15.4-19.5,26.6-18.5c7,0.6,14.1,4.5,17.9,10.5c0.6,1,1.1,2,1.6,3.1
			c4.3,10.6,0.3,21.3-7.5,27.6c-4.4,3.5-9.9,5.7-15.9,5.7c-1.4,0-2.8-0.1-4.2-0.3C214.8,296.7,205.9,283.1,208.4,270.6z"/>
		<path class="st13" d="M211,271.5c1.2-5.5,4.6-10.4,9.3-13.5c0.3-0.2,0.6-0.4,0.9-0.5c1.4-0.8,3-1.6,4.8-2.3
			c8.3-3.1,16.8-1.1,22.2,5.1c3.5,4,5.5,9.6,5.5,15.3c0,6.4-2.3,12.5-6.6,17.6c-4.4,3.5-9.9,5.7-15.9,5.7c2.6-1,5.7-2.5,7.1-3.4
			c7.2-4.9,11.3-12.1,11.3-19.9c0-4.7-1.6-9.3-4.5-12.5c-4.3-4.9-11-6.4-17.6-4c-1.9,0.7-3.4,1.5-4.8,2.4c-3.8,2.5-6.5,6.5-7.5,10.9
			c-0.9,4.4,0,9.2,2.5,12.8c1.6,2.3,3.7,3.9,5.9,4.7c2.6,0.9,5.8,0.5,8.5-0.9c2.6-1.4,4.8-3.7,6.3-6.6c1.1-2,2.3-5.1,1.9-8.5
			c-0.3-2.9-1.8-5.6-3.9-7.1c-1.8-1.3-4.3-1.8-6.6-1.4c-2.3,0.4-4.5,1.7-6.1,3.5c-1.5,1.7-2.4,3.9-2.4,6c0,2.1,0.9,4.2,2.4,5.4
			c1.5,1.2,3.7,1.4,5.3,0.6c0.8-0.4,1.5-1.1,2.2-2.1c0.7-1,1.1-2,1.2-3c0.1-0.9-0.2-1.7-0.8-2.2c-0.4-0.3-1.1-0.4-1.4-0.2
			c-0.1,0.1-0.2,0.5-0.1,0.6c0.9,0.7,1,2.1,0.2,2.9c-0.7,0.9-2.1,1-3,0.2c-1-0.8-1.5-2.1-1.5-3.4c0-1.4,0.7-2.8,1.7-3.7
			c1.9-1.5,4.7-1.4,6.7,0.2c1.6,1.3,2.4,3.4,2.3,5.7c-0.1,1.7-0.8,3.4-2,5.1c-1.1,1.5-2.3,2.7-3.7,3.4c-3,1.6-7,1.2-9.8-1
			c-2.6-2-4.1-5.3-4-8.7c0-3.1,1.3-6.1,3.4-8.6c2.2-2.6,5.3-4.3,8.5-4.9c3.4-0.6,7,0.1,9.8,2.1c3.1,2.2,5.2,6,5.7,10.1
			c0.4,3.6-0.4,7.4-2.4,11c-2,3.7-4.8,6.6-8.1,8.4c-3.8,2-8.1,2.5-11.8,1.2c-3.1-1-5.9-3.2-8-6.2C211,283.1,209.8,277.1,211,271.5z"
			/>
	</g>
	<g>
		<path class="st13" d="M199.8,327c2.3-11.4,15.4-19.5,26.6-18.5c7,0.6,14.1,4.5,17.9,10.5c0.6,1,1.1,2,1.6,3.1
			c4.3,10.6,0.3,21.3-7.5,27.6c-4.4,3.5-9.9,5.7-15.9,5.7c-1.4,0-2.8-0.1-4.2-0.3C206.2,353.1,197.3,339.5,199.8,327z"/>
		<path class="st12" d="M202.4,327.9c1.2-5.5,4.6-10.4,9.3-13.5c0.3-0.2,0.6-0.4,0.9-0.5c1.4-0.8,3-1.6,4.8-2.3
			c8.3-3.1,16.8-1.1,22.2,5.1c3.5,4,5.5,9.6,5.5,15.3c0,6.4-2.3,12.5-6.6,17.6c-4.4,3.5-9.9,5.7-15.9,5.7c2.6-1,5.7-2.5,7.1-3.4
			c7.2-4.9,11.3-12.1,11.3-19.9c0-4.7-1.6-9.3-4.5-12.5c-4.3-4.9-11-6.4-17.6-4c-1.9,0.7-3.4,1.5-4.8,2.4c-3.8,2.5-6.5,6.5-7.5,10.9
			c-0.9,4.4,0,9.2,2.5,12.8c1.6,2.3,3.7,3.9,5.9,4.7c2.6,0.9,5.8,0.5,8.5-0.9c2.6-1.4,4.8-3.7,6.3-6.6c1.1-2,2.3-5.1,1.9-8.5
			c-0.3-2.9-1.8-5.6-3.9-7.1c-1.8-1.3-4.3-1.8-6.6-1.4c-2.3,0.4-4.5,1.7-6.1,3.5c-1.5,1.7-2.4,3.9-2.4,6c0,2.1,0.9,4.2,2.4,5.4
			c1.5,1.2,3.7,1.4,5.3,0.6c0.8-0.4,1.5-1.1,2.2-2.1c0.7-1,1.1-2,1.2-3c0.1-0.9-0.2-1.7-0.8-2.2c-0.4-0.3-1.1-0.4-1.4-0.2
			c-0.1,0.1-0.2,0.5-0.1,0.6c0.9,0.7,1,2.1,0.2,2.9c-0.7,0.9-2.1,1-3,0.2c-1-0.8-1.5-2.1-1.5-3.4c0-1.4,0.7-2.8,1.7-3.7
			c1.9-1.5,4.7-1.4,6.7,0.2c1.6,1.3,2.4,3.4,2.3,5.7c-0.1,1.7-0.8,3.4-2,5.1c-1.1,1.5-2.3,2.7-3.7,3.4c-3,1.6-7,1.2-9.8-1
			c-2.6-2-4.1-5.3-4-8.7c0-3.1,1.3-6.1,3.4-8.6c2.2-2.6,5.3-4.3,8.5-4.9c3.4-0.6,7,0.1,9.8,2.1c3.1,2.2,5.2,6,5.7,10.1
			c0.4,3.6-0.4,7.4-2.4,11c-2,3.7-4.8,6.6-8.1,8.4c-3.8,2-8.1,2.5-11.8,1.2c-3.1-1-5.9-3.2-8-6.2
			C202.4,339.5,201.2,333.4,202.4,327.9z"/>
	</g>
	<g>
		<path class="st1" d="M256.7,321.6c-4.7,10.6-19.2,15.6-29.8,12.3c-6.7-2.1-12.7-7.4-15.1-14c-0.4-1.1-0.7-2.2-0.9-3.3
			c-1.9-11.2,4.2-20.7,13.2-25.2c5-2.5,10.9-3.4,16.7-2.1c1.3,0.3,2.7,0.7,4,1.2C256.1,294.9,261.8,310.1,256.7,321.6z"/>
		<path class="st11" d="M254.4,320.2c-2.3,5-6.6,9.1-11.9,11.1c-0.3,0.1-0.6,0.2-0.9,0.3c-1.6,0.5-3.3,0.9-5.1,1.2
			c-8.7,1.2-16.5-2.5-20.5-9.7c-2.5-4.6-3.3-10.5-2.1-16c1.4-6.2,5-11.7,10.2-15.6c5-2.5,10.9-3.4,16.7-2.1
			c-2.7,0.4-6.1,1.2-7.6,1.8c-8,3.2-13.6,9.4-15.2,16.9c-1,4.6-0.4,9.3,1.7,13.1c3.1,5.6,9.3,8.6,16.2,7.6c2-0.3,3.6-0.7,5.2-1.3
			c4.2-1.6,7.7-4.9,9.6-8.9c1.9-4.1,2-8.9,0.3-13c-1-2.5-2.7-4.6-4.7-5.8c-2.4-1.4-5.5-1.8-8.5-0.9c-2.8,0.8-5.4,2.5-7.6,5.1
			c-1.5,1.7-3.3,4.5-3.7,7.9c-0.3,2.9,0.5,5.8,2.3,7.7c1.5,1.6,3.8,2.7,6.1,2.8c2.3,0.1,4.7-0.7,6.6-2.1c1.8-1.4,3.2-3.3,3.6-5.3
			c0.5-2.1,0-4.2-1.2-5.7c-1.2-1.5-3.3-2.2-5-1.7c-0.8,0.2-1.7,0.8-2.6,1.5c-0.9,0.9-1.6,1.7-1.8,2.6c-0.2,0.8-0.1,1.7,0.3,2.3
			c0.3,0.4,1,0.6,1.3,0.4c0.2-0.1,0.3-0.4,0.2-0.6c-0.7-0.9-0.5-2.2,0.4-2.9c0.9-0.7,2.2-0.5,2.9,0.4c0.8,1,1,2.3,0.7,3.6
			c-0.3,1.4-1.2,2.6-2.5,3.2c-2.1,1-4.9,0.4-6.5-1.6c-1.3-1.6-1.6-3.9-1-6c0.5-1.6,1.5-3.1,3-4.5c1.4-1.3,2.8-2.1,4.3-2.5
			c3.3-0.9,7,0.3,9.3,3.1c2.1,2.5,2.8,6,2.1,9.3c-0.7,3-2.5,5.7-5.2,7.7c-2.7,2-6,3.1-9.3,3c-3.5-0.1-6.8-1.6-9-4.1
			c-2.6-2.8-3.8-6.9-3.4-11c0.4-3.5,2-7,4.6-10.1c2.7-3.2,6-5.4,9.6-6.4c4.1-1.2,8.4-0.7,11.8,1.4c2.8,1.6,5,4.4,6.4,7.8
			C256.9,309,256.7,315.1,254.4,320.2z"/>
	</g>
	<g>
		<path class="st11" d="M308,275.6c-4.7,10.6-19.2,15.6-29.8,12.3c-6.7-2.1-12.7-7.4-15.1-14c-0.4-1.1-0.7-2.2-0.9-3.3
			c-1.9-11.2,4.2-20.7,13.2-25.2c5-2.5,10.9-3.4,16.7-2.1c1.3,0.3,2.7,0.7,4,1.2C307.4,248.9,313.2,264.1,308,275.6z"/>
		<path class="st1" d="M305.8,274.2c-2.3,5-6.6,9.1-11.9,11.1c-0.3,0.1-0.6,0.2-0.9,0.3c-1.6,0.5-3.3,0.9-5.1,1.2
			c-8.7,1.2-16.5-2.5-20.5-9.7c-2.5-4.6-3.3-10.5-2.1-16c1.4-6.2,5-11.7,10.2-15.6c5-2.5,10.9-3.4,16.7-2.1
			c-2.7,0.4-6.1,1.2-7.6,1.8c-8,3.2-13.6,9.4-15.2,16.9c-1,4.6-0.4,9.3,1.7,13.1c3.1,5.6,9.3,8.6,16.2,7.6c2-0.3,3.6-0.7,5.2-1.3
			c4.2-1.6,7.7-4.9,9.6-8.9c1.9-4.1,2-8.9,0.3-13c-1-2.5-2.7-4.6-4.7-5.8c-2.4-1.4-5.5-1.8-8.5-0.9c-2.8,0.8-5.4,2.5-7.6,5.1
			c-1.5,1.7-3.3,4.5-3.7,7.9c-0.3,2.9,0.5,5.8,2.3,7.7c1.5,1.6,3.8,2.7,6.1,2.8c2.3,0.1,4.7-0.7,6.6-2.1c1.8-1.4,3.2-3.3,3.6-5.3
			c0.5-2.1,0-4.2-1.2-5.7c-1.2-1.5-3.3-2.2-5-1.7c-0.8,0.2-1.7,0.8-2.6,1.5c-0.9,0.9-1.6,1.7-1.8,2.6c-0.2,0.8-0.1,1.7,0.3,2.3
			c0.3,0.4,1,0.6,1.3,0.4c0.2-0.1,0.3-0.4,0.2-0.6c-0.7-0.9-0.5-2.2,0.4-2.9c0.9-0.7,2.2-0.5,2.9,0.4c0.8,1,1,2.3,0.7,3.6
			c-0.3,1.4-1.2,2.6-2.5,3.2c-2.1,1-4.9,0.4-6.5-1.6c-1.3-1.6-1.6-3.9-1-6c0.5-1.6,1.5-3.1,3-4.5c1.4-1.3,2.8-2.1,4.3-2.5
			c3.3-0.9,7,0.3,9.3,3.1c2.1,2.5,2.8,6,2.1,9.3c-0.7,3-2.5,5.7-5.2,7.7c-2.7,2-6,3.1-9.3,3c-3.5-0.1-6.8-1.6-9-4.1
			c-2.6-2.8-3.8-6.9-3.4-11c0.4-3.5,2-7,4.6-10.1c2.7-3.2,6-5.4,9.6-6.4c4.1-1.2,8.4-0.7,11.8,1.4c2.8,1.6,5,4.4,6.4,7.8
			C308.3,263,308.1,269.1,305.8,274.2z"/>
	</g>
	<g>
		<path class="st1" d="M278.2,295.4c-4,9.1-16.5,13.4-25.6,10.6c-5.8-1.8-10.9-6.4-13-12.1c-0.3-0.9-0.6-1.9-0.8-2.9
			c-1.6-9.6,3.7-17.8,11.4-21.6c4.3-2.1,9.3-2.9,14.4-1.8c1.1,0.2,2.3,0.6,3.4,1C277.7,272.4,282.6,285.5,278.2,295.4z"/>
		<path class="st14" d="M276.3,294.2c-2,4.3-5.7,7.8-10.2,9.5c-0.3,0.1-0.5,0.2-0.8,0.3c-1.3,0.4-2.8,0.8-4.4,1
			c-7.5,1-14.2-2.2-17.6-8.4c-2.2-4-2.8-9-1.8-13.8c1.2-5.4,4.3-10,8.8-13.4c4.3-2.1,9.3-2.9,14.4-1.8c-2.3,0.3-5.2,1-6.5,1.5
			c-6.9,2.7-11.7,8-13.1,14.5c-0.9,3.9-0.3,8,1.4,11.3c2.7,4.9,8,7.4,14,6.5c1.7-0.2,3.1-0.6,4.4-1.1c3.7-1.4,6.7-4.2,8.2-7.7
			c1.6-3.5,1.7-7.7,0.3-11.2c-0.9-2.2-2.3-3.9-4-5c-2-1.2-4.8-1.5-7.3-0.8c-2.4,0.7-4.6,2.2-6.5,4.4c-1.3,1.5-2.8,3.8-3.2,6.8
			c-0.3,2.5,0.4,5,2,6.6c1.3,1.4,3.3,2.3,5.3,2.4c2,0.1,4-0.6,5.7-1.8c1.6-1.2,2.7-2.8,3.1-4.5c0.4-1.8,0-3.7-1-4.9
			c-1.1-1.3-2.8-1.9-4.3-1.5c-0.7,0.2-1.5,0.6-2.2,1.3c-0.8,0.7-1.3,1.5-1.6,2.3c-0.2,0.7-0.1,1.5,0.2,1.9c0.3,0.4,0.8,0.5,1.1,0.4
			c0.1-0.1,0.2-0.4,0.2-0.5c-0.6-0.8-0.5-1.9,0.3-2.5c0.8-0.6,1.9-0.4,2.5,0.3c0.7,0.9,0.9,2,0.6,3.1c-0.3,1.2-1.1,2.2-2.1,2.7
			c-1.8,0.9-4.2,0.3-5.5-1.4c-1.1-1.4-1.4-3.3-0.9-5.2c0.4-1.4,1.3-2.7,2.6-3.9c1.2-1.1,2.4-1.8,3.7-2.1c2.8-0.8,6,0.3,8,2.7
			c1.8,2.1,2.4,5.1,1.8,8c-0.6,2.5-2.2,4.9-4.5,6.6c-2.3,1.8-5.2,2.7-8,2.5c-3-0.1-5.8-1.4-7.8-3.5c-2.2-2.4-3.3-5.9-2.9-9.5
			c0.3-3,1.7-6.1,4-8.7c2.3-2.7,5.2-4.6,8.3-5.5c3.5-1,7.2-0.6,10.1,1.2c2.4,1.4,4.3,3.8,5.5,6.7
			C278.4,284.5,278.3,289.8,276.3,294.2z"/>
	</g>
	<g>
		<path class="st11" d="M248.5,203.3c-3.2,7.3-13.2,10.7-20.5,8.4c-4.6-1.4-8.7-5.1-10.4-9.6c-0.3-0.7-0.5-1.5-0.6-2.3
			c-1.3-7.7,2.9-14.2,9.1-17.3c3.4-1.7,7.5-2.3,11.5-1.4c0.9,0.2,1.8,0.5,2.7,0.8C248.1,185,252,195.4,248.5,203.3z"/>
		<path class="st1" d="M247,202.3c-1.6,3.5-4.6,6.2-8.2,7.6c-0.2,0.1-0.4,0.2-0.6,0.2c-1.1,0.4-2.2,0.6-3.5,0.8
			c-6,0.8-11.3-1.7-14.1-6.7c-1.7-3.2-2.3-7.2-1.4-11c0.9-4.3,3.4-8,7-10.7c3.4-1.7,7.5-2.3,11.5-1.4c-1.9,0.3-4.2,0.8-5.2,1.2
			c-5.5,2.2-9.3,6.4-10.5,11.6c-0.7,3.1-0.3,6.4,1.1,9c2.1,3.9,6.4,5.9,11.1,5.2c1.3-0.2,2.5-0.5,3.5-0.9c2.9-1.1,5.3-3.4,6.6-6.1
			c1.3-2.8,1.4-6.1,0.2-8.9c-0.7-1.7-1.9-3.2-3.2-4c-1.6-1-3.8-1.2-5.8-0.6c-1.9,0.5-3.7,1.7-5.2,3.5c-1,1.2-2.3,3.1-2.5,5.4
			c-0.2,2,0.4,4,1.6,5.3c1,1.1,2.6,1.8,4.2,1.9c1.6,0.1,3.2-0.5,4.6-1.5c1.3-0.9,2.2-2.3,2.5-3.6c0.3-1.4,0-2.9-0.8-3.9
			c-0.8-1-2.3-1.5-3.4-1.2c-0.6,0.2-1.2,0.5-1.8,1.1c-0.6,0.6-1.1,1.2-1.2,1.8c-0.2,0.6-0.1,1.2,0.2,1.6c0.2,0.3,0.7,0.4,0.9,0.3
			c0.1-0.1,0.2-0.3,0.2-0.4c-0.5-0.6-0.4-1.5,0.3-2c0.6-0.5,1.5-0.4,2,0.3c0.5,0.7,0.7,1.6,0.5,2.5c-0.2,1-0.9,1.8-1.7,2.2
			c-1.5,0.7-3.4,0.2-4.4-1.1c-0.9-1.1-1.1-2.7-0.7-4.1c0.3-1.1,1-2.2,2.1-3.1c0.9-0.9,1.9-1.4,3-1.7c2.3-0.6,4.8,0.2,6.4,2.1
			c1.4,1.7,1.9,4.1,1.4,6.4c-0.5,2-1.7,3.9-3.6,5.3c-1.9,1.4-4.1,2.1-6.4,2c-2.4-0.1-4.6-1.1-6.2-2.8c-1.8-1.9-2.6-4.7-2.3-7.6
			c0.3-2.4,1.4-4.8,3.2-7c1.9-2.2,4.1-3.7,6.6-4.4c2.8-0.8,5.8-0.5,8.1,0.9c1.9,1.1,3.5,3,4.4,5.3
			C248.6,194.6,248.5,198.8,247,202.3z"/>
	</g>
	<g>
		<path class="st6" d="M374.2,284.1c0.3,0.5,0.5,1,0,1.3c-10.5,6.9-22,14-33.1,20.9c-6.2,3.8-12.6,7.8-18.6,11.5
			c-0.5,0.3-1.2,0.2-1.6-0.4l0,0c-0.3-0.5-0.2-1.2,0.4-1.6c6-3.8,12.4-7.7,18.6-11.6c11.1-6.8,22.5-13.9,33-20.8
			C373.5,283.2,373.9,283.6,374.2,284.1L374.2,284.1z"/>
		<path class="st13" d="M315.7,299.9c11.4,2.1,19.8,15,19.1,26.2c-0.5,7.1-4.2,14.2-10.1,18.1c-1,0.6-2,1.2-3,1.6
			c-10.5,4.5-21.3,0.8-27.7-6.9c-3.6-4.3-5.9-9.8-6-15.8c0-1.4,0-2.8,0.2-4.2C289.7,306.8,303.2,297.6,315.7,299.9z"/>
		<path class="st14" d="M314.8,302.4c5.5,1.1,10.5,4.3,13.7,9c0.2,0.3,0.4,0.6,0.6,0.8c0.9,1.4,1.7,3,2.4,4.7
			c3.2,8.2,1.4,16.8-4.6,22.3c-3.9,3.6-9.4,5.7-15.1,5.8c-6.4,0.2-12.6-2.1-17.7-6.3c-3.6-4.3-5.9-9.8-6-15.8c1,2.6,2.6,5.7,3.5,7
			c5,7.1,12.4,11.1,20.1,10.9c4.7-0.1,9.2-1.8,12.4-4.7c4.8-4.4,6.1-11.1,3.6-17.7c-0.7-1.8-1.5-3.4-2.5-4.7
			c-2.6-3.8-6.6-6.4-11-7.3c-4.4-0.8-9.2,0.2-12.8,2.8c-2.2,1.6-3.8,3.7-4.5,6c-0.8,2.7-0.4,5.8,1.1,8.5c1.4,2.5,3.8,4.7,6.8,6.2
			c2,1,5.1,2.1,8.6,1.7c2.9-0.4,5.5-1.9,7-4.1c1.2-1.9,1.7-4.3,1.2-6.6c-0.5-2.3-1.8-4.4-3.7-6c-1.8-1.5-4-2.3-6-2.3
			c-2.1,0-4.2,1-5.3,2.5c-1.2,1.6-1.4,3.7-0.5,5.3c0.4,0.8,1.1,1.5,2.1,2.2c1.1,0.7,2.1,1.1,3,1.1c0.9,0,1.7-0.3,2.1-0.8
			c0.3-0.4,0.4-1.1,0.1-1.4c-0.1-0.1-0.5-0.2-0.6-0.1c-0.7,0.9-2,1-2.9,0.3c-0.9-0.7-1-2.1-0.3-3c0.8-1,2-1.6,3.4-1.6
			c1.4,0,2.8,0.6,3.7,1.7c1.5,1.8,1.5,4.7,0,6.7c-1.3,1.6-3.4,2.5-5.6,2.4c-1.7-0.1-3.4-0.7-5.1-1.9c-1.5-1-2.7-2.3-3.5-3.6
			c-1.7-3-1.3-7,0.8-9.8c1.9-2.6,5.2-4.2,8.6-4.2c3.1,0,6.1,1.1,8.7,3.2c2.6,2.2,4.5,5.2,5.1,8.4c0.7,3.4,0,7-1.9,9.8
			c-2.1,3.2-5.8,5.4-10,5.9c-3.6,0.4-7.4-0.3-11-2.1c-3.7-1.9-6.7-4.6-8.5-7.9c-2.1-3.7-2.6-8-1.5-11.8c0.9-3.1,3.1-6,6.1-8.1
			C303.3,302.7,309.3,301.4,314.8,302.4z"/>
	</g>
	<g>
		<path class="st13" d="M285,213.1l3.7-4.4c2.3-3.1,3.9-0.9,3.3,0.7c-0.1,0.3-0.2,0.6-0.3,0.9c6.5-0.9,5,3.5,3.6,4.1
			c-1.2,0.5-3.5,0.2-3.5,0.7c0.1,2.1,1.7,1.6,2.8,3.7c1.4,2.9-2.3,5.4-4.4,3C287.2,218.4,285,213.1,285,213.1z"/>
		<path class="st13" d="M245.8,230.7l-1.1,3.8c-0.2,0.7-1.2,2.7-1.7,3.2c-2.7,2.9-3.3-4.3-3.2-4.5c-6.1,2.3-5.7-1-5-2.4
			c1.2-2.2,4.2-1.2,3.9-2.7c-0.2-0.7-1.7,0.5-3.4-1.1c-2.2-2.2,1.3-5.6,3.8-3.7C242.6,226,245.8,230.7,245.8,230.7z"/>
		<path class="st13" d="M279,231.2c1.3-2.7,2.2-5.7,2.8-8.8c0.9-5.4,0.6-10.6-0.7-15.3c3.6,1,5.3,5.5,6.6,9.3c1.1,3.1,1.3,6.1,0,8.9
			c-1.3,2.8-2.6,3.8-5.8,4.9L279,231.2z"/>
		<path class="st15" d="M269.8,221.5c0,0.5,0,1.1-0.1,1.6C269.7,222.6,269.8,222.1,269.8,221.5z"/>
		<path class="st15" d="M264.1,218.9c0,0,0,0.1,0,0.1c0-0.1,0-0.2,0-0.3C264.1,218.7,264.1,218.8,264.1,218.9z"/>
		<path class="st13" d="M243.8,231c-1.1-3.1-2.7-6.6-1.4-9.4c1.3-2.8,3-3.9,6.2-5l1.1-0.4c1.9,5.2,2.6,11.3,1.5,17.5
			c-0.4,2.1-0.9,4.1-1.6,6C245.9,238.6,245.2,234.8,243.8,231z"/>
		<path class="st14" d="M273.5,233.2c1.3-2.7,2.2-5.7,2.8-8.8c1.1-6.2,0.5-12.3-1.4-17.5c2.1-0.5,4.2-0.4,6.2,0.1
			c1.4,4.7,1.7,9.9,0.7,15.3c-0.6,3.2-1.5,6.1-2.8,8.8L273.5,233.2z"/>
		<path class="st16" d="M264.1,219c0-0.1,0-0.2,0-0.3c0,0.1,0,0.1,0,0.2C264.1,218.9,264.1,219,264.1,219z"/>
		<path class="st13" d="M266.5,235.8c0.2-0.3,0.3-0.7,0.5-1c0.2-0.4,0.3-0.8,0.5-1.2c0.1-0.3,0.2-0.6,0.4-1c0.1-0.4,0.3-0.7,0.4-1.1
			c0.1-0.4,0.2-0.7,0.3-1.1c0.1-0.3,0.2-0.7,0.3-1c0.1-0.3,0.1-0.6,0.2-0.9c0.1-0.2,0.1-0.5,0.2-0.7c0.1-0.3,0.1-0.5,0.2-0.8
			c0.1-0.8,0.2-1.5,0.3-2.3c0.1-0.5,0.1-1.1,0.1-1.6c0-0.5,0.1-1.1,0.1-1.6c0.1-2.8-0.2-5.5-0.8-8.1c-0.1-0.2-0.1-0.5-0.2-0.7
			c-0.1-0.3-0.2-0.7-0.3-1c-0.1-0.3-0.2-0.7-0.3-1c-0.1-0.4-0.3-0.8-0.4-1.2l5.8-2.1c0.4-0.2,0.9-0.3,1.3-0.4
			c1.9,5.2,2.5,11.2,1.4,17.5c-0.6,3.2-1.5,6.1-2.8,8.8L266.5,235.8z"/>
		<path class="st14" d="M261,237.8c0,0,0-0.1,0.1-0.1c0-0.1,0.1-0.1,0.1-0.2c0.1-0.2,0.2-0.5,0.3-0.7c0.4-1,0.8-1.9,1.1-3
			c0-0.1,0.1-0.2,0.1-0.3c0,0,0,0,0,0c0.1-0.2,0.1-0.5,0.2-0.7c0,0,0,0,0-0.1c0.1-0.2,0.1-0.4,0.2-0.6c0.1-0.2,0.1-0.4,0.1-0.5
			c0.1-0.4,0.2-0.8,0.3-1.2c0.1-0.5,0.2-0.9,0.3-1.4c0.1-0.3,0.1-0.6,0.1-0.9c0-0.3,0.1-0.6,0.1-0.9c0.1-1,0.2-1.9,0.2-2.9
			c0-0.3,0-0.6,0-0.9c0-1.2,0-2.4-0.1-3.5c0-0.3-0.1-0.6-0.1-0.9c0-0.1,0-0.1,0-0.1c0-0.1,0-0.1,0-0.2c0-0.1,0-0.2,0-0.3
			c0-0.4-0.1-0.8-0.2-1.2c0-0.3-0.1-0.5-0.1-0.8c-0.1-0.5-0.2-1.1-0.4-1.6c0-0.1-0.1-0.3-0.1-0.4c0-0.2-0.1-0.3-0.1-0.5
			c0-0.1-0.1-0.2-0.1-0.3c-0.1-0.2-0.1-0.4-0.2-0.6l-0.1-0.4c-0.1-0.3-0.2-0.7-0.3-1l5.5-2c0.2,0.4,0.3,0.8,0.4,1.2
			c0.1,0.3,0.2,0.7,0.3,1c0.1,0.3,0.2,0.6,0.3,1c0.1,0.2,0.1,0.5,0.2,0.7c0.6,2.6,0.9,5.3,0.8,8.1c0,0.5,0,1.1-0.1,1.6
			c0,0.5-0.1,1.1-0.1,1.6c-0.1,0.8-0.2,1.5-0.3,2.3c0,0.3-0.1,0.5-0.2,0.8c0,0.2-0.1,0.5-0.2,0.7c-0.1,0.3-0.1,0.6-0.2,0.9
			c-0.1,0.3-0.2,0.7-0.3,1c-0.1,0.4-0.2,0.8-0.3,1.1c-0.1,0.4-0.2,0.7-0.4,1.1c-0.1,0.3-0.2,0.6-0.4,1c-0.2,0.4-0.3,0.8-0.5,1.2
			c-0.1,0.3-0.3,0.7-0.5,1L261,237.8z"/>
		<path class="st16" d="M264.1,219c0-0.1,0-0.2,0-0.3c0,0.1,0,0.1,0,0.2C264.1,218.9,264.1,219,264.1,219z"/>
		<path class="st13" d="M254.1,240c0.1-0.3,0.3-0.6,0.4-0.9c0,0,0-0.1,0.1-0.1c0.1-0.3,0.2-0.6,0.4-0.9c0.1-0.3,0.2-0.6,0.3-1
			c0.1-0.3,0.2-0.5,0.3-0.8c0.4-1.1,0.7-2.3,0.9-3.5c0-0.2,0.1-0.4,0.1-0.6c0-0.2,0.1-0.4,0.1-0.6c1.1-6.2,0.5-12.3-1.5-17.5
			l7.1-2.6c0.1,0.3,0.2,0.7,0.3,1l0.1,0.4c0.1,0.2,0.1,0.4,0.2,0.6c0,0.1,0.1,0.2,0.1,0.3c0.1,0.2,0.1,0.3,0.1,0.5
			c0,0.1,0.1,0.3,0.1,0.4c0.1,0.5,0.3,1.1,0.4,1.6c0.1,0.2,0.1,0.5,0.1,0.8c0.1,0.4,0.1,0.8,0.2,1.2c0,0.1,0,0.2,0,0.3
			c0,0.1,0,0.2,0,0.3c0,0.3,0.1,0.6,0.1,0.9c0.1,1.2,0.1,2.3,0.1,3.5c0,0.3,0,0.6,0,0.9c0,1-0.1,1.9-0.2,2.9c0,0.3-0.1,0.6-0.1,0.9
			c0,0.3-0.1,0.6-0.1,0.9c-0.1,0.5-0.2,0.9-0.3,1.4c-0.1,0.4-0.2,0.8-0.3,1.2c0,0.2-0.1,0.4-0.1,0.5c0,0.2-0.1,0.4-0.2,0.6
			c0,0,0,0,0,0.1c-0.1,0.2-0.1,0.5-0.2,0.7c0,0,0,0,0,0c0,0.1-0.1,0.2-0.1,0.3c-0.3,1-0.7,2-1.1,3c-0.1,0.2-0.2,0.5-0.3,0.7
			c0,0,0,0.1-0.1,0.2c0,0,0,0.1-0.1,0.1l-4,1.5C256,239.6,255.1,239.9,254.1,240z"/>
		<path class="st14" d="M249.6,239.6c0.7-1.9,1.2-3.9,1.6-6c1.1-6.2,0.5-12.3-1.5-17.5l5.5-2c1.9,5.2,2.6,11.3,1.5,17.5
			c0,0.2-0.1,0.4-0.1,0.6c0,0.2-0.1,0.4-0.1,0.6c-0.3,1.2-0.6,2.4-0.9,3.5c-0.1,0.3-0.2,0.5-0.3,0.8c-0.1,0.3-0.2,0.7-0.3,1
			c-0.1,0.3-0.2,0.6-0.4,0.9c0,0,0,0.1-0.1,0.1c-0.1,0.3-0.3,0.6-0.4,0.9C252.6,240.1,251.1,240,249.6,239.6z"/>
	</g>
	<g>
		<path class="st12" d="M294.4,329.6c-4.7,10.6-19.2,15.6-29.8,12.3c-6.7-2.1-12.7-7.4-15.1-14c-0.4-1.1-0.7-2.2-0.9-3.3
			c-1.9-11.2,4.2-20.7,13.2-25.2c5-2.5,10.9-3.4,16.7-2.1c1.3,0.3,2.7,0.7,4,1.2C293.8,302.9,299.5,318,294.4,329.6z"/>
		<path class="st13" d="M292.2,328.1c-2.3,5-6.6,9.1-11.9,11.1c-0.3,0.1-0.6,0.2-0.9,0.3c-1.6,0.5-3.3,0.9-5.1,1.2
			c-8.7,1.2-16.5-2.5-20.5-9.7c-2.5-4.6-3.3-10.5-2.1-16c1.4-6.2,5-11.7,10.2-15.6c5-2.5,10.9-3.4,16.7-2.1
			c-2.7,0.4-6.1,1.2-7.6,1.8c-8,3.2-13.6,9.4-15.2,16.9c-1,4.6-0.4,9.3,1.7,13.1c3.1,5.6,9.3,8.6,16.2,7.6c2-0.3,3.6-0.7,5.2-1.3
			c4.2-1.6,7.7-4.9,9.6-8.9c1.9-4.1,2-8.9,0.3-13c-1-2.5-2.7-4.6-4.7-5.8c-2.4-1.4-5.5-1.8-8.5-0.9c-2.8,0.8-5.4,2.5-7.6,5.1
			c-1.5,1.7-3.3,4.5-3.7,7.9c-0.3,2.9,0.5,5.8,2.3,7.7c1.5,1.6,3.8,2.7,6.1,2.8c2.3,0.1,4.7-0.7,6.6-2.1c1.8-1.4,3.2-3.3,3.6-5.3
			c0.5-2.1,0-4.2-1.2-5.7c-1.2-1.5-3.3-2.2-5-1.7c-0.8,0.2-1.7,0.8-2.6,1.5c-0.9,0.9-1.6,1.7-1.8,2.6c-0.2,0.8-0.1,1.7,0.3,2.3
			c0.3,0.4,1,0.6,1.3,0.4c0.2-0.1,0.3-0.4,0.2-0.6c-0.7-0.9-0.5-2.2,0.4-2.9c0.9-0.7,2.2-0.5,2.9,0.4c0.8,1,1,2.3,0.7,3.6
			c-0.3,1.4-1.2,2.6-2.5,3.2c-2.1,1-4.9,0.4-6.5-1.6c-1.3-1.6-1.6-3.9-1-6c0.5-1.6,1.5-3.1,3-4.5c1.4-1.3,2.8-2.1,4.3-2.5
			c3.3-0.9,7,0.3,9.3,3.1c2.1,2.5,2.8,6,2.1,9.3c-0.7,3-2.5,5.7-5.2,7.7c-2.7,2-6,3.1-9.3,3c-3.5-0.1-6.8-1.6-9-4.1
			c-2.6-2.8-3.8-6.9-3.4-11c0.4-3.5,2-7,4.6-10.1c2.7-3.2,6-5.4,9.6-6.4c4.1-1.2,8.4-0.7,11.8,1.4c2.8,1.6,5,4.4,6.4,7.8
			C294.6,316.9,294.5,323,292.2,328.1z"/>
	</g>
	<g>
		<path class="st1" d="M245,347.8l-4.9,3.9c-3.1,2.8-4.3,0.2-3.4-1.4c0.2-0.3,0.4-0.6,0.6-0.9c-7.1-0.4-4.5-4.8-2.9-5.2
			c1.3-0.3,3.8,0.6,3.9,0c0.4-2.2-1.5-2.1-2.2-4.6c-0.9-3.4,3.6-5.3,5.4-2.2C243.9,341.6,245,347.8,245,347.8z"/>
		<path class="st1" d="M290.7,337.5l2-3.8c0.4-0.6,1.9-2.6,2.5-3.1c3.4-2.5,2.6,5.3,2.5,5.5c7-1.1,5.9,2.3,4.9,3.6
			c-1.7,2.1-4.8,0.4-4.7,2c0,0.8,1.9-0.1,3.3,1.9c1.9,2.8-2.6,5.7-4.9,3.2C293.1,343.2,290.7,337.5,290.7,337.5z"/>
		<path class="st18" d="M255.4,329.7c-1.9,2.6-3.6,5.6-4.9,8.8c-2.2,5.5-3,11.2-2.5,16.5c-3.6-1.9-4.4-7-5.1-11.3
			c-0.5-3.6-0.1-6.8,1.9-9.5c2-2.7,3.6-3.4,7.2-4L255.4,329.7z"/>
		<path class="st15" d="M263.1,342.1c0.1-0.6,0.3-1.1,0.4-1.7C263.4,341,263.2,341.5,263.1,342.1z"/>
		<path class="st15" d="M268.6,346.1c0,0,0-0.1,0-0.1c0,0.1,0,0.2,0,0.4C268.6,346.3,268.6,346.2,268.6,346.1z"/>
		<path class="st18" d="M292.8,337.6c0.5,3.6,1.5,7.6-0.6,10.4c-2,2.7-4.1,3.5-7.7,4l-1.3,0.2c-1-6-0.3-12.6,2.2-19
			c0.8-2.2,1.9-4.2,3-6.1C292.2,329,292.1,333.2,292.8,337.6z"/>
		<path class="st1" d="M261.6,328.8c-1.9,2.6-3.6,5.6-4.9,8.8c-2.5,6.4-3.2,13-2.2,18.9c-2.3,0.1-4.6-0.4-6.6-1.5
			c-0.4-5.3,0.4-11,2.5-16.5c1.3-3.2,2.9-6.2,4.9-8.8L261.6,328.8z"/>
		<path class="st16" d="M268.6,346c0,0.1,0,0.2,0,0.4c0-0.1,0-0.1,0-0.2C268.6,346.1,268.6,346.1,268.6,346z"/>
		<path class="st18" d="M269.7,327.6c-0.2,0.3-0.5,0.7-0.7,1c-0.3,0.4-0.5,0.8-0.8,1.1c-0.2,0.3-0.4,0.6-0.6,0.9
			c-0.2,0.4-0.4,0.7-0.6,1.1c-0.2,0.4-0.4,0.7-0.6,1.1c-0.2,0.3-0.3,0.7-0.5,1c-0.1,0.3-0.3,0.6-0.4,0.9c-0.1,0.2-0.2,0.5-0.3,0.7
			c-0.1,0.3-0.2,0.6-0.3,0.8c-0.3,0.8-0.6,1.6-0.8,2.4c-0.2,0.6-0.3,1.1-0.5,1.7c-0.2,0.6-0.3,1.1-0.4,1.7c-0.7,3-0.9,6-0.9,8.8
			c0,0.3,0,0.6,0,0.8c0,0.4,0,0.7,0.1,1.1c0,0.4,0.1,0.8,0.1,1.1c0,0.5,0.1,0.9,0.2,1.4l-6.7,1c-0.5,0.1-1,0.1-1.5,0.1
			c-0.9-6-0.3-12.5,2.2-18.9c1.3-3.2,2.9-6.2,4.9-8.8L269.7,327.6z"/>
		<path class="st1" d="M276,326.6c0,0-0.1,0.1-0.1,0.1c0,0.1-0.1,0.1-0.1,0.1c-0.2,0.2-0.4,0.5-0.5,0.7c-0.6,0.9-1.3,1.9-1.8,2.9
			c-0.1,0.1-0.1,0.2-0.2,0.3c0,0,0,0,0,0.1c-0.1,0.2-0.3,0.5-0.4,0.7c0,0,0,0,0,0.1c-0.1,0.2-0.2,0.4-0.3,0.6
			c-0.1,0.2-0.2,0.4-0.3,0.5c-0.2,0.4-0.4,0.8-0.5,1.2c-0.2,0.5-0.4,0.9-0.6,1.4c-0.1,0.3-0.2,0.6-0.3,0.9c-0.1,0.3-0.2,0.6-0.3,0.9
			c-0.3,1-0.6,2-0.9,3c-0.1,0.3-0.2,0.6-0.2,0.9c-0.3,1.3-0.5,2.5-0.6,3.8c0,0.3-0.1,0.7-0.1,1c0,0.1,0,0.1,0,0.1c0,0.1,0,0.1,0,0.2
			c0,0.1,0,0.2,0,0.4c0,0.5-0.1,0.9-0.1,1.3c0,0.3,0,0.6,0,0.8c0,0.6,0,1.2,0,1.8c0,0.2,0,0.3,0,0.5c0,0.2,0,0.4,0,0.6
			c0,0.1,0,0.3,0,0.4c0,0.2,0,0.4,0.1,0.6l0.1,0.5c0.1,0.4,0.1,0.8,0.2,1.1l-6.3,0.9c-0.1-0.5-0.1-0.9-0.2-1.4
			c0-0.4-0.1-0.8-0.1-1.1c0-0.4-0.1-0.7-0.1-1.1c0-0.3,0-0.6,0-0.8c-0.1-2.9,0.2-5.9,0.9-8.8c0.1-0.6,0.3-1.1,0.4-1.7
			c0.1-0.6,0.3-1.1,0.5-1.7c0.2-0.8,0.5-1.6,0.8-2.4c0.1-0.3,0.2-0.6,0.3-0.8c0.1-0.3,0.2-0.5,0.3-0.7c0.1-0.3,0.3-0.6,0.4-0.9
			c0.2-0.3,0.3-0.7,0.5-1c0.2-0.4,0.4-0.8,0.6-1.1c0.2-0.4,0.4-0.7,0.6-1.1c0.2-0.3,0.4-0.6,0.6-0.9c0.2-0.4,0.5-0.8,0.8-1.1
			c0.2-0.3,0.5-0.7,0.7-1L276,326.6z"/>
		<path class="st16" d="M268.6,346c0,0.1,0,0.2,0,0.4c0-0.1,0-0.1,0-0.2C268.6,346.1,268.6,346.1,268.6,346z"/>
		<path class="st18" d="M283.8,325.8c-0.2,0.3-0.4,0.6-0.6,0.9c0,0-0.1,0.1-0.1,0.1c-0.2,0.3-0.4,0.6-0.6,0.9
			c-0.2,0.3-0.4,0.6-0.6,1c-0.2,0.3-0.3,0.5-0.5,0.8c-0.6,1.1-1.2,2.3-1.7,3.6c-0.1,0.2-0.2,0.4-0.2,0.6c-0.1,0.2-0.2,0.4-0.2,0.6
			c-2.5,6.4-3.2,13-2.2,19l-8.1,1.2c-0.1-0.4-0.1-0.7-0.2-1.1l-0.1-0.5c0-0.2,0-0.4-0.1-0.6c0-0.1,0-0.2,0-0.4c0-0.2,0-0.4,0-0.6
			c0-0.2,0-0.3,0-0.5c0-0.6,0-1.2,0-1.8c0-0.3,0-0.6,0-0.8c0-0.4,0-0.9,0.1-1.3c0-0.1,0-0.2,0-0.4c0-0.1,0-0.2,0-0.4
			c0-0.3,0.1-0.7,0.1-1c0.1-1.3,0.4-2.5,0.6-3.8c0.1-0.3,0.1-0.6,0.2-0.9c0.2-1,0.5-2,0.9-3c0.1-0.3,0.2-0.6,0.3-0.9
			c0.1-0.3,0.2-0.6,0.3-0.9c0.2-0.5,0.4-1,0.6-1.4c0.2-0.4,0.4-0.8,0.5-1.2c0.1-0.2,0.2-0.4,0.3-0.5c0.1-0.2,0.2-0.4,0.3-0.6
			c0,0,0,0,0-0.1c0.1-0.2,0.2-0.5,0.4-0.7c0,0,0,0,0-0.1c0.1-0.1,0.1-0.2,0.2-0.3c0.6-1,1.2-2,1.8-2.9c0.2-0.2,0.3-0.5,0.5-0.7
			c0-0.1,0.1-0.1,0.1-0.1c0,0,0.1-0.1,0.1-0.1l4.6-0.7C281.7,325.7,282.8,325.7,283.8,325.8z"/>
		<path class="st1" d="M288.5,327.2c-1.2,1.9-2.2,3.9-3,6.1c-2.5,6.4-3.2,13-2.2,19l-6.3,0.9c-0.9-6-0.3-12.6,2.2-19
			c0.1-0.2,0.2-0.4,0.2-0.6c0.1-0.2,0.2-0.4,0.2-0.6c0.5-1.2,1.1-2.4,1.7-3.6c0.1-0.3,0.3-0.5,0.5-0.8c0.2-0.3,0.4-0.6,0.6-1
			c0.2-0.3,0.4-0.6,0.6-0.9c0,0,0.1-0.1,0.1-0.1c0.2-0.3,0.4-0.6,0.6-0.9C285.5,326,287.1,326.4,288.5,327.2z"/>
	</g>
	<g>
		<path class="st1" d="M154.7,395.2c-0.1,0.5-0.3,0.8-0.6,1.1c-0.3,0.3-0.7,0.4-1.1,0.4c-0.6,0-1.1-0.2-1.4-0.6
			c-0.4-0.4-0.5-0.8-0.5-1.3c0-0.5,0-1,0.1-1.4c0.1-0.5,0.1-0.9,0.1-1.4c0-2.4-0.7-4.5-2.2-6.4c-1.5-1.9-3.5-3.5-6.2-4.7
			c-2.7-1.3-5.9-2.3-9.8-2.9c-3.8-0.7-8.1-1-12.8-1c-3.6,0-7.2,0.2-10.9,0.7c-3.6,0.5-7.2,1.2-10.5,2c-3.4,0.9-6.5,2-9.4,3.4
			c-2.9,1.3-5.5,2.9-7.6,4.7c-2.2,1.8-3.9,3.7-5.1,5.9c-1.2,2.2-1.8,4.5-1.8,7.1c0,2,0.4,3.7,1.3,5.2c0.9,1.5,2,2.8,3.5,3.9
			c1.5,1.1,3.3,2.1,5.3,2.9c2,0.8,4.2,1.5,6.6,2c2.4,0.5,4.8,1,7.4,1.3c2.6,0.3,5.1,0.6,7.7,0.9l7.5,0.6c3.7,0.3,7.1,0.7,10,1
			c2.9,0.4,5.5,0.8,7.8,1.4c3.7,0.9,6.5,2.3,8.3,4c1.8,1.8,2.7,4.1,2.7,7c0,2.8-0.8,5.3-2.3,7.4c-1.6,2.1-3.7,3.9-6.4,5.4
			c-2.7,1.5-5.8,2.6-9.4,3.3c-3.6,0.7-7.5,1.1-11.6,1.1c-4.5,0-8.4-0.3-11.8-0.9c-3.4-0.6-6.2-1.3-8.5-2c-2.3-0.7-4-1.4-5.2-2
			c-1.2-0.6-1.8-1-1.9-1c-0.6-0.3-0.9-0.8-0.9-1.6c0-0.6,0.2-1,0.6-1.3c0.4-0.3,0.8-0.5,1.3-0.5c0.4,0,0.7,0.1,1,0.3
			c0,0,0.6,0.3,1.7,0.9c1.1,0.6,2.7,1.2,4.9,1.9c2.2,0.7,4.8,1.3,8,1.8c3.2,0.6,6.9,0.8,11.1,0.8c4.2,0,7.9-0.3,11.1-1
			c3.2-0.7,5.9-1.6,8.1-2.8c2.2-1.2,3.8-2.6,5-4.3c1.1-1.6,1.7-3.4,1.7-5.3c0-1.1-0.2-2.1-0.6-2.9c-0.4-0.8-1-1.5-1.7-2.1
			c-0.7-0.6-1.6-1.1-2.6-1.5c-1-0.4-2.1-0.8-3.2-1.1c-1.2-0.3-2.6-0.6-4-0.8c-1.4-0.2-2.9-0.4-4.4-0.6c-1.5-0.2-3-0.3-4.5-0.4
			c-1.5-0.1-3-0.3-4.5-0.4l-7.5-0.6c-5.9-0.5-11-1.2-15.4-2.3c-4.4-1-8.1-2.3-11-3.9c-2.9-1.6-5.1-3.5-6.6-5.8
			c-1.5-2.2-2.2-4.8-2.2-7.8c0-3,0.7-5.8,2.1-8.4c1.4-2.5,3.3-4.8,5.6-6.9c2.4-2,5.2-3.8,8.4-5.3c3.2-1.5,6.6-2.8,10.2-3.8
			c3.6-1,7.4-1.8,11.3-2.3c3.9-0.5,7.7-0.8,11.5-0.8c4.7,0,8.8,0.3,12.3,0.9c3.5,0.6,6.5,1.3,9,2.2c2.5,0.9,4.5,1.9,6.1,3
			c1.6,1.1,2.9,2.3,3.8,3.4c2.3,2.7,3.5,5.8,3.5,9.2C155,393.1,154.9,394.2,154.7,395.2z"/>
		<path class="st1" d="M166.2,440.9c-1.1,1.8-2.5,3.3-4,4.4c-1.5,1.1-3,1.6-4.5,1.6c-1.2,0-2.3-0.2-3.3-0.7c-1-0.5-1.8-1.1-2.5-1.9
			c-0.7-0.8-1.3-1.8-1.6-3c-0.4-1.2-0.6-2.5-0.6-3.9c0-2.3,0.2-4.3,0.7-6c0.4-1.8,0.9-3.2,1.4-4.4c0.5-1.2,1.2-2.4,2.1-3.6
			c0.2-0.2,0.4-0.3,0.6-0.4c0.2-0.1,0.5-0.1,0.8-0.1c0.5,0,0.9,0.2,1.3,0.6c0.3,0.4,0.5,0.8,0.5,1.3c0,0.2,0,0.4-0.1,0.6
			c-0.1,0.2-0.2,0.4-0.3,0.6c-0.2,0.3-0.4,0.7-0.8,1.3c-0.4,0.6-0.7,1.4-1.1,2.4c-0.4,1-0.7,2.1-1,3.4c-0.3,1.3-0.4,2.8-0.4,4.5
			c0,1.9,0.4,3.4,1.1,4.4c0.8,1,1.8,1.5,3.2,1.5c0.6,0,1.3-0.2,2-0.6c0.8-0.4,1.5-0.9,2.2-1.7c0.7-0.8,1.4-1.8,1.9-3
			c0.6-1.2,0.9-2.6,1.1-4.2l0.7-8.4c0.1-0.5,0.3-0.9,0.6-1.2c0.4-0.3,0.8-0.5,1.3-0.5c0.6,0,1,0.2,1.3,0.6c0.3,0.4,0.5,0.9,0.5,1.4
			l-0.6,8.1c-0.1,0.7,0,1.6,0.1,2.7c0.1,1.1,0.3,2.2,0.7,3.3c0.4,1.1,0.9,2,1.6,2.7c0.7,0.8,1.7,1.1,2.8,1.1c0.8,0,1.7-0.2,2.5-0.7
			c0.8-0.4,1.6-1,2.3-1.7c0.7-0.7,1.4-1.5,2.1-2.4c0.6-0.9,1.2-1.8,1.8-2.7c0.5-0.9,1-1.8,1.4-2.6c0.4-0.8,0.7-1.5,1-2.1
			c0.2-0.4,0.4-0.6,0.7-0.8c0.3-0.2,0.6-0.3,1-0.3c0.6,0,1,0.2,1.4,0.6c0.3,0.4,0.5,0.8,0.5,1.3c0,0.3,0,0.5-0.1,0.7
			c-0.1,0.3-0.4,0.8-0.8,1.6c-0.4,0.8-0.9,1.8-1.5,2.8c-0.6,1.1-1.3,2.2-2.2,3.3c-0.8,1.2-1.8,2.2-2.8,3.2c-1,1-2.2,1.8-3.4,2.4
			c-1.2,0.6-2.5,0.9-3.9,0.9c-1.9,0-3.5-0.5-4.8-1.6C167.8,444.4,166.8,442.9,166.2,440.9z"/>
		<path class="st1" d="M216.7,432.8c-0.2,0.4-0.5,1-1,1.9c-0.5,0.9-1.1,2-1.9,3.2c-0.8,1.2-1.7,2.4-2.8,3.7
			c-1.1,1.3-2.4,2.4-3.8,3.5c-1.4,1.1-3,1.9-4.8,2.6c-1.8,0.7-3.7,1-5.8,1c-1.8,0-3.5-0.3-4.9-1c-1.4-0.7-2.6-1.6-3.6-2.8
			c-1-1.2-1.8-2.7-2.3-4.3c-0.5-1.7-0.8-3.5-0.8-5.5c0-1.9,0.3-3.8,0.8-5.5c0.6-1.7,1.3-3.2,2.3-4.5c1-1.3,2.1-2.3,3.3-3
			c1.3-0.7,2.6-1.1,4-1.1c1.1,0,2,0.2,2.9,0.6c0.9,0.4,1.6,0.9,2.2,1.5c0.6,0.6,1.1,1.3,1.4,2c0.3,0.7,0.5,1.5,0.5,2.2
			c0,0.7-0.1,1.4-0.3,2c-0.2,0.6-0.4,1.2-0.7,1.6c-0.3,0.5-0.6,0.8-0.9,1.1c-0.4,0.3-0.7,0.4-1.1,0.4c-0.6,0-1-0.2-1.3-0.5
			c-0.3-0.4-0.5-0.8-0.5-1.3c0-0.3,0.1-0.5,0.2-0.7c0.1-0.2,0.2-0.4,0.4-0.6c0.1-0.2,0.3-0.5,0.4-0.8c0.1-0.3,0.2-0.7,0.2-1.2
			c0-0.7-0.3-1.3-0.9-1.8c-0.6-0.6-1.4-0.8-2.4-0.8c-0.9,0-1.8,0.3-2.6,0.8c-0.8,0.6-1.5,1.3-2.2,2.2c-0.6,0.9-1.1,2-1.5,3.3
			c-0.4,1.2-0.6,2.6-0.6,4c0,1.3,0.2,2.6,0.5,3.8c0.3,1.2,0.8,2.3,1.5,3.2c0.6,0.9,1.5,1.7,2.5,2.2c1,0.6,2.2,0.8,3.5,0.8
			c1.8,0,3.4-0.3,4.9-0.9c1.5-0.6,2.9-1.4,4.1-2.4c1.2-1,2.3-2,3.3-3.2c0.9-1.2,1.7-2.2,2.4-3.3c0.7-1,1.2-1.9,1.6-2.7
			c0.4-0.8,0.6-1.2,0.7-1.4c0.1-0.3,0.3-0.6,0.7-0.8c0.3-0.2,0.6-0.3,1-0.3c0.6,0,1,0.2,1.3,0.6c0.3,0.4,0.5,0.8,0.5,1.3
			C216.9,432.2,216.9,432.5,216.7,432.8z"/>
		<path class="st1" d="M218.5,426.3c-0.1,0.9-0.3,1.7-0.5,2.5c-0.2,0.8-0.4,1.4-0.6,2c-0.2,0.6-0.3,1-0.5,1.4
			c-0.1,0.4-0.2,0.6-0.2,0.6c-0.3,0.7-0.9,1.1-1.7,1.1c-0.5,0-0.9-0.2-1.3-0.5c-0.4-0.3-0.6-0.8-0.6-1.3c0-0.2,0-0.3,0.1-0.4
			c0.1-0.1,0.2-0.3,0.3-0.6c0.1-0.3,0.3-0.8,0.5-1.5c0.2-0.7,0.4-1.7,0.7-3.2c-0.6,0-1.1,0-1.7,0c-0.6,0-1.1-0.1-1.6-0.3
			c-0.5-0.2-0.9-0.5-1.2-0.9c-0.3-0.4-0.5-1-0.5-1.8c0-0.6,0.2-1.3,0.5-2.2c0.3-0.9,0.7-1.9,1.2-2.8c0.5-0.9,1.1-1.7,1.8-2.4
			c0.6-0.7,1.3-1,1.9-1c0.7,0,1.4,0.3,1.8,0.8c0.5,0.6,0.8,1.2,1.1,2c0.3,0.8,0.4,1.6,0.6,2.5c0.1,0.9,0.2,1.6,0.2,2.3
			c0.6,0,1.1,0,1.6,0c0.5,0,1,0,1.5,0c1.8,0,3.3,0.4,4.2,1.2c1,0.8,1.5,2.1,1.5,4c0,0.7,0,1.5-0.1,2.3c-0.1,0.8-0.2,1.6-0.3,2.5
			c-0.1,0.9-0.2,1.7-0.3,2.6c-0.1,0.8-0.1,1.7-0.1,2.5c0,1.2,0.2,2.1,0.5,2.9c0.3,0.8,0.7,1.4,1.2,1.8c0.5,0.5,1,0.8,1.6,0.9
			c0.6,0.2,1.1,0.3,1.5,0.3c1.4,0,2.7-0.5,3.9-1.4c1.2-0.9,2.4-2,3.4-3.3c1-1.3,2-2.6,2.8-4.1c0.8-1.4,1.5-2.7,2.1-3.7
			c0.2-0.3,0.4-0.5,0.7-0.7c0.3-0.2,0.6-0.2,0.9-0.2c0.6,0,1,0.2,1.4,0.6c0.3,0.4,0.5,0.8,0.5,1.2c0,0.3-0.1,0.6-0.2,0.9
			c-0.7,1.3-1.6,2.8-2.6,4.5c-1,1.7-2.1,3.2-3.4,4.7c-1.3,1.5-2.7,2.7-4.3,3.7c-1.6,1-3.3,1.5-5.2,1.5c-1.2,0-2.3-0.2-3.3-0.7
			c-1-0.4-1.9-1.1-2.7-1.9c-0.8-0.8-1.4-1.8-1.8-3.1c-0.5-1.2-0.7-2.6-0.7-4.1c0-1.6,0.2-3.2,0.5-4.8c0.3-1.6,0.5-3.1,0.5-4.6
			c0-0.6-0.1-1.1-0.4-1.4c-0.3-0.3-0.9-0.5-1.8-0.5c-0.5,0-0.9,0-1.5,0C219.7,426.3,219.2,426.3,218.5,426.3z M215.3,422.7
			c0-0.2,0-0.5,0-0.9c0-0.4,0-0.7-0.1-1.1c0-0.4-0.1-0.7-0.2-0.9c-0.1-0.3-0.2-0.4-0.3-0.4c-0.1,0-0.2,0.1-0.4,0.4
			c-0.1,0.2-0.3,0.5-0.5,0.9c-0.2,0.3-0.3,0.7-0.4,1.1c-0.1,0.4-0.2,0.7-0.3,1H215.3z"/>
		<path class="st1" d="M249.5,441c0.7,0.9,1.6,1.7,2.6,2.3c1.1,0.6,2.4,0.9,3.9,0.9c1.6,0,3-0.4,4.3-1.1c1.3-0.8,2.5-1.8,3.6-3
			c1.1-1.2,2-2.6,2.9-4.1c0.8-1.5,1.6-3,2.3-4.6c0.2-0.4,0.4-0.6,0.7-0.8c0.3-0.2,0.6-0.3,1-0.3c0.6,0,1,0.2,1.3,0.6
			c0.3,0.4,0.5,0.8,0.5,1.3c0,0.2,0,0.3,0,0.4c0,0.1-0.1,0.2-0.1,0.4c-2.2,4.9-4.7,8.6-7.3,11.1c-2.6,2.5-5.6,3.8-9,3.8
			c-2.1,0-4-0.4-5.5-1.2c-1.6-0.8-2.8-1.9-3.8-3.2c-1-1.3-1.8-2.8-2.2-4.5c-0.5-1.7-0.7-3.3-0.7-5c0-1.7,0.2-3.2,0.6-4.6
			s1-2.6,1.8-3.6c0.8-1,1.7-1.8,2.7-2.4c1.1-0.6,2.2-0.9,3.5-0.9c0.7,0,1.5,0.2,2.2,0.5c0.7,0.3,1.4,0.7,2,1.3
			c0.6,0.6,1.1,1.3,1.4,2.1c0.4,0.8,0.5,1.7,0.5,2.8c0,1.3-0.2,2.6-0.7,3.7c-0.5,1.2-1.1,2.3-1.9,3.3c-0.8,1-1.7,1.9-2.8,2.8
			C251.9,439.6,250.7,440.3,249.5,441z M248,437.8c1-0.4,1.9-1,2.7-1.6c0.8-0.6,1.5-1.4,2.1-2.1c0.6-0.8,1-1.6,1.4-2.5
			c0.3-0.9,0.5-1.7,0.5-2.6c0-1-0.2-1.7-0.7-2.2c-0.5-0.5-1.1-0.8-1.7-0.8c-0.9,0-1.6,0.2-2.2,0.7c-0.6,0.5-1.1,1.1-1.5,1.9
			c-0.4,0.8-0.7,1.6-0.9,2.6c-0.2,1-0.3,1.9-0.3,2.8c0,0.6,0.1,1.2,0.2,1.8C247.7,436.6,247.9,437.2,248,437.8z"/>
		<path class="st1" d="M351.8,386.7c0.5,0,0.9,0.2,1.3,0.5c0.4,0.3,0.6,0.8,0.6,1.3c0,0.7-0.3,1.2-0.9,1.6c-0.1,0.1-0.5,0.4-1.3,0.9
			c-0.8,0.6-1.6,1.4-2.5,2.7c-0.9,1.2-1.8,2.9-2.6,4.9c-0.8,2-1.4,4.5-1.6,7.5c-0.1,0.5-0.1,1-0.1,1.6c0,0.5,0,1-0.1,1.6
			c0.6-0.1,1.2-0.1,1.8-0.2c0.6,0,1.3-0.1,2-0.1c2.3,0,4.6,0.3,6.8,0.8c2.2,0.5,4.2,1.3,6,2.2c4.7-1.9,8.3-4.4,10.8-7.5
			c2.5-3.1,3.7-6.6,3.7-10.4c0-2.9-0.7-5.4-2.1-7.6c-1.4-2.2-3.4-4.1-6-5.6c-2.6-1.5-5.7-2.7-9.2-3.5c-3.6-0.8-7.5-1.2-11.8-1.2
			c-3.7,0-7.5,0.3-11.4,0.9c-3.9,0.6-7.6,1.4-11.2,2.6c-3.6,1.1-7,2.5-10.2,4.2c-3.2,1.7-6,3.6-8.3,5.8c-2.4,2.2-4.2,4.6-5.6,7.3
			c-1.4,2.7-2,5.6-2,8.8c0,2.3,0.4,4.4,1.2,6.2c0.8,1.8,1.9,3.2,3.2,4.4c1.3,1.2,2.9,2.1,4.6,2.7c1.8,0.6,3.6,0.9,5.5,0.9
			c2.3,0,4.3-0.2,6-0.7c1.7-0.5,3.2-0.9,4.3-1.5c1.2-0.5,2.1-1,2.7-1.5s0.9-0.7,1-0.8c0.2-0.2,0.5-0.3,0.8-0.6
			c0.3-0.2,0.6-0.3,0.9-0.3c0.5,0,0.9,0.2,1.3,0.5c0.4,0.3,0.5,0.8,0.5,1.3s-0.2,0.9-0.5,1.3c-0.1,0.1-0.5,0.4-1.2,1
			c-0.8,0.6-1.9,1.3-3.3,2c-1.4,0.7-3.2,1.4-5.2,1.9c-2.1,0.6-4.4,0.9-7.1,0.9c-2.5,0-4.8-0.4-7-1.2c-2.2-0.8-4.2-2-5.9-3.5
			c-1.7-1.5-3-3.4-4-5.6c-1-2.2-1.5-4.7-1.5-7.5c0-3.1,0.6-6,1.9-8.9c1.3-2.8,3-5.5,5.4-8c2.3-2.5,5.1-4.7,8.3-6.7
			c3.2-2,6.8-3.7,10.6-5.1c3.9-1.4,8-2.5,12.5-3.3c4.4-0.8,9-1.2,13.8-1.2c4.8,0,9.3,0.5,13.3,1.4c4,1,7.5,2.3,10.4,4.1
			c2.9,1.8,5.2,4,6.8,6.6c1.6,2.6,2.4,5.6,2.4,8.9c0,4.4-1.3,8.4-3.8,11.9c-2.5,3.6-6.2,6.5-11.1,8.9c1.8,1.5,3.2,3.3,4.2,5.3
			c1,2,1.8,4.1,2.3,6.2c0.5,2.1,0.8,4.1,1,5.9c0.1,1.9,0.3,3.5,0.3,4.7c0.1,1.8,0.2,3.3,0.5,4.5c0.3,1.2,0.7,2.1,1.2,2.7
			c0.5,0.6,1.1,1.1,1.8,1.3c0.7,0.2,1.6,0.4,2.7,0.4c1.5,0,2.8-0.3,4-1c1.2-0.7,2.3-1.6,3.3-2.6c1-1,1.9-2.2,2.6-3.4
			c0.8-1.2,1.4-2.4,1.9-3.4c0.5-1.1,0.9-1.9,1.2-2.6c0.3-0.7,0.4-1.1,0.4-1.1c0.3-0.8,0.9-1.2,1.7-1.2c0.6,0,1,0.2,1.3,0.6
			c0.3,0.4,0.5,0.8,0.5,1.3c0,0.2,0,0.4-0.1,0.6c0,0.1-0.2,0.6-0.6,1.5c-0.3,0.9-0.8,1.9-1.5,3.1c-0.6,1.2-1.5,2.5-2.4,3.9
			c-1,1.4-2.1,2.7-3.4,3.9c-1.3,1.2-2.7,2.2-4.3,2.9c-1.6,0.8-3.4,1.2-5.3,1.2c-1.7,0-3.2-0.3-4.3-0.8c-1.2-0.6-2.1-1.4-2.8-2.4
			c-0.7-1.1-1.3-2.3-1.6-3.8c-0.3-1.5-0.5-3.2-0.6-5.2c0-0.8-0.1-1.8-0.1-2.9c-0.1-1.1-0.2-2.3-0.4-3.6c-0.2-1.2-0.4-2.5-0.8-3.9
			c-0.3-1.3-0.8-2.6-1.4-3.9c-0.6-1.3-1.3-2.5-2.2-3.6c-0.9-1.1-1.9-2.1-3.2-3c-2.5,0.8-5.1,1.5-7.8,2c-2.7,0.5-5.4,0.7-8.3,0.8v1.5
			c0,4-0.4,7.7-1.2,11.2c-0.8,3.5-2.1,6.5-3.9,9.1c-1.8,2.6-4.1,4.6-6.9,6.1c-2.8,1.5-6.3,2.2-10.3,2.2c-2,0-4-0.3-6-0.8
			c-2-0.5-3.8-1.3-5.5-2.2c-1.7-0.9-3.2-2.1-4.6-3.3c-1.3-1.3-2.4-2.7-3.2-4.2c-0.2-0.3-0.2-0.6-0.2-0.9c0-0.5,0.2-0.9,0.5-1.2
			c0.3-0.4,0.8-0.6,1.3-0.6c0.7,0,1.2,0.3,1.6,0.9c0.7,1.3,1.6,2.4,2.8,3.5c1.1,1.1,2.4,2,3.8,2.7c1.4,0.8,2.9,1.4,4.5,1.8
			c1.6,0.4,3.2,0.6,4.9,0.6c3.3,0,6.2-0.6,8.6-1.8c2.4-1.2,4.3-2.9,5.8-5.1c1.5-2.2,2.6-4.8,3.3-7.9c0.7-3.1,1-6.5,1-10.3v-1.9
			c-1.1-0.4-1.9-0.9-2.6-1.5c-0.6-0.6-1-1.4-1-2.4c0-0.9,0.3-1.8,0.9-2.5c0.6-0.7,1.5-1.3,2.6-1.8c0-0.7,0-1.5,0-2.2
			c0-0.7,0.1-1.5,0.1-2.2c0.2-2.3,0.6-4.4,1.1-6.3c0.5-1.8,1.2-3.5,1.9-4.9c0.7-1.4,1.5-2.6,2.3-3.6c0.8-1,1.5-1.8,2.2-2.4
			c0.7-0.6,1.2-1.1,1.7-1.4c0.5-0.3,0.7-0.5,0.8-0.5C351.2,386.8,351.5,386.7,351.8,386.7z M356.4,413.9c-0.6-0.2-1.1-0.3-1.6-0.5
			c-0.5-0.2-1.1-0.3-1.7-0.4c-0.6-0.1-1.3-0.2-2-0.3c-0.7-0.1-1.6-0.1-2.5-0.1c-1.7,0-3.1,0.1-4.1,0.3v0v2.3c2,0,4-0.1,6.1-0.3
			C352.7,414.7,354.6,414.3,356.4,413.9z"/>
		<path class="st1" d="M414.2,441c-0.8,0-1.5-0.1-2.1-0.2c-0.5,1-1.1,1.9-1.8,2.7c-0.7,0.8-1.5,1.5-2.4,2.2c-0.9,0.6-1.9,1.1-3,1.5
			c-1.1,0.4-2.3,0.5-3.6,0.5c-1.5,0-2.9-0.3-4.2-0.8c-1.3-0.5-2.4-1.3-3.3-2.2c-0.9-1-1.7-2.1-2.2-3.5c-0.5-1.3-0.8-2.8-0.8-4.5
			c0-2.1,0.4-3.9,1.1-5.4c0.7-1.5,1.6-2.8,2.6-3.8c1-1,1.9-1.8,2.9-2.3c1-0.5,1.7-0.8,2.2-0.8c0.6,0,1,0.1,1.2,0.4
			c0.3,0.3,0.4,0.7,0.4,1.2c0,0.6-0.2,1-0.5,1.2c-0.3,0.3-0.8,0.5-1.3,0.8c-0.5,0.3-1.1,0.6-1.7,1.1c-0.6,0.5-1.1,1.1-1.6,1.8
			c-0.5,0.7-0.9,1.6-1.2,2.5c-0.3,1-0.5,2.1-0.5,3.3c0,1.1,0.2,2.1,0.5,3c0.3,0.9,0.8,1.7,1.4,2.4c0.6,0.7,1.3,1.2,2.2,1.6
			c0.8,0.4,1.8,0.6,2.8,0.6c1.8,0,3.4-0.4,4.6-1.3c1.2-0.9,2.1-2,2.8-3.3c-1.9-1-3.5-2.4-4.7-4.3c-1.2-1.8-1.8-3.9-1.8-6.2
			c0-1.8,0.4-3.4,1.3-4.5c0.9-1.2,2.1-1.8,3.5-1.8c0.9,0,1.7,0.2,2.5,0.6c0.8,0.4,1.5,1.1,2.1,2c0.6,0.9,1.1,2.1,1.4,3.5
			c0.4,1.4,0.5,3.1,0.5,5.1c0,1-0.1,2.1-0.4,3.3c0.2,0,0.4,0,0.6,0c0.2,0,0.4,0,0.6,0c1.1,0,2.1-0.1,3-0.4c0.9-0.3,1.7-0.6,2.4-1.2
			c0.7-0.5,1.4-1.2,1.9-2c0.6-0.8,1.1-1.8,1.6-2.8c0.1-0.2,0.3-0.4,0.6-0.6c0.3-0.2,0.6-0.3,1-0.3c0.4,0,0.8,0.2,1.2,0.5
			c0.4,0.3,0.6,0.8,0.6,1.3c0,0.3-0.1,0.5-0.2,0.9c-0.1,0.3-0.3,0.6-0.4,0.9c-0.6,1-1.2,1.9-1.9,2.8c-0.7,0.9-1.6,1.7-2.6,2.3
			c-1,0.7-2.1,1.2-3.3,1.6C417.1,440.8,415.7,441,414.2,441z M405.9,428.7c0,0.6,0.1,1.3,0.2,1.9c0.2,0.7,0.4,1.4,0.8,2
			c0.3,0.7,0.8,1.3,1.3,1.9c0.5,0.6,1.1,1.1,1.8,1.5c0.1-0.7,0.1-1.3,0.1-2c0-0.9-0.1-1.8-0.2-2.7c-0.1-0.9-0.3-1.7-0.6-2.5
			c-0.2-0.8-0.5-1.4-0.9-1.8s-0.8-0.7-1.3-0.7c-0.2,0-0.5,0.1-0.8,0.4C406.1,427.1,405.9,427.7,405.9,428.7z"/>
		<path class="st1" d="M428.7,428.3c-0.2,0.5-0.4,1.1-0.7,1.8c-0.3,0.6-0.6,1.3-0.9,2c-0.3,0.6-0.6,1-0.9,1.3
			c-0.3,0.3-0.7,0.5-1.2,0.5c-0.6,0-1-0.2-1.3-0.5c-0.3-0.3-0.5-0.7-0.5-1.2c0-0.2,0-0.3,0-0.4c0-0.1,0.1-0.3,0.2-0.6
			c0.8-1.6,1.5-3,1.9-4.3c0.4-1.2,0.7-2.5,1-3.8c-0.2-0.7-0.4-1.4-0.5-1.9c-0.1-0.5-0.1-1.1-0.1-1.6c0-1.1,0.2-1.9,0.7-2.6
			c0.5-0.7,1.1-1,1.9-1c0.7,0,1.3,0.3,1.8,1c0.4,0.6,0.7,1.4,0.7,2.4c0,0.5,0,1-0.1,1.6c-0.1,0.5-0.2,1.2-0.4,1.9
			c0.7,1.8,1.5,3.5,2.2,4.9c0.7,1.4,1.4,2.7,2,3.9c0.6,1.2,1.1,2.3,1.4,3.3c0.4,1,0.6,2.1,0.6,3.1c0,1.4-0.3,2.7-0.8,3.9
			c-0.6,1.2-1.5,2.3-2.7,3.1c0.2,0,0.3,0,0.5,0c0.2,0,0.3,0,0.5,0c1.8,0,3.6-0.4,5.1-1.3c1.6-0.8,3-1.9,4.2-3.3
			c1.2-1.3,2.4-2.8,3.3-4.5c1-1.6,1.8-3.3,2.5-4.9c0.3-0.7,0.8-1.1,1.4-1.1c0.6,0,1,0.2,1.3,0.6c0.3,0.4,0.5,0.8,0.5,1.3
			c0,0.3,0,0.5-0.1,0.7c-0.4,0.9-0.8,1.9-1.4,3c-0.6,1.1-1.2,2.3-2,3.5c-0.8,1.2-1.7,2.3-2.7,3.5c-1,1.1-2.2,2.1-3.5,3
			c-1.3,0.9-2.7,1.6-4.2,2.1c-1.5,0.5-3.2,0.8-5,0.8c-2.2,0-4.2-0.4-6.1-1.1c-1.9-0.8-3.4-2-4.5-3.8c-0.2-0.3-0.3-0.6-0.3-0.9
			c0-0.5,0.2-0.9,0.6-1.3c0.4-0.4,0.8-0.6,1.3-0.6c0.5,0,1,0.2,1.3,0.5c0,0.1,0.1,0.2,0.3,0.3c0.2,0.1,0.4,0.3,0.7,0.5
			c0.3,0.2,0.6,0.3,1,0.5c0.4,0.1,0.8,0.2,1.1,0.2c0.8,0,1.4-0.2,2-0.5c0.5-0.3,1-0.7,1.3-1.2c0.3-0.5,0.6-1,0.7-1.5
			c0.1-0.5,0.2-1,0.2-1.4c0-0.8-0.1-1.6-0.4-2.4c-0.3-0.8-0.6-1.6-1-2.4c-0.4-0.8-0.8-1.6-1.3-2.5
			C429.5,430.1,429.1,429.2,428.7,428.3z"/>
		<path class="st1" d="M454.4,441c0.7,0.9,1.6,1.7,2.6,2.3c1.1,0.6,2.4,0.9,3.9,0.9c1.6,0,3-0.4,4.3-1.1c1.3-0.8,2.5-1.8,3.6-3
			c1.1-1.2,2-2.6,2.9-4.1c0.8-1.5,1.6-3,2.3-4.6c0.2-0.4,0.4-0.6,0.7-0.8c0.3-0.2,0.6-0.3,1-0.3c0.6,0,1,0.2,1.3,0.6
			c0.3,0.4,0.5,0.8,0.5,1.3c0,0.2,0,0.3,0,0.4c0,0.1-0.1,0.2-0.1,0.4c-2.2,4.9-4.7,8.6-7.3,11.1c-2.6,2.5-5.6,3.8-9,3.8
			c-2.1,0-4-0.4-5.5-1.2c-1.6-0.8-2.8-1.9-3.8-3.2c-1-1.3-1.8-2.8-2.2-4.5c-0.5-1.7-0.7-3.3-0.7-5c0-1.7,0.2-3.2,0.6-4.6
			c0.4-1.4,1-2.6,1.8-3.6c0.8-1,1.7-1.8,2.7-2.4c1.1-0.6,2.2-0.9,3.5-0.9c0.7,0,1.5,0.2,2.2,0.5c0.7,0.3,1.4,0.7,2,1.3
			c0.6,0.6,1.1,1.3,1.4,2.1c0.4,0.8,0.5,1.7,0.5,2.8c0,1.3-0.2,2.6-0.7,3.7c-0.5,1.2-1.1,2.3-1.9,3.3c-0.8,1-1.7,1.9-2.8,2.8
			C456.8,439.6,455.7,440.3,454.4,441z M452.9,437.8c1-0.4,1.9-1,2.7-1.6c0.8-0.6,1.5-1.4,2.1-2.1c0.6-0.8,1-1.6,1.4-2.5
			c0.3-0.9,0.5-1.7,0.5-2.6c0-1-0.2-1.7-0.7-2.2c-0.5-0.5-1.1-0.8-1.7-0.8c-0.9,0-1.6,0.2-2.2,0.7c-0.6,0.5-1.1,1.1-1.5,1.9
			c-0.4,0.8-0.7,1.6-0.9,2.6c-0.2,1-0.3,1.9-0.3,2.8c0,0.6,0.1,1.2,0.2,1.8C452.6,436.6,452.8,437.2,452.9,437.8z"/>
	</g>
</g>
</svg>
